<?xml version="1.0" encoding="utf-8"?>
<!-- Generator: Adobe Illustrator 19.1.0, SVG Export Plug-In . SVG Version: 6.00 Build 0)  -->
<svg version="1.1" id="Слой_1" xmlns="http://www.w3.org/2000/svg" xmlns:xlink="http://www.w3.org/1999/xlink" x="0px" y="0px"
	 viewBox="0 0 300 300" style="enable-background:new 0 0 300 300;" xml:space="preserve">
<style type="text/css">
	.st0{fill:#340306;}
	.st1{fill:#DDDDDE;}
	.st2{fill:#FFFFFF;}
	.st3{fill:#7B8188;}
	.st4{fill:#7C8086;}
	.st5{fill:#7B8084;}
	.st6{fill:#7E8083;}
	.st7{fill:#CACACB;}
	.st8{fill:#7C7D82;}
	.st9{fill:#DEDEDE;}
	.st10{fill:#D5D5D5;}
	.st11{fill:#414141;}
	.st12{fill:#C9C9CD;}
	.st13{fill:#7B7B81;}
	.st14{fill:#7D7F83;}
	.st15{fill:#CCCCCD;}
	.st16{fill:#818387;}
	.st17{fill:#AEAEAF;}
	.st18{fill:#969597;}
	.st19{fill:#3D3D3F;}
	.st20{fill:#848386;}
	.st21{fill:#B7B7B8;}
	.st22{fill:#D1D1D1;}
	.st23{fill:#9B9B9D;}
	.st24{fill:#333333;}
	.st25{fill:#BCBCBF;}
	.st26{fill:#393A39;}
	.st27{fill:#C4C3C5;}
	.st28{fill:#767878;}
	.st29{fill:#7C7B80;}
	.st30{fill:#D8D8DA;}
	.st31{fill:#29292A;}
	.st32{fill:#393839;}
	.st33{fill:#313031;}
	.st34{fill:#ACACAD;}
	.st35{fill:#2A2A2B;}
	.st36{fill:#76767A;}
	.st37{fill:#727176;}
	.st38{fill:#CCCCCE;}
	.st39{fill:#C4C4C6;}
	.st40{fill:#C3C3C5;}
	.st41{fill:#CACBCE;}
	.st42{fill:#424244;}
	.st43{fill:#798189;}
	.st44{fill:#161517;}
	.st45{fill:#9B9AA1;}
	.st46{fill:#2D2E30;}
	.st47{fill:#363537;}
	.st48{fill:#363638;}
	.st49{fill:#3D3E3E;}
	.st50{fill:#7B7D81;}
	.st51{fill:#8F8F91;}
	.st52{fill:#ADADAD;}
	.st53{fill:#9F9F9F;}
	.st54{fill:#9F9EA0;}
	.st55{fill:#ABABAC;}
	.st56{fill:#A4A4A6;}
	.st57{fill:#7C8286;}
	.st58{fill:#7D8287;}
	.st59{fill:#989897;}
	.st60{fill:#939494;}
	.st61{fill:#262625;}
	.st62{fill:#949293;}
	.st63{fill:#7B7B7B;}
	.st64{fill:#D1D0D4;}
	.st65{fill:#DFE1E8;}
	.st66{fill:#7E8084;}
	.st67{fill:#DDDDE2;}
	.st68{fill:#B6B5B7;}
	.st69{fill:#C6C5C7;}
	.st70{fill:#C3C4C6;}
	.st71{fill:#C7C8CA;}
	.st72{fill:#B1B1B3;}
	.st73{fill:#AEAEB0;}
	.st74{fill:#C3C2C4;}
	.st75{fill:#424143;}
	.st76{fill:#D7D8D8;}
	.st77{fill:#78787B;}
	.st78{fill:#B2B1B2;}
	.st79{fill:#050406;}
	.st80{fill:#080809;}
	.st81{fill:#BABBBD;}
	.st82{fill:#292829;}
	.st83{fill:#B3B3B3;}
	.st84{fill:#D1D2D4;}
	.st85{fill:#ACABAD;}
	.st86{fill:#151517;}
	.st87{fill:#1B1A1D;}
	.st88{fill:#272728;}
	.st89{fill:#FF0000;}
	.st90{fill:#39393A;}
	.st91{fill:#7A797E;}
	.st92{fill:#AAAAAA;}
	.st93{fill:#9F9FA0;}
	.st94{fill:#ACACAB;}
	.st95{fill:#B0AFB1;}
	.st96{fill:#B9B9B9;}
	.st97{fill:#B0B0B2;}
	.st98{fill:#333336;}
	.st99{fill:#393939;}
	.st100{fill:#3E3E3E;}
	.st101{fill:#2F2F2F;}
	.st102{fill:#BCBCBB;}
	.st103{fill:#313130;}
	.st104{fill:#343434;}
	.st105{fill:#7D7C7F;}
	.st106{fill:#B8B8B7;}
	.st107{fill:#2D2D2C;}
	.st108{fill:#2A2B2A;}
	.st109{fill:#323232;}
	.st110{fill:#BABABA;}
	.st111{fill:#2F2F2E;}
	.st112{fill:#3F3F3F;}
	.st113{fill:#B6B6B6;}
	.st114{fill:#3B3B3C;}
	.st115{fill:#2C2B2C;}
	.st116{fill:#2B2B2A;}
	.st117{fill:#404040;}
	.st118{fill:#262527;}
	.st119{fill:#060608;}
	.st120{fill:#242424;}
	.st121{fill:#363635;}
	.st122{fill:#313131;}
	.st123{fill:#303030;}
	.st124{fill:#303031;}
	.st125{fill:#3A3A3A;}
	.st126{fill:#7C7F84;}
	.st127{fill:#C9CACB;}
	.st128{fill:#B5B5B7;}
	.st129{fill:#B2B2B3;}
	.st130{fill:#ADADAE;}
	.st131{fill:#BFBFC1;}
	.st132{fill:#28282A;}
	.st133{fill:#161618;}
	.st134{fill:#616265;}
	.st135{fill:#898989;}
	.st136{fill:#5D5E62;}
	.st137{fill:#232327;}
	.st138{fill:#77777B;}
	.st139{fill:#BCBCBD;}
	.st140{fill:#B8B8B9;}
	.st141{fill:#353434;}
	.st142{fill:#A3A2A4;}
	.st143{fill:#99999A;}
	.st144{fill:#C2C2C4;}
	.st145{fill:#727478;}
	.st146{fill:#78777A;}
	.st147{fill:#CBCBCD;}
	.st148{fill:#414142;}
	.st149{fill:#B4B4B6;}
	.st150{fill:#B4B4B3;}
	.st151{fill:#C5C5C7;}
	.st152{fill:#959595;}
	.st153{fill:#737374;}
	.st154{fill:#A1A1A2;}
	.st155{fill:#333332;}
	.st156{fill:#3D3D3E;}
	.st157{fill:#2E2E2E;}
	.st158{fill:#242425;}
	.st159{fill:#2A292B;}
	.st160{fill:#272727;}
	.st161{fill:#323234;}
	.st162{fill:#4C4C54;}
	.st163{fill:#161616;}
	.st164{fill:#C2C2C2;}
	.st165{fill:#222224;}
	.st166{fill:#C3C3C3;}
	.st167{fill:#222122;}
	.st168{fill:#1C1C1C;}
	.st169{fill:#171718;}
</style>
<path class="st0" d="M241,90.7c0-50-40.5-90.5-90.5-90.5c-50,0-90.5,40.5-90.5,90.5c0,59.8,84.7,199.5,90.4,208.7
	C154.4,297.5,241,151.2,241,90.7z"/>
<g>
	<path class="st1" d="M166.7,37.4l-17.1-8.1l-3.5,0.2l-5.3,0.4l-1.1,4.8l-0.9,1l1,1.6l-1.1,5.4l-2.1,0.8l-1.8,7.1l-2.4,0.4l-2.3,7.6
		l-0.8,1.7c0,0,1.3,2.4,2.2,2.6c0.9,0.1,3.3,0.9,3.3,0.9l4.8-0.9l1-1.1l3.8-0.8l17.8,4.7l5.1-2.4l1.3-4.7l-2.7-1.3l3.2-12.8l5.3-1.3
		l0.8-3L166.7,37.4z M143,45.4l-0.3,0.1l-2.2-2.1l1.4-5.7l2.9-1.3L143,45.4z M155.5,50.6l-0.9,3.4l-1.1,0.1l-0.9-0.7l2.3-11.1l0.8-1
		l1.1,0.3l0.1,0.9L155.5,50.6z"/>
	<g>
		<path class="st2" d="M105.2,110.1c1.5,0.6,3.2,0.7,4.8,0.6c1.7-0.2,3.5-0.6,5.2-1.1c0.8-0.2,1.6-0.5,2.3-0.8c2-0.8,3.6-2,5.8-2.1
			c-0.3-0.3-1.3-0.2-1.7-0.3c-0.7-0.1-1.4-0.2-2-0.3c-1.4-0.3-2.7-0.6-3.9-1.3c-1.7-0.9-3.1-2.2-4.7-3.3c-0.8-0.5-1.7-1-2.7-1.3
			c-1.6-0.4-3.2,0.1-4.3,1.3c-0.2,0.2-0.4,0.3-0.5,0.5c-1,1.3-1.8,2.9-1.4,4.6c0.1,0.5,0.3,0.9,0.6,1.4c0.2,0.4,0.4,0.8,0.8,1.1
			c0.4,0.3,0.8,0.6,1.3,0.8C104.9,110,105.1,110,105.2,110.1z M108.1,101.8c0.3,0.2,0.5,0.3,0.8,0.6c0.4,0.4,0.7,0.9,1,1.4
			c0.2,0.3,0.3,0.5,0.3,0.9c-0.7,0-1.5-0.3-2.2-0.6c-0.8-0.3-2.7-1.1-1.5-2.2c0.3-0.2,0.6-0.3,1-0.3
			C107.7,101.6,107.9,101.7,108.1,101.8z"/>
		<path class="st2" d="M112.7,111.9c0.1-0.1,0.1-0.2,0.1-0.2c-0.3,0.4-1.5,0.5-2.1,0.7c-0.8,0.3-1.5,0.7-2.2,1
			c-0.4,0.2-0.7,0.5-1.1,0.7c-0.4,0.2-0.9,0.4-1.4,0.7c-0.8,0.5-1.6,1.1-2.1,2c-0.2,0.3-0.3,0.6-0.5,0.9c-0.5,0.9-1.2,1.7-1.7,2.6
			c-0.5,0.7-0.9,1.5-0.8,2.4c0.1,0.4,0.2,0.7,0.4,1c0.2,0.3,0.4,0.7,0.7,0.9c0.3,0.2,0.5,0.3,0.9,0.4c0.7,0.2,1.4,0.4,2,0.2
			c0.7-0.2,1.5-0.5,1.8-1.1c0.4-0.7,0.5-1.7,0.6-2.5c0-0.4-0.1-0.9-0.1-1.4c0-1.5,0.5-3,1.4-4.3c0.9-1.3,2-2.3,3.3-3.2
			C112.1,112.4,112.6,112.2,112.7,111.9z M104.5,122c-0.2,0.3-0.5,1-0.9,1.1c-0.2,0-0.3-0.1-0.5-0.1c-0.3-0.1-0.6-0.2-0.8-0.5
			c-0.1-0.2-0.1-0.5-0.1-0.8c0.1-0.3,0.2-0.5,0.4-0.7c0.3-0.4,0.7-0.8,1-1.3c0.3-0.3,0.5-1,0.8-1.3c0.5-0.4,0.4,0.8,0.4,1.1
			c-0.1,0.7-0.1,1.4-0.3,2.1C104.6,121.8,104.6,121.9,104.5,122z"/>
		<path class="st2" d="M119.8,99.9c0.2,0.2,0.4,0.4,0.5,0.8c-0.3-1.8-0.6-3.5-1-5.3c-0.1-0.2-0.1-0.4-0.2-0.7
			c-0.6-1.3-2.1-0.4-2.7,0.4c-0.1,0.1-0.1,0.2-0.1,0.2c-0.1,0.1-0.1,0.3-0.1,0.4c0,0.3,0,0.5,0.1,0.7c0.2,0.8,0.8,1.3,1.5,1.8
			c0.6,0.4,1.1,1,1.6,1.4C119.7,99.8,119.7,99.8,119.8,99.9z"/>
		<path class="st2" d="M170.4,62.9c0.6,0.4,1.5,0.6,2.2,0.8c0.5,0.1,0.9,0.2,1.4,0.3c0.2,0.1,0.3,0.1,0.4,0.1c0.8,0.3,1.5,1,1.8,1.8
			c0.2,0.4,0.2,0.8,0.6,1.1c0.3,0.3,0.8,0.4,1.2,0.5c0.7,0.1,1.4-0.3,1.7-0.8c0.6-0.9,0.2-1.8-0.4-2.6c-0.2-0.2-0.4-0.4-0.5-0.5
			c-0.3-0.2-0.5-0.4-0.8-0.7c-0.2-0.2-0.4-0.3-0.6-0.4c-0.2-0.1-0.4-0.2-0.6-0.3c-0.6-0.2-1.2-0.2-1.8-0.4c-0.6-0.1-1.2-0.1-1.8-0.1
			c-0.5,0.1-1.1,0.2-1.6,0.3c-0.3,0.1-0.6,0.2-0.9,0.3c-0.1,0.1-0.3,0.1-0.4,0.2C170.2,62.8,170.2,62.8,170.4,62.9z"/>
		<path class="st2" d="M171.7,60.8c0.1,0,0.2,0,0.4,0c0.4-0.1,0.8-0.1,1.1-0.2c0.7-0.2,1.4-0.3,2.1-0.4c0.4-0.1,0.8-0.2,1.2-0.3
			c0.4-0.2,0.8-0.5,1-0.8c0.3-0.4,0.5-0.9,0.4-1.3c-0.1-0.4-0.4-0.7-0.8-0.9c-0.5-0.3-1.1-0.5-1.6-0.4c-0.4,0.1-0.7,0.3-1,0.4
			c-1.3,0.8-2.1,1.9-2.8,3.3c-0.1,0.2-0.3,0.4-0.3,0.6C171.3,60.9,171.5,60.8,171.7,60.8z"/>
		<path class="st2" d="M132.9,98.3c0.4,0.9,1.1,1.5,1.9,1.8c1,0.4,2.1,0.5,3.2,0.5c2.1,0.1,4.2-0.4,6.2-1.2c0.7-0.3,1.3-0.6,2-0.7
			c0.6-0.1,0.8,0.3,1.3,0.7c0.1,0.1,0.1,0.1,0.2,0.1c0.7,0.5,1.3,0.9,2.1,1.1c0.7,0.2,1.5,0,2.2-0.2c1.5-0.4,2.7-1.3,3.6-2.4
			c0.5-0.6,0.9-1.3,0.7-2.1c0-0.1,0-0.2-0.1-0.3c0-0.2-0.7-0.5-0.9-0.7c-0.3-0.2-0.6-0.3-0.9-0.4c-0.8-0.2-1.6-0.3-2.4-0.2
			c-0.4,0.1-0.7,0.2-1.1,0.3c-0.3,0.1-0.6,0.2-0.9,0.3c-0.1-0.3-0.1-0.8,0.1-1.1c0.6-1.6,1.1-3.2,1.6-4.7c0.4-1.1,0.7-2.3,1.1-3.4
			c0.4-1,0.8-2.1,1.1-3.1c0.4-1,0.7-2.1,1.1-3.1c0.7-1.7,1-3.4,1.7-5.2c0.1-0.4,0.3-0.6,0.6-0.8c1.2-0.7,2.4-1.4,3.5-2.1
			c1.4-0.8,2.7-1.5,4-2.3c0.9-0.5,1.8-1.1,2.9-1.4c0.3-0.1,0.8-0.2,1,0c0.2,0.2,0.3,0.4,0.3,0.7c0.1,0.4,0.1,0.8,0.1,1.1
			c0,0.5-0.3,0.9-0.2,1.4c0.1,0.5,0.4,0.9,0.8,1.1c0.9,0.6,1.6,0.2,2.2-0.3c0.8-0.5,1.2-1.4,1.6-2.3c0.3-0.9-0.2-1.7-0.2-2.6
			c-0.1-0.3-0.3-0.8-0.5-1c-1-1-2.1-1.5-3.5-1.5c-0.7-0.1-1.4,0.1-2,0.2c-0.9,0.1-1.8,0.4-2.7,0.8c-1.8,0.9-3.8,1.7-5.4,2.9
			c-0.5,0.4-1,0.7-1.5,1c-0.1,0.1-0.3,0.2-0.4,0.2c-0.2,0.1-0.4,0.2-0.5,0.1c0.2-1.1-0.4-2.7-1.5-3.2c-0.3-0.1-0.7-0.2-1-0.2
			c-1.4,0-2.8,0.8-4,1.5c-1.3,0.8-2.3,1.8-3.6,2.7c-1.7,1.3-3.1,2.9-4.6,4.4c-1.1,1.1-0.9,2.2,0.3,3.2c0.4,0.3,1,0.5,1.5,0.5
			c1.2,0.1,2.3-0.2,3.5-0.5c1.8-0.5,3.6-1.1,5.3-2c0,0.1,0.1,0.2,0.1,0.2c-0.3,1-0.5,2-0.8,2.9c-0.3,1.3-0.8,2.4-1.3,3.6
			c-0.5,1.5-1.1,3-1.6,4.6c-0.6,1.8-1.1,3.6-1.6,5.5c-0.1,0.5-0.1,1.1-0.3,1.7c-0.2,0.7-0.7,0.8-1.4,1c-1.4,0.4-2.8,0.8-4.3,1.2
			c-1.3,0.4-2.7,0.7-4,0.5c-0.8-0.2-1.4-0.5-2.2-0.7c-0.7-0.2-1.4-0.3-2.2-0.1c-0.3,0.1-1.1,0.5-0.8,0.9
			C132.7,97.9,132.8,98.1,132.9,98.3z M146.9,75.4c-0.1-0.3,0.1-0.4,0.3-0.6c1.4-1.5,3-2.7,4.6-4c0.4-0.3,0.9-0.4,1.3-0.7
			c0.4-0.2,0.9,0.2,1,0.7c0.1,0.3,0,0.5,0,0.9C152,73.6,149.4,74.4,146.9,75.4z M149.8,97.8c0.1-0.1,0.2-0.1,0.3-0.2
			c0.1-0.1,0.3-0.1,0.6-0.2c0.5-0.1,1.1-0.2,1.2,0.1c0.2,0.4-1,0.9-1.3,0.9C150.2,98.5,149.1,98.4,149.8,97.8z"/>
		<path class="st2" d="M202.8,110.5c-0.3-0.7-0.7-1.3-1.3-1.6c-0.8-0.6-1.8-0.9-2.9-0.9c-1-0.1-1.9,0-2.9,0.2
			c-0.9,0.2-1.7,0.3-2.6,0.6c-1.8,0.6-3.7,1.1-5.5,1.7c-0.8,0.3-1.7,0.4-2.6,1.1c0.7,0,1.3,0.1,1.8,0c1.8-0.2,3.8,0.2,5.5,0.4
			c1.8,0.2,3.7,0.4,5.4,1.1c0.3,0.1,0.5,0.2,0.8,0.3c0.3,0.1,0.7,0.1,1,0.1c1,0,2.2-0.2,2.8-1C203.1,111.9,203.1,111.1,202.8,110.5z
			 M201,110.3c-0.2,0-0.4,0.2-0.6,0.2c-0.2,0.1-0.4-0.1-0.7-0.1c-0.1,0-0.1-0.1-0.2-0.1c-0.9-0.3-1.8-0.3-2.7-0.1
			c-0.7,0.1-1.6,0.4-2.2,0.1c0.2-0.2,0.5-0.4,0.8-0.4c1.3-0.3,2.6-0.7,4-0.6c0.5,0.1,0.9,0.3,1.4,0.5c0.1,0,0.1,0,0.1,0.1v0.1
			C201,110,201,110.2,201,110.3z"/>
		<path class="st2" d="M183.9,108.7c1.5-0.1,3-0.7,4.3-1.2c2.6-1,4.9-2.5,6.6-4.8c0.5-0.8,0.9-1.9,0.8-2.8c-0.1-0.6-0.5-1.2-1-1.4
			c-1-0.5-2.3,0.2-3,0.9c-0.4,0.4-0.7,0.8-0.9,1.3c-0.5,1.3-1.4,2.4-2.4,3.4c-0.7,0.7-1.4,1.4-2,2c-0.2,0.2-0.4,0.4-0.7,0.6
			c-1,0.7-1.9,1.4-2.9,2.1C183.2,109.3,183.5,108.7,183.9,108.7z M191.6,102.8c0.4-0.7,0.6-1.4,1.2-2.1s0.7-0.7,1.5-0.4
			c0.2,0.6,0,1-0.5,1.5c-0.7,0.7-1.4,1.4-2.2,1.8C191.4,103.3,191.4,103,191.6,102.8z"/>
		<path class="st2" d="M166.6,106.2c-0.9,0-1.6-0.1-2.1,0.8c-0.4,0.8-0.5,1.7-1,2.4c-0.3,0.4-0.7,1-1.1,1.4
			c-0.2,0.2-0.9,0.9-1.3,0.9c0.9-0.1,1.8-0.2,2.7-0.5c1.2-0.4,2.3-1,3.1-2.1c0.3-0.5,0.6-1.1,0.6-1.7c0-0.4-0.3-0.9-0.8-1.2
			C166.7,106.2,166.6,106.2,166.6,106.2z M166.6,108c-0.1,0.3-0.4,0.6-0.5,0.8c-0.2,0.2-0.3,0.3-0.4,0.3c-0.1-0.1-0.1-0.3,0-0.7
			c0.1-0.3,0.1-0.5,0.2-0.8C166.2,106.8,166.7,107.4,166.6,108z"/>
		<path class="st2" d="M133.4,114.7c0.5-1.6,1.3-3.4,0.5-4.9c-0.5-1-0.1-1.1,0.8-1.3c0.9-0.2,1.9-0.4,2.8-0.6
			c5.8-1.1,11.6-1.6,17.4-1.9c0.4,0,0.9-0.1,1.3-0.1c0.5,0,1,0.2,1.5,0.2c1,0.1,2,0,3-0.2c0.2-0.1,0.4-0.1,0.6-0.2
			c0.2-0.1,0.3-0.3,0.5-0.4c0.6-0.7,1.3-1.3,1.5-2.2c0.2-0.9,0-1.9-0.8-2.3c-0.6-0.3-1.3-0.3-2-0.2c-0.6,0.1-1.3,0.1-1.8,0.2
			c-0.6,0.1-25.2,4-26,4.2c-1.6,0.3-3.2,0.9-4.7,1.3c-1.1,0.3-2.1,0.8-3.2,1.2c-1.1,0.4-2.2,0.8-3.3,1.4c-1,0.5-2,1-2.9,1.6
			c-2.4,1.5-4.7,3.2-6.5,5.5c-0.9,1.3-1.7,2.5-2.2,4c-0.3,0.9-0.7,2-0.4,2.9c0.2,0.7,0.2,1.3,0.5,1.9c0.3,0.6,0.5,1.3,0.8,1.8
			c0.3,0.6,0.8,1.1,1.1,1.7c0.7,1.2,1.8,1.7,2.8,2.4c0.5,0.3,1.1,0.6,1.6,0.8c0.6,0.3,1.3,0.3,1.9,0.5c1.5,0.4,2.6-0.1,3.3-1.4
			c0.4-0.7,0.3-1.4,0.3-2.1c0-0.8-0.5-1.2-1.1-0.9c-1.3,0.6-2.6,0.2-3.8-0.1c-0.7-0.1-1.3-0.4-1.9-0.9c-1-0.7-1.7-1.5-2.6-2.4
			c-0.7-0.7-1-1.6-1.1-2.5c-0.2-0.9,0.3-1.7,0.7-2.4c1-2,1.8-2.6,3.9-4c1.3-0.9,2.8-1.6,4.2-2.3c1.1-0.5,2.2-1,3.4-1.4
			c1.4-0.5,2.8-0.9,4.2-1.3c1.2-0.4,2-0.6,1.5,1.1c-0.8,3.1-1.3,6.3-1.8,9.4c-0.9,6-1.8,12.1-2.8,18.2c-0.6,3.9-1.2,7.9-1.5,11.9
			c0,0.3-0.1,0.7,0.1,0.9c0.2,0.5,0.9,0.7,1.4,0.5c1.3-0.4,1.4-2.2,1.5-3.3c0.3-1.4,0.5-2.8,0.8-4.2c0.5-2.8,1.1-5.5,1.6-8.3
			c0.1-0.4,0.2-0.9,0.3-1.3c1-5.2,2-10.3,3-15.5C132.5,117.9,132.8,116.3,133.4,114.7z"/>
		<path class="st2" d="M200.3,123.9c-0.3-0.5-0.8-0.8-1.2-1.1s-1,0.2-1.2,0.5c-0.3,0.4-0.4,0.8-0.4,1.3c-0.1,0.7-0.3,1.4-0.3,2
			c0,0.9-0.7,1.5-0.7,2.3c-1,1.5-2.1,3-3.4,4.3c-0.7,0.7-1.4,0.8-2.3,0.5c0.8-1.1,1.4-2.2,1.9-3.3c1-2.3,1.4-4.9,1.3-7.4
			c-0.1-0.8-0.1-1.7-0.4-2.5c-0.4-1.4-1.4-2.6-2.4-3.6c-0.9-1-2.2-1.5-3.5-1.5c-0.6,0-1.2,0-1.8,0c0.2-0.9-0.1-1.4-0.8-1.7
			c-1,0.1-1.8-0.1-2.8,0.5c-1.6,1-2.2,2.2-1.5,3.8c0.2,0.5,0.5,1,1.2,1c0.3,0,0.5-0.2,0.8,0.2c0.1,0.6-0.3,1-0.3,1.6
			c-0.1,1-0.5,2.1-0.7,3.1c-0.3,1.5-0.7,3-0.9,4.6c-0.1,0.7-0.2,1.2-0.5,1.8c-0.2,0.2-0.4,0.5-0.4,0.8c0,0.7-0.4,1.2-0.9,1.5
			c-0.4,0.2-0.8,0.4-1.3,0.4c-0.5,0.1-0.7-0.1-0.5-0.6c0.3-1,0.5-2,0.7-2.9c0.4-1.9,0.7-3.9,0.9-5.9c0.1-0.3,0.1-0.7,0.1-1
			c0-0.6-0.1-1.2-0.3-1.7c-0.2-0.7-0.4-1.4-0.7-2.1c-0.3-0.6-0.6-1.1-1.3-1.2c-0.6-0.1-1.2-0.1-1.8,0.1c-0.5,0.2-1,0.4-1.4,0.8
			c-0.2,0.2-0.4,0.4-0.6,0.6c-0.2,0.2-0.3,0.5-0.4,0.7c-0.5,0.4-0.8-0.5-1.2-0.2c-0.8,0.5-1.5,0.9-1.8,2c-0.4,1.4-0.9,2.7-1.3,4
			c-0.3,1.3-0.7,2.6-0.7,3.9c-0.1,1.4-0.1,2.8-0.1,4.2c0,0.3,0,0.5,0.2,0.8c-0.4,0.2-0.6,0.5-1,0.7c-0.2,0.1-0.5,0-0.7,0
			c-0.4-0.1-0.7-0.1-0.5-0.4c0.1-0.5,0.4-1,0.5-1.5c0.2-0.5,0.3-1,0.4-1.5c0.3-1,0.4-2,0.6-3c0.3-2.1,0.2-4.1-0.2-6.2
			c-0.1-0.3-0.1-0.5-0.2-0.8c-0.5-1.6-2-2.4-3.6-1.6c-0.5,0.2-0.9,0.5-1.4,0.9c-0.4,0.3-0.5,0.9-1,1.1c-0.2,0-0.4,0-0.7,0
			c-0.9-0.1-1.5,0.4-1.9,1.2c-1,2-1.6,4.1-2,6.3c-0.3,1.5-0.4,3.1-0.4,4.7c0.1,1.3,0.3,2.5,0.7,3.7c0.3,1,0,2.2-0.8,2.6
			c-0.3,0.2-0.7,0.4-1.1,0.5c-0.8,0.1-2.1,0.7-2.6-0.4c-0.1-0.3-0.1-0.7,0-1c0.7-4.1,1.5-8.2,2.4-12.2c0.5-2,1-4,1.6-6
			c0.3-1,0.6-2,0.9-3c0.2-0.8,0.3-2,1.2-2c0.3,0,0.7,0.1,1-0.1c1.5-0.7,3.2-0.7,4.8-1c1.4-0.3,2.7-0.5,4-0.9
			c1.5-0.5,2.9-0.9,4.3-1.6c0.6-0.3,0.8-0.8,0.9-1.3c0.2-1.3,0.2-2.6-1.1-3.5c-0.2-0.1-0.3-0.3-0.4-0.4c-0.5-0.5-2,0.2-2.3,0.5
			c-0.3,0.3-0.4,0.7-0.7,0.9c-0.3,0.3-0.8,0.5-1.1,0.8c-0.3,0.3-0.7,0.6-1,0.9c-1,0.8-2.2,1.2-3.4,1.6c-1.7,0.5-3.4,1-5.2,1
			c-0.8,0-1.1-0.2-1.7-0.4c-1-0.4-1.1,0.5-1.9,0.8c-0.4,0.2-1.1,0.1-1.5,0.1c-0.5,0.1-1,0.1-1.6,0.2c-2.2,0.2-4.4,0.6-6.6,1.1
			c-1.4,0.3-2.2,0.8-3.2,1.8c-0.8,0.9-1.4,2-1.7,3.1c-0.5,1.5-0.4,2.9,1.1,4c0.2,0.1,0.6-0.2,1,0.2c-0.6,0.7-0.6,1.6-1.1,2.3
			c-0.5-0.5-1.1-0.5-1.6-0.8c-1.4-0.5-3.3-0.8-4.6,0.3c-1.2,1-2,2.3-2.6,3.7c-1.6,3.5-2.3,7.3-2.1,11.1c0,0.4,0.1,0.9,0.2,1.3
			c1,2.6,3.5,4.9,6.3,3c0.7-0.5,1.1-1.1,1.8-1.6c0.1,0.4,0.3,0.7,0.7,0.9c0.7,0.3,2.2,0.4,2.9,0.1c0.9-0.3,1.6-0.9,2.3-1.5
			c1,0.8,2.3,0.5,3.4,0.5c0.8-0.6,1.8-0.8,2.6-1.4c0.3-0.3,0.6-0.3,1-0.1c1.4,0.8,2.7,0.4,4-0.3c1-0.5,2-1.1,2.8-2
			c0.9,0.7,1.7,1.1,2.8,0.8c0.8-0.2,1.5-0.7,2.1-1.2c1.1-1,1.8-2.2,2.4-3.6c1.1,0.2,2.2-0.1,3.2-0.6c0.2,0.3,0.3,0.4,0.4,0.6
			c0.4,0.9,1.1,1.8,2.1,2.1c1.1,0.4,2.1,0.3,3.1-0.3c0.9-0.6,1.5-1.5,2.1-2.5c0.4-0.8,0.7-1.5,1.5-1.9c0.9,0.1,1.9-0.1,2.9-0.5
			c0,0.6,0.2,1.3-0.1,1.7c-0.3,0.6-0.1,1,0.2,1.4c0.3,0,0.5,0.1,0.8-0.2c0.5-0.5,0.9-1.2,1-1.8c0.1-0.5,0.3-1,0.5-1.5
			c0.3-1,0.4-2.1,0.6-3.1c0.2-1.1,0.5-2.1,0.8-3.2c0.5-2.1,1-4.2,1.4-6.3c0.1-0.5,0.2-1.5,0.7-1.8c-0.1,0.3,1.1,0.4,1.3,0.4
			c0.5,0.2,1,0.4,1.5,0.7c0.9,0.6,1.7,1.4,2.1,2.4c0.3,0.7,0.5,1.5,0.7,2.3c0.1,0.4,0.2,0.9,0.3,1.3c0.2,1.7-0.4,3.7-1.2,5.1
			c-0.1,0.2-0.3,0.5-0.4,0.7c-0.1,0.1-0.3,0.5-0.4,0.5c-0.3,0.1-0.2-0.2-0.3-0.4c-0.1-0.5-0.3-1-0.7-1.5c-0.7-0.9-1.9-0.9-2.8-0.5
			c-1.3,0.4-1.8,1.3-2.2,2.4c-0.3,0.8-0.4,1.6-0.1,2.3c0.2,0.7,0.8,1.4,1.5,1.6c0.2,0.1,0.3,0.1,0.5,0.1c0.1,0.1,0.2,0.1,0.3,0.1
			c0.2,0,0.3,0.1,0.5,0.1c0.9,0,1.7-0.1,2.4-0.7c0.4-0.4,1-0.3,1.4-0.1c0.5,0.3,1.3,0.3,1.8,0.3c0.7,0.1,1.4-0.1,2.1-0.3
			c1.7-0.7,3.3-2,4.3-3.3c1.1-1.4,1.9-3,2.2-4.7c0.1-0.3,0.1-0.6,0.1-0.9c0-0.5,0.1-1-0.1-1.5C200.5,124.2,200.4,124.1,200.3,123.9z
			 M137.4,140.7c-0.2,0.8-0.5,1.7-1.1,2.4c-0.4,0.5-1.1,1-1.7,1.3c-0.5,0.2-1,0.3-1.5,0.1c-0.4-0.2-0.8-0.7-1-1.1
			c-1-2-0.8-4.4-0.3-6.6c0.4-1.8,1-3.6,1.9-5.3c0.2-0.3,0.3-0.7,0.6-1c1-1.3,2.8-1.5,4.3-1.5c0.3,0,0.5,0,0.8-0.1
			c0.3-0.2,0.3-0.6,0.7-0.6c0.1,0.3,0.1,0.7,0,1.1c-0.1,0.7-0.3,1.4-0.5,2c-0.1,0.2-0.1,0.4-0.2,0.5
			C138.5,134.7,138.3,137.8,137.4,140.7z M144,131.3c-0.5,2.4-0.9,4.8-1.2,7.2c-0.1,1.3-0.1,2.4-0.2,3.7c-0.1,0.7-0.9,1.4-1.5,1.7
			c-0.5,0.2-1.1,0.2-1.4-0.3c-0.3-0.4-0.3-0.9-0.2-1.4c0.3-2.2,0.8-4.3,1.4-6.5s1.1-4.2,1.6-6.3c0.4-1.6,1.4-3.4-0.1-4.7
			c-0.2-0.2-0.4-0.4-0.7-0.6c0.8-0.2,1.1-0.4,1.5-0.9c0.3-0.4,0.6-0.9,0.3-1.5c-0.2-0.4-0.5-0.9-0.3-1.4c0.2-0.4,0.4-0.9,0.7-1.3
			c0.1-0.2,2.2-0.7,2.5-0.6c0.7,0.2,0,2.2-0.1,2.7c-0.7,3-1.4,6-2,9C144.1,130.6,144.1,131,144,131.3z M150.5,131.7
			c-0.4,2.4-0.8,4.8-1,7.2c-0.1,1.1,0.2,2.2-0.8,2.9c-0.8,0.5-3.1,1.5-3.6,0.2c-0.2-0.4-0.1-0.9,0-1.3c1.1-6.4,2.6-12.8,4.4-19
			c0.2-0.5,0.3-1,0.4-1.4c0.2-0.7,0.4-1.3,0.5-2c0.1-0.7,0.4-0.8,1.1-0.7c0.3,0.1,0.5-0.3,0.8-0.3c0.6-0.1,0.8-0.1,0.8,0.4
			c0.1,0.6-0.3,1.4-0.4,2c-0.3,1.3-0.5,2.7-0.8,4c-0.2,1-0.4,2.1-0.6,3.1C151,128.4,150.8,130,150.5,131.7z M163,136
			c-0.2,0.5-0.7,1.1-0.8,1.5c-0.3,0.5-0.6,1.1-1.1,1.5c-0.4,0.4-1.1,0.7-1.7,0.5c-0.5-0.1-0.9-0.5-1.1-0.9c-0.7-1-0.9-2.2-0.9-3.4
			c-0.1-2.6,0.7-5.2,1.4-7.7c0.1-0.2,0.2-1,0.4-0.9c0.2,0.1,0.2,0.8,0.2,1c0.1,0.6,0.2,1.3,0.3,1.8c0.2,1.5,0.8,3,1.6,4.2
			c0.4,0.5,0.6,1.2,1.4,1.4C163.2,135.2,163.2,135.5,163,136z M164.5,130.3c-0.1,1.1-0.3,2.3-0.5,3.4c-0.1,0.3-0.1,0.8-0.5,0.8
			c-0.4-0.1-0.9-0.7-1.1-1c-0.4-0.5-0.6-1-0.8-1.6c-0.1-0.2-0.2-0.5-0.2-0.7c-0.1-0.2-0.1-0.4-0.1-0.7c-0.1-1.3,0-2.6,0.3-3.8
			c0.2-0.9,0.5-1.8,1.1-2.6c0.2-0.3,0.4-0.8,0.9-0.7c0.3,0.1,0.6,0.4,0.8,0.7c0.2,0.4,0.3,0.8,0.3,1.3
			C164.7,127.1,164.7,128.7,164.5,130.3z M174.6,134.3c-0.3,0.5-0.6,1.1-1,1.6c-0.1,0.1-0.1,0.1-0.2,0.2c-0.5,0.5-1.3,0.8-2,0.8
			c-0.8,0-1.4-0.5-1.8-1.2c-0.2-0.3-0.3-0.6-0.4-0.9c-0.3-1-0.3-2.1-0.2-3.2c0.1-1.4,0.4-2.7,0.8-4.1c0.2-0.7,0.4-1.3,0.7-1.9
			c0.1-0.3,0.5-1.6,0.9-1.6c0.2,0.9,0.2,1.8,0.4,2.7c0.2,0.8,0.3,1.6,0.6,2.4c0.4,1.1,0.9,2.1,1.6,3c0.3,0.4,0.8,0.5,1,0.8
			C175.2,133.3,174.8,133.9,174.6,134.3z M176.6,126.1c0,0.4,0,0.9-0.1,1.4c0,0.3-0.1,0.5-0.1,0.8c-0.1,0.7-0.2,1.3-0.4,1.9
			c-0.1,0.4-0.3,0.9-0.4,1.4c-0.1,0.1-0.1,0.5-0.2,0.6c-0.1,0.1-0.4-0.3-0.5-0.3c-1.1-0.9-1.5-2.3-1.6-3.6c-0.2-1.4,0.2-2.7,0.3-4
			c0.1-0.7,0.4-1.4,0.5-2.1c0.1-0.3,0.4-0.8,0.8-0.9c0.4-0.1,0.9,0.4,1.1,0.7c0.4,0.6,0.6,1.3,0.7,2.1
			C176.7,124.7,176.6,125.4,176.6,126.1z M184,116.2c-0.2-0.4-0.2-0.8,0-1.3C184.1,115.4,184.1,115.8,184,116.2z M187.7,133.6
			c-1.3,0.9-2.3-0.2-2.5-1.2c-0.1-0.6-0.1-1.1,0.4-1.6s0.9-0.5,1.5-0.5c0.8,0.7,0.7,1.9,1.3,2.7
			C188.2,133.3,187.9,133.5,187.7,133.6z M199.7,128.1c-0.2,0.4-0.3,0.7-0.5,1.1c-0.2,0.4-0.3,0.9-0.6,1.2c-0.5,0.5-0.7,1.4-1.4,1.7
			c0-0.7,0.6-1.3,0.9-1.9c0.5-0.9,1-2,1.2-3c0.2-1,0.2-2,0.2-3.1c0.4,0.4,0.6,0.9,0.7,1.5C200.3,126.4,200,127.3,199.7,128.1z"/>
	</g>
	<path class="st3" d="M129.2,62.4c0-0.2,0.1-0.3,0-0.4c-0.4-1.1-0.3-1.5,0.8-1.8c0.2-0.1,0.5-0.2,0.7-0.3c0.1,0,0.2,0.1,0.2,0.3
		c-0.2,0.7,0.2,1.1,0.7,1.4c1.6,1.1,3.5,1.7,5.4,1.7c0.7,0,1.4,0,2.1,0c-0.2,0.4,0.3,0.6,0.3,1c-0.1,0.3,0,0.7,0,1
		c-1,0-2.1,0.1-3.1,0c-0.8-0.1-1.5-0.2-2.2-0.4C132.3,64.4,130.8,63.4,129.2,62.4z"/>
	<path class="st4" d="M163,64.7c-0.5-0.1-0.3-0.5-0.3-0.7c0.4-0.8,0.3-1.7,0.8-2.5c0.1-0.1,0-0.3,0-0.4c1.4-0.4,2.7-1.3,4.1-1.5
		c0.2,0.2,0.1,0.4,0.1,0.5c-0.2,0.5-0.4,1-0.5,1.5c-0.2,0.9-0.5,1.6-1.6,1.7c-0.2,0-0.5,0.3-0.8,0.4C164.4,64.1,163.8,64.5,163,64.7
		z"/>
	<path class="st5" d="M173,40.8c0.4-0.1,0.9,0.2,1.4-0.4c0.2,1-0.3,1.7-0.7,2.4c-0.1,0.1-0.2,0.3-0.3,0.2c-0.5-0.1-0.9,0.3-1.3,0.3
		c-0.7-0.1-1.3,0.2-1.8,0.3c-0.6,0.1-1.2,0.4-1.8,0.3c-0.2,0-0.2,0.3-0.4,0.3c-0.1-0.8,0.1-1.5,0.4-2.3c0.2,0,0.4,0.1,0.7,0
		c0.9-0.3,1.7-0.6,2.7-0.5C172,40.8,172.7,41.4,173,40.8z"/>
	<path class="st1" d="M141.7,36c0.1,0.4-0.2,0.8-0.3,1.1c-0.3,2.2-1.2,4.4-1.5,6.6c0,0.2-0.3,0.2-0.3,0.4c-0.2,0-0.5,0-0.7,0
		c-0.2-0.2-0.2-0.4-0.2-0.7c0.4-1.6,0.8-3.2,1.2-4.7c0.2-0.7,0.5-1.3,0.5-2.1c0.1-0.1,0.2-0.1,0.2-0.1c-0.1-0.7,0.4-1.2,0.4-1.8
		c0-0.4,0.3-0.7,0.7-0.6C142.3,34.9,141.7,35.4,141.7,36z"/>
	<path class="st6" d="M127,101.1c0-0.7,0-1.3,0.3-1.9c0.4-1.1,0.7-2.2,1-3.3c0.1-0.1,0.1-0.3,0.1-0.4c-0.2-1.4,0.4-2.8,0.3-4.1
		c0.3,0.1,0.5,0.3,0.8,0.4c0.1,1.5-0.1,3-0.5,4.5c-0.5,1.6-1.1,3.1-1.7,4.6C127.2,101,127,101,127,101.1z"/>
	<path class="st7" d="M130.1,52.4c0.6,0.1,1.1,0.3,1.5,0.5c0.3,0.3-0.1,0.4-0.1,0.6c-0.2,0.9-0.5,1.1-1.3,0.8
		c-0.7-0.3-1.4-0.3-2.1-0.7c0-0.3,0-0.7,0-1c0.4,0.1,0.2-0.5,0.4-0.6C129.1,52,129.5,52.6,130.1,52.4z"/>
	<g>
		<path class="st8" d="M134.8,86c-1.1,0-2.1,0-3,0c-1.2-0.3-2.4-0.5-3.5-0.8c-0.5-0.2-0.9-0.7-1.6-0.6c-0.4,0.8-0.4,1.7-0.1,2.6
			c0.1,0.4,0.1,0.7,0.1,1c-0.2,0.2-0.4,0.1-0.5,0.1c0.1,0.6,0.6,0.2,0.9,0.4c0.4,0.3,1.1,0.3,1.6,0.5c0.5,0.4,1.1-0.1,1.6,0.3
			c0.5,0.3,1.2,0.1,1.8,0.1c0.7,0.1,1.3,0,1.8,0c0.9-0.4,1.1-1.2,1.4-1.9C135.4,87.2,134.8,86.6,134.8,86z"/>
		<path class="st8" d="M124.9,83.4c-0.2-0.1-0.5-0.3-0.5-0.5c-0.8,0.7-1,1.7-0.7,2.9c0.2,0.9,0.9,1.5,1.6,2c0.1-0.4-0.2-0.8-0.3-1.1
			c-0.2-0.9,0-1.8,0.5-2.6C125.4,83.7,125.2,83.5,124.9,83.4z"/>
	</g>
	<path class="st9" d="M142.9,30.2c-0.1,0-0.2,0-0.3,0c-0.6-0.2-1,0.2-1.3,0.5c-0.4-0.2-0.7-0.4-1-0.5c-0.2-0.9,0.5-1.4,0.9-2
		c0.3-0.1,0.5,0.2,0.8,0.3c1,0.5,2,0.9,2.9,1.3c-0.2,0.2-0.4,0.1-0.5,0.2c-0.4,0-0.7,0-1.1,0C143,30,142.8,30,142.9,30.2z"/>
	<path class="st10" d="M138.3,29.7c-0.1-1.1,0.7-1.9,1.4-2.5c0.8-0.8,1.4-0.4,1.5,0.8c-0.5,0.2-0.7,0.7-1.1,1c0.1,0.9-0.7,1-1.2,1.3
		C138.6,30.1,138.4,30,138.3,29.7z"/>
	<path class="st11" d="M166.7,44.5c-0.1,0.2-0.2,0.4-0.3,0.5c-0.1,0-0.2,0-0.3,0c-0.5-0.4-1.2-0.4-1.7,0c-0.2,0-0.4,0-0.5,0
		c-0.1-0.5-0.6-0.2-0.9-0.3c-1.7-0.1-3.3-0.9-4.8-1.8c0,0.5,0,0.9,0,1.3c0,0.1,0,0.2,0,0.3c-0.1,0-0.2,0-0.3,0
		c-0.3-0.1-0.6-0.4-0.5-0.5c0.4-0.6-0.3-1.1,0-1.7c0.3-0.1,0.5-0.3,0.8-0.4c0,0.1,0,0.2,0,0.3c-0.1,0.2,0.1,0.3,0.2,0.3
		c1.5,1.2,3.3,1.6,5.2,2c0.8,0,1.5,0,2.2,0c0.2,0,0.4,0,0.3-0.3C166.4,44.3,166.6,44.4,166.7,44.5z"/>
	<path class="st12" d="M165.9,41.3c0.3,0.1,0.5,0.3,0.9,0.3c0.7,0,0.8,0.2,0.9,0.9c0.1,0.5-0.4,1-0.3,1.6c-0.2,0-0.4,0-0.5,0
		c0-0.1,0-0.1,0-0.1c-0.8-0.3-1.5-0.5-2.3-0.7c0.3-0.6,0.8-0.9,1.3-1.4C165.9,41.8,165.9,41.6,165.9,41.3z"/>
	<g>
		<path class="st13" d="M135.9,82h-0.1c-1.4,0.2-2.8-0.1-4.1-0.3c-1.5-0.3-3.1-0.6-4.4-1.6c0.1,0.7-0.6,1-0.6,1.7
			c0.1,0.6,0,1.2,0,1.8c0,0.2-0.1,0.2-0.3,0.2c0.5,0.7,1.4,0.9,2.2,1.1c1,0.3,2,0.8,3,0.7c0.2,0,0.3,0.1,0.2,0.3c1-0.1,2,0.2,3-0.3
			c0.8,0.2,1.1-0.5,1.2-1C136.1,83.7,136.2,82.8,135.9,82z"/>
		<path class="st13" d="M125.5,81c0.2-0.5,0.6-0.8,0.9-1.3c-0.1-0.5-0.8-0.6-0.9-1.1c-0.3,0.1-0.4,0.3-0.6,0.5
			c-0.5,0.7,0,1.6-0.5,2.3c-0.3,0.3,0.4,0.7,0.3,1.1c0.3,0.2,0.5,0.4,0.9,0.5C125.2,81.9,125.2,81.9,125.5,81z"/>
	</g>
	<g>
		<path class="st14" d="M137.4,73.7c-0.5,0-1.1-0.1-1.7,0c-2.2,0.2-4.2-0.6-6.2-1.5c-0.2-0.1-0.4-0.2-0.7-0.2
			c-0.4,0.8-0.7,1.6-0.6,2.5c0,0.3,0.3,0.8-0.3,0.9c0.7,0.6,1.5,1,2.4,1.1c0.4,0.1,0.8,0.2,1.3,0.4c0.1,0.1,0.2,0.2,0.3,0.2
			c1.3-0.1,2.6,0.5,4,0.3c0.2,0,0.5-0.1,0.7,0c0.4,0.1,0.6-0.2,0.7-0.4C137.7,76,138.1,74.9,137.4,73.7z"/>
		<path class="st14" d="M128.1,71.5c-0.1-0.5-0.8-0.6-0.9-1.1c-0.6,0.6-0.8,1.4-0.9,2.1c-0.1,0.4,0,0.8,0,1.1
			c-0.1,0.4,0.4,0.6,0.3,1c0.2,0,0.4,0,0.5,0c0-0.2,0-0.4,0-0.5C127.1,73,127.4,72.2,128.1,71.5z"/>
	</g>
	<path class="st15" d="M127.8,53c0,0.2,0,0.4,0,0.5c0,1,0,1,1.1,1.2c0.3,0.9-0.6,1.1-1,1.7c-0.9-0.4-1-1.3-1-2.1
		c0.5-0.2,0.2-0.6,0.3-0.9c0.1-0.3-0.3-0.7,0.3-0.8C127.5,52.9,127.6,53,127.8,53z"/>
	<g>
		<path class="st16" d="M128.9,70.7c-0.1,0.2,0.1,0.5-0.3,0.5c0.6,0.5,1.4,0.9,2.1,1.1c0.7,0.2,1.1,0.8,1.8,0.6
			c0.5,0.6,1.4-0.1,1.8,0.5c1,0,2,0,2.9,0c1.3-1.3,1.5-2.6,0.7-3.7c-0.7,0-1.4,0-2.1,0c-0.3,0-0.5,0-0.9,0c-0.3,0-0.5,0-0.8,0
			c-0.2,0-0.3-0.1-0.3-0.3c-1.1-0.2-2.2-0.7-3.3-1.1c-0.3-0.2-0.5-0.3-0.7-0.6c-0.1,0-0.2,0-0.3,0C129.1,68.6,129.1,69.7,128.9,70.7
			z"/>
		<path class="st16" d="M139,65.8c-0.1,0-0.1,0-0.2,0c-1.4,0.2-2.8-0.3-4.1-0.3c-0.7-0.5-1.5-0.3-2.1-0.7c-0.7-0.4-1.3-0.7-2-1
			c0,0.2-0.1,0.4-0.2,0.7c-0.2,0.4-0.5,0.8-0.4,1.4c0.1,0.5-0.4,0.9-0.3,1.4c0.1,0.2,0.2,0.4,0.3,0.5c0.3,0.1,0.5-0.1,0.8,0.1
			c0.8,0.6,1.8,0.7,2.7,1c0.7,0.3,1.3,0.3,2,0.3c0.2,0,0.5-0.1,0.5,0.3c0.5,0,1,0,1.5,0c0.2,0,0.4,0,0.7-0.1
			c0.7-0.2,1.1-0.7,1.1-1.3C139.4,67.4,139.8,66.4,139,65.8z"/>
		<path class="st16" d="M129.5,67.2c-0.2-0.3-0.4-0.5-0.5-0.9c0-0.8-0.1-1.5,0.3-2.2c0.2-0.4,0.4-0.7,0.9-0.6
			c0.1-0.2-0.1-0.3-0.2-0.3c-0.4-0.1-0.7-0.4-0.7-0.9c-0.3,0.1-0.4-0.5-0.8-0.3c-0.3,0.3,0.1,0.9-0.3,1.3c-0.2,0.2-0.2,0.9,0.1,1.2
			c0.3,0.4,0.1,0.8,0.2,1.2c0,0.2,0.1,0.4,0,0.4c-0.5,0.3-0.7,0.8-0.9,1.3c-0.3,0.9-0.2,1.7-0.2,2.6c0.3,0.2,0.5,0.4,0.9,0.5
			c0-0.6,0-1.2,0-1.8c0.1-0.8,0.4-1.1,1.1-1.4C129.2,67.3,129.3,67.2,129.5,67.2z"/>
	</g>
	<path class="st17" d="M160.8,52.2c0,0.3,0.2,0.3,0.4,0.3c1.1-0.1,2.2,0.5,3.3,0.4c-0.8,0.2-1.5,0.2-2.3,0.2c-1-0.2-2.1-0.6-3.2-0.5
		c0-0.4-0.3-0.2-0.5-0.3c-0.1-0.4,0-0.8,0.3-1.1c0.7,0.3,1.4,0.7,2.2,0.6c0.2,0,0.4,0,0.3,0.3c0,0.1,0,0.2,0,0.3
		C161.1,52.2,161,52.2,160.8,52.2c0-0.3-0.2-0.3-0.3-0.3c-0.3,0-0.5,0-0.8,0c-0.3-0.3-0.3-0.3-0.8,0c0.3,0,0.6,0,0.8,0
		c0,0.3,0.2,0.3,0.4,0.3C160.2,52.2,160.5,52.2,160.8,52.2z"/>
	<path class="st18" d="M160.2,57c-0.2,0.1-0.4-0.1-0.7,0.2c1.3,0.1,2.4,0.5,3.8,0.4c-0.3,0.3-0.7,0.2-1,0.2c-0.3,0-0.7,0-1,0
		c-0.7-0.1-1.6-0.1-2.2-0.4c-0.4-0.3-1,0.2-1.3-0.4c0-0.1,0-0.2,0-0.3c0.4,0.3,0.9,0.4,1.6,0.1c-0.6,0-1-0.2-1.4-0.3
		c-0.2-0.1-0.5-0.1-0.5,0.3c-0.4-0.1-0.3-0.3-0.2-0.5c0.1-0.1,0.1-0.2,0.2-0.3c0.7,0.3,1.4,0.7,2.2,0.6c0.2,0,0.4,0,0.3,0.3
		C160.2,56.8,160.2,56.9,160.2,57z"/>
	<path class="st13" d="M142.6,60.7c-0.9-0.2-1.6,0.4-2.6,0.2c0-0.3,0-0.5,0-0.8c0.1-0.3,0.3-0.4,0.5-0.5c0.8,0.2,1.6,0.4,2.4,0.7
		C142.8,60.4,142.6,60.5,142.6,60.7z"/>
	<path class="st19" d="M140,51.9c0,0.1,0,0.1,0,0.2c-1.3,0.2-2.6,0.4-3.7-0.3c-0.5-0.3-1.1-0.4-1.7-0.4c0-0.4,0.3-0.3,0.5-0.3
		c0.2,0,0.4,0,0.4-0.3c0.6,0.5,0.9,0.6,2,0.9c-0.1,0.2,0.1,0.3,0.2,0.3c0.2,0,0.4,0,0.3-0.3c0.5,0.1,0.9,0,1-0.5h0.1
		c0,0.3,0,0.5,0,0.9C139.5,51.9,139.8,51.9,140,51.9z"/>
	<path class="st20" d="M124.1,53.3c0.1,0.6,0.9,0.1,1,0.5c0.5-0.2,1,0.3,1.5,0.3c0,0.3,0,0.5,0,0.9c-0.8-0.2-1.5-0.4-2.2-0.6
		C123.7,54.2,123.7,53.9,124.1,53.3z"/>
	<path class="st21" d="M162.2,49c1-0.1,2,0.6,3.1,0.3c-0.7,0.3-1.3,0.2-2,0.2c-0.4,0.2-0.5-0.3-0.9-0.3c-0.9,0.1-1.7-0.2-2.4-0.5
		c-0.2-0.1-0.6-0.2-0.7,0.3c-0.1,0-0.2,0-0.3,0c-0.2-0.4,0.2-0.5,0.3-0.9C160.3,48.5,161.1,49,162.2,49z"/>
	<path class="st22" d="M140,44.5c0.1,0,0.2,0,0.3,0c-0.1,0.2-0.2,0.4-0.3,0.5c-1.1,0-2.1-0.2-2.8-1.1c0.3-0.7,0.9-0.1,1.3-0.3
		c0.3,0.3,0.1,0.5,0.2,0.8C139.7,44.6,139.7,44.6,140,44.5z"/>
	<path class="st23" d="M159.4,55.6c0.3,0,0.4,0.3,0.7,0.3c1-0.1,2,0.4,3,0.3c0.1,0,0.2,0.1,0.2,0.3c-0.8,0-1.5,0-2.3,0
		c-0.6,0.1-1-0.3-1.7-0.3c-0.3,0-0.9-0.1-1.2-0.5c0-0.1,0-0.2,0-0.3C158.5,55.5,159,55.6,159.4,55.6z"/>
	<path class="st24" d="M138.3,29.7c0.1,0.3,0.3,0.4,0.5,0.5c0.6-0.3,1.4-0.4,1.2-1.3c0.4-0.3,0.7-0.8,1.1-1c0,0.1,0,0.2,0,0.3
		c-0.4,0.7-1,1.1-0.9,2c-0.5-0.1-1,0.4-1.6,0.3c-0.4-0.1-0.6-0.2-0.7-0.5C138,29.9,138,29.6,138.3,29.7z"/>
	<path class="st19" d="M157.9,57c0.2,0.7,0.8,0.2,1.3,0.4c0.6,0.3,1.4,0.3,2.2,0.4c0,0.1,0,0.2,0,0.3c-1.3,0.1-2.4-0.3-3.5-0.5
		c-0.2-0.1-0.5-0.1-0.4-0.4C157.5,56.8,157.7,57,157.9,57z"/>
	<path class="st25" d="M136.3,60.7c0,0.3,0.1,0.6-0.4,0.5c-0.7-0.1-1.7-0.6-2.2-1.2c0,0,0-0.1,0.1-0.3c0.5,0.2,1.1,0.4,1.6,0.6
		C135.8,60.3,136,60.6,136.3,60.7z"/>
	<path class="st26" d="M137.2,43.9c0.7,0.9,1.7,1.1,2.8,1.1c0.4,0,0.8,0,1.1,0c0,0.3-0.2,0.3-0.4,0.3c-0.2,0-0.5-0.1-0.5,0.3
		c-0.2-0.1-0.4,0.1-0.5-0.1c-0.2-0.2-0.4-0.2-0.6-0.2c-0.9,0.1-1.5-0.6-2.3-0.9C137,44.3,136.7,43.9,137.2,43.9z"/>
	<path class="st27" d="M141.1,31.7c-0.2,0.3-0.5,1.5-0.5,1.9c0,0.2,0,0.4-0.3,0.4c-0.6-0.3-0.4-0.9-0.2-1.2c0.3-0.5,0.2-1.3,0.7-1.6
		C141.3,31.1,141.1,31.4,141.1,31.7z"/>
	<path class="st28" d="M163,58.9c-0.3,0.1-0.6-0.1-0.9,0.2c-0.2,0.2-0.5-0.3-0.8-0.2c0-0.3,0-0.5,0-0.9c0.7,0,1.3,0,1.8,0
		C163.6,58.6,163,58.7,163,58.9z"/>
	<path class="st29" d="M166.2,45.9c-0.5,0-1.1,0-1.7,0c0-0.3,0-0.5,0-0.9c0.5,0,1.1,0,1.7,0c0.1,0,0.2,0,0.3,0
		C166.4,45.3,166.7,45.7,166.2,45.9z"/>
	<path class="st30" d="M140.3,34.8c0.4,0.5,0.4,0.8,0.1,1.5c-0.1,0.2-0.1,0.3-0.1,0.5c-0.1-0.1-0.2-0.1-0.2-0.1c-1-0.9-1-1,0.2-1.7
		C140.3,34.9,140.3,34.9,140.3,34.8z"/>
	<path class="st31" d="M159.4,49c0.1-0.5,0.5-0.3,0.7-0.3c0.8,0.4,1.6,0.6,2.4,0.5c0.3,0,0.5,0.4,0.9,0.3c0,0.1,0,0.2,0,0.3
		c-0.6,0.2-1.1-0.3-1.7-0.3c-0.3-0.1-0.6,0-0.9-0.2C160.3,49.3,159.8,49,159.4,49z"/>
	<path class="st32" d="M161.4,51.9c0-0.3-0.2-0.3-0.3-0.3c-0.8,0.1-1.5-0.3-2.2-0.6c0-0.1,0-0.2,0-0.3c0.6,0,1.1,0.5,1.7,0.3
		c0,0.3,0.2,0.3,0.3,0.3c0.4-0.1,0.8,0.1,1.1,0.3c0,0.1,0,0.2,0,0.3C161.7,51.9,161.5,51.9,161.4,51.9z"/>
	<path class="st33" d="M162.2,49c-1,0-1.9-0.5-2.8-0.9c0-0.2,0.1-0.3,0.3-0.3c0.3,0,0.5,0.2,0.7,0.3c0.6,0.3,1.3,0.1,1.8,0.5
		C162.2,48.8,162.2,48.9,162.2,49z"/>
	<path class="st34" d="M161.9,51.6c-0.3-0.2-0.7-0.3-1.1-0.3c-0.2,0-0.3-0.1-0.3-0.3c0-0.1,0-0.2,0-0.3c0.3,0.2,0.6,0.4,1,0.3
		c0.3-0.1,1.6,0.4,1.8,0.5C162.9,51.6,162.4,51.6,161.9,51.6z"/>
	<path class="st35" d="M159.1,52.4c1.1-0.1,2.1,0.4,3.2,0.5c0,0.1,0,0.2,0,0.3c-0.3,0-0.5,0-0.9,0c0-0.4-0.3-0.3-0.5-0.3
		C160.2,53,159.6,52.9,159.1,52.4z"/>
	<path class="st36" d="M163.6,48.5c0.7,0,1.3,0,2,0c-0.7,0.4-1.3,0.3-2,0.3C163.6,48.6,163.6,48.6,163.6,48.5z"/>
	<path class="st37" d="M165.3,46.7c-0.4,0-0.8,0-1.1,0c0-0.1,0-0.2,0-0.3c0.5,0,1.1,0,1.7,0C165.8,46.9,165.5,46.7,165.3,46.7z"/>
	<path class="st38" d="M160.2,56.7c0.3,0,0.5,0,0.9,0c0.3,0,0.5,0,0.8,0c-0.5,0.4-1.1,0.2-1.7,0.3C160.2,56.9,160.2,56.8,160.2,56.7
		z"/>
	<path class="st39" d="M161.4,51.9c0.2,0,0.4,0,0.5,0c0.4,0,0.7,0,1.1,0c-0.5,0.4-1.1,0.2-1.7,0.3C161.4,52,161.4,51.9,161.4,51.9z"
		/>
	<path class="st40" d="M161.4,53.3c0.3,0,0.5,0,0.9,0c0.1,0,0.2,0,0.3,0c0,0.3-0.2,0.3-0.3,0.3c-0.4,0-0.7,0-1.1,0
		C161,53.3,161.1,53.3,161.4,53.3z"/>
	<path class="st41" d="M163.6,48.5c0,0.1,0,0.2,0,0.3c-0.5,0-0.9,0-1.4,0c0-0.1,0-0.2,0-0.3c0.2,0,0.4,0,0.5,0
		C163,48.5,163.3,48.5,163.6,48.5z"/>
	<path class="st42" d="M132.9,51.9c-0.2,0-0.4,0-0.5,0c0-0.3,0.2-0.3,0.3-0.3C132.8,51.6,132.9,51.7,132.9,51.9z"/>
	<g>
		<path class="st43" d="M127.3,75.5c-0.4-0.1-0.7-0.4-0.7-0.9c-0.6-0.1-0.8,0.4-1.1,0.7c0,0.1,0,0.1,0,0.2c-0.1,0.4,0,0.9-0.2,1.3
			c-0.3,0.6,0.3,1.3,0.5,1.8c0.2,0.1,0.4,0.2,0.5,0.3c0-0.6,0-1.2,0-1.8c0.1-0.8,0.4-1.1,1.1-1.4C127.6,75.6,127.4,75.5,127.3,75.5z
			"/>
		<path class="st43" d="M136.9,78c0-0.4-0.3-0.2-0.5-0.3c-0.1,0-0.2,0-0.3,0c-0.5,0.4-1.1,0.2-1.7,0.3c-0.5,0.1-0.8-0.4-1.3-0.3
			c-0.4,0.1-0.8,0.1-1.1-0.3c-1.1,0.1-1.9-0.6-2.9-1c-0.3-0.1-0.6-0.1-0.9-0.2c-0.5,0.1-0.1,0.5-0.3,0.8c-0.5,0.4,0,1.1-0.5,1.6
			c-0.2,0.2,0.2,0.4,0.2,0.7c0,0-0.1,0.1-0.1,0.1c-0.1,0-0.1,0-0.2,0c0.9,0.8,2,1.1,3,1.4c1.3,0.4,2.6,0.7,4,0.6c0.5-0.1,1,0,1.6,0
			c0.9-0.2,1.3-0.8,1.4-1.6C137.3,79.2,137,78.6,136.9,78z"/>
	</g>
	<path class="st6" d="M126.7,101.9c0.1-0.2-0.2-0.5,0.3-0.5C126.9,101.6,127.1,101.9,126.7,101.9z"/>
	<path class="st7" d="M132.1,53.6c-0.1,0.2,0.2,0.5-0.3,0.5C131.8,53.9,131.6,53.6,132.1,53.6z"/>
	<path class="st44" d="M162.8,38.8c0.3,0,0.5,0,0.8,0c0.2,0,0.3,0.1,0.3,0.3c-0.5,0-0.9,0-1.4,0c-0.3,0.1-0.7-0.3-0.9,0.3
		c-0.2,0-0.4,0-0.5,0c-0.4-0.2-0.5,0.2-0.9,0.3c-0.2,0.1-0.5-0.1-0.5,0.2c0,0.8-0.6,1.4-0.6,2.1c0,0.1,0,0.2,0,0.3
		c-0.3,0-0.5,0-0.9,0c0-0.1,0-0.2,0-0.3c0.2-0.1,0.5,0.2,0.5-0.3c0-0.8,0-1.5,0-2.2c0-0.2,0-0.4-0.3-0.3c0-0.1,0-0.2,0-0.3
		c0.6,0,1.1,0.5,1.7,0.3c0.3-0.1,0.7,0.3,0.9-0.3C161.6,38.8,162.2,38.8,162.8,38.8z"/>
	<path class="st45" d="M152.6,32.1c-0.3,0.2-0.6,0.2-0.9,0C152,31.9,152.2,31.9,152.6,32.1z"/>
	<path class="st46" d="M161,38.8c-0.1,0.5-0.6,0.2-0.9,0.3C160.3,38.5,160.8,38.9,161,38.8z"/>
	<path class="st6" d="M139.2,45.3c0.2,0,0.4-0.1,0.6,0.2c0.1,0.2,0.3,0.1,0.5,0.1c0,0.5-0.1,0.9-0.3,1.4c-0.3,0.8-0.5,1.7-0.6,2.6
		c-0.1,0.5-0.4,0.9-0.3,1.4c-0.1,0-0.1,0-0.1,0c-0.1,0.6-0.5,0.7-1,0.5c0.2-1,0.3-2.1,0.7-3c0.4-0.9,0.3-2,0.8-2.8
		C139.5,45.6,139.1,45.6,139.2,45.3z"/>
	<path class="st47" d="M143.7,51.6c0,0.1,0,0.1,0,0.1c0.1,0.2,0.4,0.2,0.2,0.4c-0.1,0.1-0.3,0.1-0.8,0c-0.2,0-0.2,0.1-0.1,0.1
		c0.1-0.1,0.4,0.2,0.4-0.1c-0.1-0.2-0.3-0.2-0.3,0.1c0.2,0.4,0.8,0.4,0.5,0.9c-0.3-0.2-0.7-0.3-1.1-0.5c0.1-0.4-0.5-0.2-0.5-0.4
		c0-0.4-0.2-0.5-0.5-0.3c-0.2,0.7,0.3,1,0.8,1.4c-0.1,0.2,0.2,0.4,0.3,0.4c0.8,0.3,1.4,0.9,2.3,1c0,0.2-0.1,0.3-0.3,0.3
		s-0.4,0-0.5,0c-0.1-0.5-0.7-0.3-0.9-0.5c-1.3-0.5-2.1-1-2-2.4c0-0.3,0-0.7,0-1c0.4-0.1,0.2,0.5,0.4,0.5c0.1-0.1,0.4-0.1,0.5-0.3
		c0.2-0.3,0.7-0.1,0.7-0.5c0.1,0,0.2,0,0.3,0c0,0.4,0.3,0.2,0.5,0.3c0,0.1,0,0.2,0,0.3c-0.1,0-0.2,0-0.3,0c-0.2,0.1-0.4-0.1-0.5,0.1
		C143.3,51.5,143.3,51.5,143.7,51.6z"/>
	<path class="st48" d="M144.6,47.3c0.1,0.3-0.1,0.5-0.4,0.8c0.2,0.2,0.4,0.3,0.7,0.4c-0.2,0.3-0.4,0.2-0.5,0.2
		c-0.2-0.3-0.3-0.7-0.9-0.5c0.2,0.4,0.4,0.5,0.9,0.5c0,0.1-0.1,0.1,0,0.1c0.1,0.2,0.4,0.2,0.2,0.4c-0.1,0.1-0.3,0.1-0.5,0.1
		c0-0.2-0.1-0.3-0.3-0.3c-0.1,0-0.2,0.1-0.2,0.1c0,0.2,0.1,0.2,0.2,0.2c0,0.1,0,0.2,0,0.3c-0.2,0-0.4,0-0.5,0
		c0.1-0.4-0.3-0.2-0.5-0.4c0.2-0.3,0.3-0.7,0.5-1.1c-0.4-0.3-0.1-0.7-0.1-1.1c0-0.2,0.2-0.8,0.3-0.9c0.1-0.1,0.3,0,0.4,0
		c0.3,0.1,0.5,0.3,0.5,0.5c-0.2,0.1-0.4-0.1-0.5,0.1C144,47.2,144.1,47.4,144.6,47.3z"/>
	<path class="st49" d="M145.4,38.2c1.3,1.2,2.9,1.6,4.4,2.3c0.3,0.1,0.7,0,1,0c0,0.2,0.1,0.3,0.3,0.3c0,0.1,0,0.2,0,0.3
		c-1.6-0.1-4.2-1.1-5.4-2c-0.3-0.1-0.3,0.3-0.6,0.3c-0.3-0.4-0.3-0.4-0.2-1.1C145.1,38.1,145.3,38.8,145.4,38.2z"/>
	<path class="st50" d="M142,36.2c0.4,0,0.3-0.3,0.3-0.5c-0.1-0.4,0.2-0.7,0.5-1c0.6,0.3,1.2,0.6,1.8,0.9c0.1,0.1,0.2,0.1,0.3,0.1
		c-0.9,0.4-1.7,0.8-2.5,1.3C142.1,36.8,141.9,36.6,142,36.2z"/>
	<path class="st51" d="M146,42c0.4,0,0.3,0.2,0.2,0.5c-0.1,0.1-0.1,0.2-0.2,0.3c-0.3-0.1-0.5-0.4-0.9-0.3c-0.2,0-0.3-0.1-0.3-0.3
		c-0.4-0.7-0.4-0.7,0.3-1.4c0.2,0,0.3,0.1,0.3,0.3c0,0.4,0.3,0.2,0.5,0.3c0.1,0,0.2,0,0.3,0C146.2,41.6,146.1,41.7,146,42
		c-0.1-0.1-0.2-0.2-0.3-0.3c-0.2-0.2-0.3-0.1-0.5,0C145.5,42.1,145.5,42.1,146,42z"/>
	<path class="st48" d="M143.2,50.4c-0.1,0-0.2,0-0.3,0c-0.4-0.1-0.7-0.3-0.5-0.8l0.8-0.1c0.1,0.4,0.4,0.6,0.9,0.5c0,0.1,0,0.1,0,0.1
		c0.1,0.2,0.4,0.2,0.2,0.4c-0.1,0.1-0.3,0.1-0.5,0.1C143.7,50.3,143.4,50.5,143.2,50.4z"/>
	<path class="st1" d="M141.1,45c-0.4,0-0.8,0-1.1,0c0.1-0.2,0.2-0.4,0.3-0.5c0-0.1,0-0.1,0-0.1c0.3-0.1,1,0.1,1.1,0.4
		C141.5,44.9,141.4,45,141.1,45z"/>
	<path class="st52" d="M144.3,46.7c-0.1-0.3-0.3-0.5-0.5-0.5c0-0.4,0.3-0.2,0.5-0.3c0,0.3,0.2,0.4,0.4,0.5c0.2,0.1,0.4,0.1,0.4-0.2
		c0.4,0.1,0.3,0.3,0.2,0.5c-0.1,0.1-0.1,0.2-0.2,0.3C144.8,47,144.6,46.6,144.3,46.7z"/>
	<path class="st53" d="M145.4,44.8c0.4,0.1,0.3,0.3,0.2,0.5c-0.1,0.1-0.1,0.2-0.2,0.3c-0.3-0.1-0.5-0.4-0.9-0.3
		c-0.1-0.3-0.4-0.4-0.5-0.7c0.1-0.3,0.4-0.1,0.5-0.2c0,0.3,0.2,0.4,0.4,0.5C145.2,45.1,145.4,45.1,145.4,44.8z"/>
	<path class="st54" d="M145.4,41.1c0-0.2-0.1-0.3-0.3-0.3c0.1-0.2-0.1-0.4,0.1-0.5c0.3,0.3,0.7,0.5,1,0.8c0,0.1,0,0.2,0,0.3
		c-0.1,0-0.2,0-0.3,0C146,40.9,145.7,41.1,145.4,41.1z"/>
	<path class="st55" d="M144.6,44.5c-0.1-0.3-0.4-0.4-0.5-0.7c0.1-0.3,0.4-0.1,0.5-0.2c0.1,0,0.2,0,0.3,0c-0.2,0.4,0.2,0.5,0.3,0.9
		C144.9,44.5,144.8,44.5,144.6,44.5z"/>
	<path class="st56" d="M144.8,42.2c0,0.2,0.1,0.3,0.3,0.3c0.1,0.2,0.2,0.4,0.3,0.5c-0.2,0-0.4,0-0.5,0c-0.1-0.1-0.1-0.2-0.2-0.3
		C144.5,42.5,144.5,42.3,144.8,42.2z"/>
	<path class="st55" d="M144.3,45.9c0-0.1,0-0.1,0-0.1c-0.1-0.2-0.4-0.2-0.2-0.4c0.1-0.1,0.3-0.1,0.5-0.1c0.1,0.2,0.2,0.4,0.3,0.5
		C144.7,45.9,144.5,45.9,144.3,45.9z"/>
	<path class="st57" d="M154.8,39.9c-0.8-0.3-1.6-0.8-2.4-0.9c-0.1,0-0.1-0.2-0.1-0.2c0.2-0.1,0.4,0.1,0.5-0.1
		c0.5-0.5,1.1-0.9,1.5-1.6c0.8,0.2,1.6,0.5,2.3,1.1C155.8,38.7,155.3,39.2,154.8,39.9z"/>
	<path class="st43" d="M134.1,69.5c0.3,0,0.5,0,0.8,0c0.2,0,0.3,0.1,0.3,0.3c-0.3,0-0.5,0-0.8,0C134.2,69.8,134,69.7,134.1,69.5z"/>
	<g>
		<path class="st58" d="M150.2,57.3C150.2,57.3,150.2,57.2,150.2,57.3c-0.1-0.1-0.3-0.2-0.4-0.2c-0.1-0.1-0.3-0.1-0.4-0.1
			c-0.2-0.1-0.5-0.2-0.8-0.2c-0.3-0.1-0.5-0.2-0.8-0.3c-0.3-0.1-0.4,0.1-0.5,0.2c-0.9,1-1.8,2.1-2.7,3.2c-0.1,0.1-0.1,0.1-0.1,0.2
			c0,0.2,0.2,0.2,0.3,0.3c0.2,0.1,0.4,0.1,0.7,0.2c0.1,0.1,1.3,0.3,1.3,0.4c0.1-0.2-0.1-0.4,0.1-0.5c0.1-0.1,0.1-0.1,0.1-0.1
			c0.7-0.7,1.4-1.5,2.1-2.1c0.2-0.2,0.4-0.3,0.5-0.5C149.8,57.6,150.2,57.4,150.2,57.3z"/>
		<path class="st58" d="M141.5,54.4c0.1,0.4-0.2,0.6-0.4,0.8c-1.5,1.5-3,3-4.6,4.6c-0.3,0-0.5,0-0.7,0c0,0.1,0,0.2,0,0.3
			c0.6-0.2,1.1,0.3,1.7,0.3c0.1-0.2-0.2-0.3-0.3-0.4c0.8-0.8,1.5-1.5,2.3-2.3c0.9-1,2-1.8,2.8-2.9C142,54.8,141.7,54.4,141.5,54.4z"
			/>
		<path class="st58" d="M151.9,57.5c-0.4,0.1-0.8-0.1-1.1-0.3c-0.1,0.2,0.1,0.4-0.1,0.5c-1.1,1-2.1,2.2-3.3,3.2
			c0.1,0.5,0.6,0.2,0.9,0.3c1-1.3,2.2-2.2,3.3-3.4c0.3,0,0.5,0,0.7,0C152.3,57.6,152.1,57.5,151.9,57.5z"/>
		<path class="st58" d="M139.1,56.1c0.6-0.6,1.1-1.3,1.8-1.7c0-0.1,0-0.1,0-0.1c-0.9-0.3-1.7-0.5-2.6-0.7c-1.6,1.8-3.3,3.6-4.9,5.4
			c-0.4,0-0.7,0-1,0c0.1,0.1,0.1,0.2,0.1,0.2c1.1-0.1,2,0.4,3,0.7C136.5,58.5,137.9,57.4,139.1,56.1z"/>
	</g>
	<path class="st46" d="M161.6,39.3c0.1-0.5,0.6-0.2,0.9-0.3C162.3,39.6,161.9,39.2,161.6,39.3z"/>
	<path class="st59" d="M156.3,56.1c0,0.1,0,0.2,0,0.3c-0.3-0.1-0.5-0.4-0.9-0.3c-0.1-0.3-0.3-0.5-0.5-0.5c0-0.4,0.3-0.2,0.5-0.3
		c0.1,0.3,0.3,0.5,0.7,0.6C156.1,55.8,156.3,56,156.3,56.1z"/>
	<path class="st60" d="M160.2,59.5c0,0.1,0,0.2,0,0.3c-0.4-0.3-0.9-0.3-1.5-0.3C159.6,59.2,159.6,59.2,160.2,59.5z"/>
	<path class="st61" d="M155.4,56.1c0.4-0.2,0.5,0.2,0.9,0.3c-0.1,0.4-0.3,0.3-0.5,0.2c-0.1-0.1-0.2-0.1-0.3-0.2
		C155.4,56.3,155.4,56.2,155.4,56.1z"/>
	<path class="st62" d="M156.8,58.6c-0.2,0.2-0.5,0.2-0.5-0.1c-0.1-0.3,0.3-0.1,0.4-0.1C156.6,58.4,156.7,58.5,156.8,58.6z"/>
	<path class="st6" d="M138,51.6c0,0.3-0.2,0.3-0.3,0.3c-0.2,0-0.3-0.1-0.2-0.3C137.7,51.6,137.8,51.6,138,51.6z"/>
	<path class="st15" d="M127,52.7c-0.1,0.2,0.2,0.5-0.3,0.5C126.7,53.1,126.5,52.8,127,52.7z"/>
	<path class="st63" d="M143.2,54.1c0.2,0.3,0.8,0.1,0.9,0.5c-0.3,0-0.5,0-0.8,0c-0.2,0-0.3-0.1-0.3-0.3
		C143,54.4,143.2,54.3,143.2,54.1z"/>
	<g>
		<path d="M156.3,58.5c0.1,0,0.2,0.1,0.3,0.1c-0.1-0.1-0.1-0.1-0.2-0.1C156.3,58.4,156.3,58.4,156.3,58.5z"/>
		<path d="M175.5,40c-1.5-0.5-2.9-1.1-4.4-1.5c-1.4-0.4-2.9-0.8-4.2-1.5c-2.6-1.2-5-2.5-7.5-3.8c-1.3-0.7-2.6-1.4-4-2
			c-1.2-0.5-2.3-1.1-3.4-1.7c-0.8-0.4-1.7-0.9-2.8-0.8c-0.4,0.1-0.6,0.3-1,0.3c-1.5,0.1-2.9-0.1-4.2-0.8c-0.9-0.5-1.9-0.7-2.2-1.9
			c-0.1-0.4-1.3-0.9-1.5-0.7c-0.7,0.5-1.5,0.7-2,1.6c-0.3,0.7-0.9,1.1-0.8,2c-0.6,0.7-0.3,1.3,0,1.9c0.3,0.8,1,0.9,1.7,0.8
			c-0.1,0.9-0.7,1.6,0.1,2.3c-1,0.5-1,0.5-0.9,2.1c0.3,0.3,0.7,0.7,1,0.9c-0.4,1.7-0.8,3.3-1.1,5.1c-0.4-0.2-0.7,0.2-1,0.2
			c-0.9,0-1,0.8-1.5,1.3c0.1,1-0.4,2-0.6,3c-0.2,1.2-0.6,2.3-0.9,3.3c-0.7,0.2-1.3,0-1.9,0.2c-0.7,0.2-0.8,0.8-1.3,1.2
			c-0.2-0.5-0.3-0.9-0.3-1.2c0-0.9-0.7-1.1-1.3-1.2c-0.6-0.1-1.1-0.4-1.7-0.4c-0.7,0-1.4-0.9-2.1-0.2c-1,0-1.4,0.8-1.8,1.5
			c-0.8,1.3-1,2.7-0.8,4.2c0.1,1.1,0.8,2,1.8,2.3c1.2,0.3,2.4,0.9,3.6,0.6c0.7-0.4,1-1.2,1.8-1.5c-0.2,1.2-0.7,2.2-0.8,3.4
			c-1.1,0.6-1.6,1.5-2,2.6c-0.3,1-0.3,2-0.3,3c0,0.3,0.1,0.7-0.1,1c-0.6,1.1-0.8,2.2-0.8,3.4c0,0.3-0.1,0.6-0.3,0.9
			c-0.6,1.1-0.9,2.3-0.9,3.6c0,0.2,0.1,0.4-0.1,0.7c-0.6,1-0.8,2.2-0.8,3.4c0,0.2,0,0.4-0.1,0.7c-0.5,1-0.8,2.1-0.7,3.3
			c0,0.3,0.1,0.5-0.2,0.8c-1,1.2-1,3.5-0.1,4.9c0.4,0.6,0.9,1.3,1.5,1.5c1,0.4,0.9,1.3,1,2c0.1,0.7,0.1,1.3,0.1,2
			c0,0.5-1.5,1-1.7,1.4c-0.3,0.5,0.1,2.2,0.1,2.9c0.1,2.2,0.4,4.3,0.6,6.5c0.1,0.9,0.1,1.9,0.3,2.8c0.9-0.9,1.6-2.4,2.3-3.6
			c1.1-1.8,2.3-3.7,3.5-5.5c0.4-0.5,1-1.1,1-1.7c0.1-0.7,0.3-1.4,0.4-2c0.2-0.9,0.2-1.8,0.7-2.7c0.5,0.2,0.9-0.4,1.4-0.3
			c0.7,0.2,1.3-0.3,1.9-0.5c1-0.4,1.8-2,1.4-3c-0.4-0.9,0-1.4,0.3-2c0.1-0.2,0.3-0.3,0.3-0.4c0-0.8,0.2-1.7-0.3-2.4
			c0.5-0.6,1.1-1,1.4-1.9c0.1-0.5,0.1-1,0.1-1.5c0.1-0.7-0.1-1.3,0.5-1.8c0.4-0.4,0.3-1,0.3-1.6c-0.1-1.1,0.1-2.1,0.7-3
			c0.4-0.7,0.3-1.7-0.1-2.4c0.9-1.1,1.6-2.2,0.8-3.7c0.2-0.2,0.4-0.4,0.6-0.6c0.7-0.8,1.2-1.7,0.5-2.8c0.2-0.4-0.4-0.8-0.3-1.3
			c0.3,0,0.7,0,0.9,0c1.3-0.2,1.3-0.1,2.8,0.3c1.3,0.3,2.4,0.8,3.6,1.1c1.5,0.4,3,0.8,4.5,1.2c0.9,0.3,1.8,0.5,2.7,0.8
			c1.4,0.4,2.8,0.8,4.2,1.2c0.5,0.2,1.1,0.1,1.7-0.2c1.3-0.7,2.6-1.4,3.9-2c0.7-0.3,0.6-0.4,1-1c0.6-0.9,0.7-2,1.1-2.9
			c0.2-0.3,0.3-0.6,0.3-1c-0.1-0.8-0.1-0.7-0.8-1c-0.7-0.3-1.5-0.3-2-0.9c0.1-0.2,0.2-0.3,0.2-0.4c0-0.5,0.1-1.1,0.3-1.6
			c0.3-0.8,0.5-1.5,0.6-2.3c0.2-1,0.4-1.9,0.7-2.9c0.3-1.4,0.7-2.7,1-4.1c0.1-0.5,0.3-0.6,0.8-0.8c0.7-0.4,1.5-0.1,2.2-0.5
			c0.4-0.2,0.9-0.4,1.4-0.3c0.4,0.1,0.9-0.2,1-0.5C175.1,42.3,175.8,41.2,175.5,40z M138.8,30.6c-0.4-0.1-0.6-0.2-0.7-0.5
			c-0.1-0.2,0-0.4,0.3-0.3c-0.1-1.1,0.7-1.9,1.4-2.5c0.8-0.8,1.4-0.4,1.5,0.8c0,0.1,0,0.2,0,0.3c0.3-0.1,0.5,0.2,0.8,0.3
			c1,0.5,2,0.9,2.9,1.3c-0.2,0.2-0.4,0.1-0.5,0.2c-0.4,0-0.7,0-1.1,0c-0.2,0-0.4,0.1-0.3,0.3c-0.1,0-0.2,0-0.3,0
			c-0.6-0.2-1,0.2-1.3,0.5c-0.4-0.2-0.7-0.4-1-0.5C139.8,30.2,139.3,30.7,138.8,30.6z M141.1,31.7c-0.2,0.3-0.5,1.5-0.5,1.9
			c0,0.2,0,0.4-0.3,0.4c-0.6-0.3-0.4-0.9-0.2-1.2c0.3-0.5,0.2-1.3,0.7-1.6C141.3,31.1,141.1,31.4,141.1,31.7z M140.3,34.8
			c0.4,0.5,0.4,0.8,0.1,1.5c-0.1,0.2-0.1,0.3-0.1,0.5c-0.1-0.1-0.2-0.1-0.2-0.1c-1-0.9-1-1,0.2-1.7
			C140.3,34.9,140.3,34.9,140.3,34.8z M138.9,43.6c0.4-1.6,0.8-3.2,1.2-4.7c0.2-0.7,0.5-1.3,0.5-2.1c0.1-0.1,0.2-0.1,0.2-0.1
			c-0.1-0.7,0.4-1.2,0.4-1.8c0-0.4,0.3-0.7,0.7-0.6c0.4,0.7-0.2,1.1-0.2,1.7c0.1,0.4-0.2,0.8-0.3,1.1c-0.3,2.2-1.2,4.4-1.5,6.6
			c0,0.2-0.3,0.2-0.3,0.4c-0.2,0-0.5,0-0.7,0C138.8,44,138.9,43.7,138.9,43.6z M142.3,35.7c-0.1-0.4,0.2-0.7,0.5-1
			c0.6,0.3,1.2,0.6,1.8,0.9c0.1,0.1,0.2,0.1,0.3,0.1c-0.9,0.4-1.7,0.8-2.5,1.3c-0.2-0.2-0.5-0.4-0.4-0.8
			C142.4,36.2,142.3,35.9,142.3,35.7z M142.3,38.8c-0.1-0.5,0.2-0.9,0.7-0.8c0.5,0.1,0.7-0.7,1.3-0.5c-0.7,2.2-1.4,4.5-1.7,6.8
			c-0.4-0.3-0.6-0.6-1-0.7c-0.3-0.1-0.5-0.5-0.4-0.8c0.5-1.1,0.4-2.3,1-3.4C142.3,39.1,142.3,38.9,142.3,38.8z M133.4,51.3
			c0.4,0,0.8,0,1.3,0c0-0.4,0.3-0.3,0.5-0.3s0.4,0,0.4-0.3c-0.1-0.8,0.3-1.5,0.4-2.2c0.1-0.7,0.4-1.3,0.5-2c0.1-0.7,0.2-1.4,0.5-2
			c0.1-0.2-0.2-0.5,0.3-0.5c0.3-0.7,0.9-0.1,1.3-0.3c0.3,0.3,0.1,0.5,0.2,0.8c1,0.3,1,0.3,1.4,0.1c0.1,0,0.2,0,0.3,0
			c0-0.1,0-0.1,0-0.1c0.3-0.1,1,0.1,1.1,0.4c0.1,0.2,0,0.3-0.3,0.3c0,0.3-0.2,0.3-0.4,0.3c-0.2,0-0.5-0.1-0.5,0.3
			c0,0.5-0.1,0.9-0.3,1.4c-0.3,0.8-0.5,1.7-0.6,2.6c-0.1,0.5-0.4,0.9-0.3,1.4c0,0.3,0,0.5,0,0.9c0.3,0,0.6,0,0.9,0
			c0.4-0.2,0.4-0.6,0.5-0.9c0.2-0.3,0.4-0.2,0.6-0.2c0.4-0.1,0.2,0.5,0.4,0.5c0.1-0.1,0.4-0.1,0.5-0.3c0.2-0.3,0.7-0.1,0.7-0.5
			c-0.4-0.1-0.7-0.3-0.5-0.8l0.8-0.1c0.1-0.4-0.3-0.2-0.5-0.4c0.2-0.3,0.3-0.7,0.5-1.1c-0.4-0.3-0.1-0.7-0.1-1.1
			c0-0.2,0.2-0.8,0.3-0.9c0.1-0.1,0.3,0,0.4,0c0-0.4,0.3-0.2,0.5-0.3c0-0.1,0-0.1,0-0.1c-0.1-0.2-0.4-0.2-0.2-0.4
			c0.1-0.1,0.3-0.1,0.5-0.1c-0.1-0.3-0.4-0.4-0.5-0.7c0.1-0.3,0.4-0.1,0.5-0.2c-0.1-0.3-0.4-0.4-0.5-0.7c0.1-0.3,0.4-0.1,0.5-0.2
			c0.1-0.2-0.2-0.5,0.3-0.5c-0.1-0.1-0.1-0.2-0.2-0.3c-0.2-0.3-0.2-0.5,0.2-0.5c-0.4-0.7-0.4-0.7,0.3-1.4c0.1-0.2-0.1-0.4,0.1-0.5
			c0.3,0.3,0.7,0.5,1,0.8c0.4-0.1,0.4-0.4,0.1-0.5c-0.6-0.2-0.9-0.7-1.3-1.1c-0.3-0.4-0.3-0.4-0.2-1.1c0.2-0.1,0.4,0.6,0.5-0.1
			c-0.2-0.3-0.5-0.7,0-1c0.1-0.1,0-0.3,0-0.4c0.5,0,1,0,1.5,0.3c0.2,0.2,0.5,0.3,0.5,0.5c0,0.8,0.5,1,1.1,1.3
			c0.9,0.4,1.8,0.9,2.9,0.8c1-0.1,2,0.2,2.9,0.5c0.3,0.1,0.2,0.4,0.2,0.6c-1.1,0-2.3,0-3.4,0c0,0.1,0,0.2,0,0.3c0.2,0,0.4,0,0.5,0
			c0.5,0,1,0,1.5,0c0.4,0,0.5,0.2,0.8,0.5c-0.1,0.5-0.4,0.7-0.9,0.7c-0.5-0.1-1.1,0-1.7,0c0,0.1,0,0.2,0,0.3c0.1,0,0.2,0,0.3,0
			c0.7,0,1.3,0,2.1,0c-0.3,0.5-0.7,0.1-0.9,0.4c0,0.3,0.7,0.1,0.5,0.5c-0.1,0.3-0.2,0.5,0,0.8c-0.6,0-1.1,0-1.7,0s-1.1,0-1.7,0
			c0,0.1,0,0.2,0,0.3c0.3,0,0.5,0,0.9,0c0.8,0,1.5,0,2.3,0c-0.2,0.4-0.4,0.7-0.3,1c-0.2,0.1-0.2,0.1-0.3,0.2c-0.8,0-1.7,0-2.5,0
			c-0.2,0-0.4,0-0.4,0.3c0.4,0,0.9,0,1.4,0c-0.7,0.4-1.3,0.3-2,0.3c-0.2,0-0.3,0.1-0.3,0.3c0.4,0,0.8,0,1.1,0
			c0.4-0.2,0.5,0.3,0.9,0.3c0.5,0,1.1,0.1,1.6-0.3c0.1,0.3,0.1,0.5-0.2,0.5c-0.8,0-1.5,0-2.3,0c-0.2,0-0.4,0-0.4,0.3
			c0.3,0,0.5,0,0.9,0c0.5,0,1.1,0,1.7,0c-0.1,0.4-0.4,0.2-0.5,0.3c0,0.1,0,0.2,0,0.3c0.5,0,0.6,0.1,0.3,0.5c0,0.1,0,0.2,0,0.3
			c0,0.3-0.2,0.3-0.4,0.3c-0.9,0-1.8,0-2.8,0c0,0.1,0,0.2,0,0.3c0.9,0,1.8,0,2.9,0c-0.3,0.4-0.8,0.3-1.1,0.5
			c-0.4-0.6-0.8,0.3-1.2,0.1c0,0.3,0.2,0.3,0.4,0.3c0.5,0,1.1,0,1.7,0c-0.1,0.2-0.1,0.2-0.2,0.2c-0.8,0-1.6,0.1-2.5,0.1
			c0,0.1,0,0.2,0,0.3c0.4,0,0.7,0,1.1,0c-0.5,0.4-1,0.2-1.5,0.3c-0.5,0.1-1-0.4-1.6-0.3c-0.3-0.3-0.7-0.3-1.1-0.3
			c-0.2,0-0.3,0.2-0.2,0.2c1,0.2,1.9,0.7,2.9,0.7c0.7,0,0.7,0,1.5,0.5c-0.3,0.2-0.5,0.1-0.8,0.1c0,0.1,0,0.2,0,0.3
			c0.1,0,0.2,0,0.3,0c0.5,0,1.1,0,1.8,0c-0.4,0.4-0.8,0.3-1,0.3c0.1,0.6,0.7,0.1,0.9,0.5c0,0.5-0.5,0.8-0.9,1.3
			c0.2,0.1,0.5-0.2,0.5,0.3c-0.1,0.2,0.2,0.5-0.3,0.5c0,0.3-0.2,0.3-0.3,0.3c-0.4,0-0.9,0-1.4,0c-0.3,0-0.5,0-0.9,0
			c0-0.3-0.2-0.3-0.3-0.3c-0.8,0.2-1.5-0.4-2.3-0.3c-0.2,0-0.2-0.3-0.4-0.3c0,0.2-0.1,0.3-0.3,0.3c0,0.3-0.2,0.3-0.3,0.3
			c-0.2,0-0.3-0.1-0.2-0.3c-0.3,0-0.5,0-0.8,0c-0.2,0-0.3-0.1-0.3-0.3c-0.9-0.2-1.7-0.4-2.6-0.7c-1.4-0.4-2.7-0.9-4.1-1.3
			c-0.9-0.3-1.9-0.4-2.8-0.9c-0.1-0.1-0.2-0.1-0.2-0.1C133.3,51.4,133.3,51.3,133.4,51.3z M147.7,37.7c1-0.2,1.5,0.7,2.3,1
			C149,38.8,148.3,38.5,147.7,37.7z M155.4,45c0.3-0.3,0.3-0.7,0.3-1.1c-0.2-0.4,0.3-0.6,0.3-1c-0.1-0.3,0-0.7,0-1
			c0.3,0.1,0.4,0.1,0.5,0.1c0.1,0,0.1,0.1,0.1,0.1c0.1,0.4-0.2,1.5-0.5,2.1c0,0.4,0,0.7,0,1.1c0,0.2-0.1,0.4-0.3,0.3
			c0,0.5-0.2,1-0.3,1.5c-0.3,1.8-0.9,3.5-1.2,5.3c-0.1,0.4-0.2,0.8-0.4,1.1c0,0.1-0.2,0.1-0.4,0.1c0.3-0.7,0.3-1.5,0.5-2.2
			c0.6-1.9,0.8-3.9,1.4-5.8C155.4,45.4,155.4,45.2,155.4,45z M156.3,58.5c0-0.1,0-0.1,0-0.1c-0.5-0.1-0.8-0.2-1-0.3
			c-1.3-0.4-2.5-0.7-3.8-1.1c-1.2-0.4-2.4-0.5-3.6-1.1c-0.3-0.1-0.7,0-1,0c0-0.4,0.3-0.2,0.5-0.3c0.8,0,1.7,0,2.5,0
			c1-0.1,2-0.4,2.8-1.1c0.4,0.1,0.8,0.4,1.3,0.3c0,0.6,0,1.3,0,1.7c0.5,0.9,1.4,1.3,2.4,1.9c0.1,0,0.2,0.1,0.3,0
			c0,0,0.1,0.1-0.1,0.1C156.6,58.7,156.3,58.7,156.3,58.5z M126.7,53.3c0,0.3,0,0.5,0,0.9c0,0.3,0,0.5,0,0.9
			c-0.8-0.2-1.5-0.4-2.2-0.6c-0.7-0.2-0.7-0.5-0.3-1.1c-0.1-1.5,0.4-2.8,1.5-3.6c0.8-0.3,1.5,0.3,2.2,0.2c0.4,0.4,0.1,0.8-0.1,1.1
			c-0.5,0.5-0.7,1.1-0.7,1.7C126.9,52.9,127.1,53.2,126.7,53.3z M127.9,56.5c-0.9-0.4-1-1.3-1-2.1c0.5-0.2,0.2-0.6,0.3-0.9
			c0.1-0.3-0.3-0.7,0.3-0.8c-0.1-0.6,0.1-1.1,0.6-1.6c0.2-0.2,0.3-0.4,0.3-0.7c0.2,0,0.4,0,0.5,0c0.7,0.1,0.8,0.2,0.9,0.9
			c0,0.2,0,0.4,0,0.5c-0.5,0-1.1,0-1.6,0c-0.2,0.3-0.3,0.6-0.4,0.9c0,0.1,0,0.2,0,0.3c0,0.2,0,0.4,0,0.5c0,1,0,1,1.1,1.2
			C129.2,55.7,128.3,55.9,127.9,56.5z M130.2,54.4c-0.7-0.3-1.4-0.3-2.1-0.7c0-0.3,0-0.7,0-1c0.4,0.1,0.2-0.5,0.4-0.6
			c0.5-0.1,1,0.4,1.5,0.3c0.6,0.1,1.1,0.3,1.5,0.5c0.3,0.3-0.1,0.4-0.1,0.6C131.3,54.4,130.9,54.7,130.2,54.4z M128.9,96.3
			c-0.5,1.6-1.1,3.1-1.7,4.6c0,0.1-0.2,0.1-0.2,0.1c0,0.1,0,0.2,0,0.3c-0.1,0.2,0.2,0.5-0.3,0.5c0.1,0.4-0.3,0.7-0.4,1.1
			c-0.5-0.8-0.5-1.7-0.4-2.6c0.1-0.7-0.4-1.3-0.3-2c0.1-0.6,0.1-1.3-0.2-1.9c-0.2-0.5-0.1-1.2-0.1-1.7c0.6-0.6,1.1-1.1,1.7-1.7
			c-0.1-1.1,0.2-2.2-0.5-3.5c1,0.7,1.4,1.5,2.2,1.8c0.3,0.1,0.5,0.3,0.8,0.4C129.6,93.4,129.4,94.9,128.9,96.3z M135.2,87.8
			c-0.3,0.7-0.5,1.5-1.4,1.9c-0.5,0-1.2,0-1.8,0c-0.6,0-1.3,0.2-1.8-0.1c-0.5-0.4-1.1,0.1-1.6-0.3c-0.4-0.3-1.1-0.3-1.6-0.5
			c-0.3-0.2-0.8,0.2-0.9-0.4c-0.2-0.3-0.8-0.1-0.9-0.5c-0.7-0.5-1.3-1-1.6-2c-0.3-1.1-0.1-2.2,0.7-2.9c0.1,0.3,0.3,0.5,0.5,0.5
			c0.3,0.1,0.5,0.3,0.7,0.6c0.4,0.2,0.8,0.4,1.1,0.5c0.6-0.1,1,0.4,1.6,0.6c1.2,0.3,2.4,0.5,3.5,0.8c1,0,2,0,3,0
			C134.8,86.6,135.4,87.2,135.2,87.8z M136,84.4c-0.1,0.5-0.4,1.2-1.2,1c-1,0.5-2,0.2-3,0.3c0.1-0.2-0.1-0.3-0.2-0.3
			c-1.1,0.1-2.1-0.3-3-0.7c-0.8-0.2-1.6-0.4-2.2-1.1c-0.4,0.1-0.8-0.1-0.9-0.5c-0.3-0.2-0.5-0.4-0.9-0.5c0.1-0.4-0.5-0.8-0.3-1.1
			c0.5-0.7-0.1-1.6,0.5-2.3c0.2-0.2,0.3-0.5,0.6-0.5c0.1,0.5,0.8,0.6,0.9,1.1c0.4-0.2,0.5,0.2,0.9,0.3c1.3,1,2.9,1.4,4.4,1.6
			c1.4,0.2,2.7,0.5,4.1,0.3c0.1,0,0.1,0,0.1,0C136.2,82.8,136.1,83.7,136,84.4z M137.4,77c-0.1,0.2-0.3,0.5-0.7,0.4
			c-0.2-0.1-0.5,0-0.7,0c-1.4,0.2-2.6-0.3-4-0.3c-0.2,0-0.2-0.2-0.3-0.2c-0.4-0.2-0.8-0.3-1.3-0.4c-0.9-0.2-1.7-0.5-2.4-1.1
			c-0.4-0.2-0.7-0.4-0.9-0.9c-0.2,0-0.4,0-0.5,0c-0.1,0.5,0.2,0.8,0.7,0.9c0.2,0.1,0.3,0.1,0.2,0.3c0.3,0.1,0.5,0.3,0.5,0.5
			c0.3,0.1,0.6,0.1,0.9,0.2c0.9,0.4,1.8,1,2.9,1c0.3,0.4,0.8,0.3,1.1,0.3c0.5-0.1,0.8,0.4,1.3,0.3c0.6-0.1,1.2,0.1,1.7-0.3
			c0.1,0,0.2,0,0.3,0c0.2,0.1,0.5-0.2,0.5,0.3c0.1,0.6,0.4,1.2,0.3,1.8c-0.1,0.8-0.6,1.3-1.4,1.6c-0.5,0-1,0-1.6,0
			c-1.4,0.1-2.7-0.2-4-0.6c-1-0.3-2.1-0.7-3-1.4c-0.4,0.1-0.8-0.1-0.9-0.5c-0.2-0.1-0.4-0.2-0.5-0.3c-0.2-0.6-0.8-1.3-0.5-1.8
			c0.2-0.5,0.2-0.9,0.2-1.3c0-0.1,0-0.1,0-0.2c0.4-0.3,0.5-0.8,1.1-0.7c0.2-0.4-0.3-0.6-0.3-1c0.1-0.4,0-0.8,0-1.1
			c0.1-0.8,0.2-1.5,0.9-2.1c0.1,0.5,0.8,0.6,0.9,1.1c0.2,0.3,0.8,0.1,0.9,0.5c0.2,0,0.4,0.1,0.7,0.2c2,0.9,4,1.7,6.2,1.5
			c0.5-0.1,1.1,0,1.7,0C138.1,74.9,137.7,76,137.4,77z M139.4,68.1c0,0.6-0.5,1.1-1.1,1.3c-0.2,0.1-0.4,0.1-0.7,0.1
			c-0.5,0-1,0-1.5,0c0-0.4-0.3-0.3-0.5-0.3c-0.7,0-1.4,0-2-0.3c-0.9-0.4-1.9-0.4-2.7-1c-0.3-0.2-0.5-0.1-0.8-0.1
			c0.1,0.3,0.3,0.4,0.7,0.6c1.1,0.5,2.2,0.9,3.3,1.1c0.3,0,0.5,0,0.8,0c0.2,0,0.3,0.1,0.3,0.3c0.3,0,0.5,0,0.9,0c0.7,0,1.4,0,2.1,0
			c0.9,1.1,0.6,2.4-0.7,3.7c-1,0-2,0-2.9,0c-0.5-0.6-1.4,0-1.8-0.5c-0.8,0.2-1.3-0.4-1.8-0.6c-0.8-0.2-1.5-0.5-2.1-1.1
			c-0.3-0.1-0.5-0.3-0.5-0.5c-0.3-0.2-0.5-0.4-0.9-0.5c0.1-0.9-0.1-1.7,0.2-2.6c0.2-0.5,0.4-1,0.9-1.3c0.1-0.1,0-0.3,0-0.4
			c-0.1-0.4,0.2-0.8-0.2-1.2c-0.3-0.3-0.3-1-0.1-1.2c0.4-0.4,0.1-0.9,0.3-1.3c0.4-0.2,0.5,0.3,0.8,0.3c0-0.2,0.1-0.3,0-0.4
			c-0.4-1.1-0.3-1.5,0.8-1.8c0.2-0.1,0.5-0.2,0.7-0.3c0.1,0,0.2,0.1,0.2,0.3c-0.2,0.7,0.2,1.1,0.7,1.4c1.6,1.1,3.5,1.7,5.4,1.7
			c0.7,0,1.4,0,2.1,0c-0.2,0.4,0.3,0.6,0.3,1c-0.1,0.3,0,0.7,0,1c-1,0-2.1,0.1-3.1,0c-0.8-0.1-1.5-0.2-2.2-0.4
			c-1.8-0.5-3.4-1.4-4.9-2.4c-0.1,0.5,0.2,0.8,0.7,0.9c0.2,0.1,0.3,0.1,0.2,0.3c0.2,0.1,0.4,0.2,0.5,0.3c0.7,0.3,1.4,0.7,2,1
			c0.7,0.4,1.5,0.2,2.1,0.7c1.4,0,2.7,0.5,4.1,0.3c0.1,0,0.1,0,0.2,0C139.8,66.4,139.4,67.4,139.4,68.1z M136,61.2
			c-0.7-0.1-1.7-0.6-2.2-1.2c0,0,0-0.1,0.1-0.3c0.5,0.2,1.1,0.4,1.6,0.6c0.4-0.2,0.5,0.2,0.9,0.3C136.3,60.9,136.5,61.3,136,61.2z
			 M134.6,61.2c0,0.4,0.3,0.2,0.5,0.3c0.5,0,0.9,0,1.4,0c0.5-0.1,0.9,0.1,1.2,0.4c0.1,0.2,0.2,0.4,0.5,0.4c-0.1,0.1-0.1,0.2-0.1,0.2
			c-1.4,0.2-2.7,0.1-4-0.3c-0.9-0.3-1.7-0.7-2.4-1.3c-0.3-0.2-0.8-0.5-0.6-1c0.1-0.3,0.3-0.5,0.5-0.5c0.5,0.1,1.1-0.2,1.4,0.4
			C133.4,60.7,134,60.9,134.6,61.2z M142.6,60.7c-0.9-0.2-1.6,0.4-2.6,0.2c0-0.3,0-0.5,0-0.8c0.1-0.3,0.3-0.4,0.5-0.5
			c0.8,0.2,1.6,0.4,2.4,0.7C142.8,60.4,142.6,60.5,142.6,60.7z M160.9,64.9c-0.4-0.1-0.7-0.3-1-0.4c-1-0.3-2-0.7-2.9-1
			c-1.7-0.5-3.4-1-5.1-1.5c-1.4-0.4-2.8-0.8-4.2-1.1c-0.7-0.2-1.3-0.4-2-0.5c-0.3-0.1-0.7-0.2-1-0.2c-0.3-0.1-0.6-0.2-0.9-0.2
			s-0.5-0.1-0.8-0.2c-0.3-0.2-0.7-0.2-1-0.3c-0.3-0.1-0.7-0.2-1-0.2c-0.2-0.1-0.3-0.1-0.5-0.1c-0.1-0.1-0.3-0.1-0.4-0.1
			c-0.1,0-0.4,0.2-0.4,0.3c-0.1,0.1-0.1,0.2-0.1,0.2c-0.1,0.2-0.1,0.5-0.1,0.7c0,0.1-0.1,0.2-0.1,0.3c-0.1,0.2-0.3,0.3-0.5,0.3
			c-0.4,0.1-0.9-0.2-1.3-0.4c-0.7-0.3-1.4-0.4-2.1-0.5c-0.7-0.2-1.3-0.4-1.8-0.7c-0.3-0.1-0.7-0.2-1-0.2c-0.5-0.1-1.3,0.2-1.8-0.3
			c-0.2-0.2-0.3-0.4-0.3-0.6c0-0.2,0.1-0.3,0.2-0.5c0.1-0.2,0.1-0.4,0.2-0.7c0.1-0.4,0.2-0.9,0.3-1.3c0.1-0.5,0.2-0.9,0.3-1.4
			c0.2-0.5,0.3-1,0.5-1.5c0.1-0.2,0.1-0.3,0.2-0.5c0.1-0.1,0.1-0.3,0.2-0.3c0.2-0.1,0.4,0,0.5,0.1c0.4,0.2,0.9,0.3,1.4,0.5
			c0.5,0.2,1,0.4,1.6,0.6c1,0.4,2.1,0.8,3.2,1.1c0.4,0.2,0.9,0.3,1.3,0.4c0.7,0.2,1.3,0.4,1.9,0.5c1.1,0.3,2.2,0.7,3.3,0.9
			c0.5,0.2,1.1,0.3,1.6,0.5c0.5,0.2,1,0.2,1.5,0.3c2.2,0.6,4.3,1.3,6.5,1.9c1.4,0.4,2.7,0.8,4,1.3c0.3,0.1,0.5,0.1,0.8,0.2
			c0.3,0.1,0.6,0.2,0.9,0.2c0.6,0.2,1.2,0.3,1.7,0.6c0.1,0.1,0.1,0.1,0.2,0.1c0,0.1,0,0.1,0,0.1c0.1,0.6-0.2,1-0.4,1.6
			c-0.1,0.3-0.2,0.6-0.2,0.9c-0.1,0.2-0.1,0.7-0.2,0.9C161.9,65.1,161.4,65.1,160.9,64.9z M167.9,60.1c-0.2,0.5-0.4,1-0.5,1.5
			c-0.2,0.9-0.5,1.6-1.6,1.7c-0.2,0-0.5,0.3-0.8,0.4c-0.6,0.4-1.2,0.8-1.8,0.9c-0.5-0.1-0.3-0.5-0.3-0.7c0.4-0.8,0.3-1.7,0.8-2.5
			c0.1-0.1,0-0.3,0-0.4c1.4-0.4,2.7-1.3,4.1-1.5C168,59.7,167.8,59.9,167.9,60.1z M167.2,58.4c0.4,0.1,0.5,0.3,0.7,0.6
			c-0.9,0.2-1.8,0.5-2.6,1c-0.6,0.4-1.3,0.3-1.8,0.7c-0.8-0.4-1.6-0.3-2.4-0.7c-0.3-0.2-0.6-0.1-0.9-0.2c-0.4-0.3-0.9-0.3-1.5-0.3
			c1-0.3,1-0.3,1.5,0c1,0,2,0,3,0c0.2,0,0.4,0,0.4-0.3c1,0.1,1.7-0.4,2-1.4C166.2,58.1,166.7,58.3,167.2,58.4z M165.6,40.9
			c-0.8-0.2-1.6-0.5-2.5-0.8c-0.7-0.2-1.5-0.2-2-0.8c-0.4-0.2-0.5,0.2-0.9,0.3c0.1,0.6,0.6,0.3,0.9,0.4c0.6,0.3,1.3,0.5,2,0.5
			c0.2,0.1,0.4,0.3,0.6,0.3c0.7-0.1,1.1,0.4,1.7,0.6c0.2,0,0.4,0,0.5,0c0.3,0.1,0.5,0.3,0.9,0.3c0.7,0,0.8,0.2,0.9,0.9
			c0.1,0.5-0.4,1-0.3,1.6c-0.2,0-0.4,0-0.5,0c0-0.1,0-0.1,0-0.1c-0.8-0.3-1.5-0.5-2.3-0.7c-0.2,0-0.4,0-0.5,0
			c-0.8-0.3-1.5-0.5-2.3-0.9c-0.4-0.1-0.9,0.1-1.3-0.2c-0.3-0.2-0.9,0-1.3-0.3c0,0.1,0,0.2,0,0.3c0,0.1,0,0.1,0,0.1
			c0.5,0.1,0.9,0.5,1.4,0.4c0.2,0.1,0.5-0.2,0.5,0.3c0.7-0.2,1.3,0.2,2,0.4c1,0.3,2.1,0.7,3.2,0.8c0.2,0.1,0.4,0.2,0.5,0.3
			c-0.1,0.2-0.2,0.4-0.3,0.5c-0.1,0.3,0.3,0.7-0.3,0.9c0,0.3-0.2,0.3-0.4,0.3c-0.5,0-0.9,0-1.4,0c-0.2,0-0.3,0.1-0.2,0.3
			c0.5,0,1.1,0,1.7,0c-0.1,0.4-0.4,0.2-0.5,0.3c0.1,0.5,0.5,0.1,0.7,0.3c0.3,0.3-0.3,0.3-0.2,0.6c0.1,0.2,0.1,0.5-0.3,0.5
			c-0.8,0-1.7,0-2.5,0c-0.2,0-0.4,0-0.3,0.3c0.3,0,0.5,0,0.9,0c0.7,0,1.3,0,2,0c-0.7,0.4-1.3,0.3-2,0.3c-0.5,0-0.9,0-1.4,0
			c0,0.1,0,0.2,0,0.3c1-0.1,2,0.6,3.1,0.3c-0.7,0.3-1.3,0.2-2,0.2c0,0.1,0,0.2,0,0.3c0.7,0,1.3,0,2,0c-0.3,0.5-0.8,0.1-1.1,0.4
			c0.2,0.3,0.6,0,0.8,0.2c0.2,0.3,0,0.4-0.2,0.6c-0.1,0.1,0.1,0.3,0.2,0.5c-0.6,0-1.1,0-1.7,0c-0.5,0-0.9,0-1.4,0c0,0.1,0,0.2,0,0.3
			c0.4,0,0.7,0,1.1,0c-0.5,0.4-1.1,0.2-1.7,0.3c-0.2,0-0.4,0-0.5,0c0,0.3,0.2,0.3,0.4,0.3c1.1-0.1,2.2,0.5,3.3,0.4
			c-0.8,0.2-1.5,0.2-2.3,0.2c0,0.1,0,0.2,0,0.3c0.1,0,0.2,0,0.3,0c0.7,0.1,1.4-0.1,2,0.1c-0.2,0.3-0.4,0.2-0.5,0.3
			c0.1,0.3,0.3,0.5,0.2,0.8c-0.1,0.2,0.1,0.6-0.3,0.6c-0.2,0-0.4-0.1-0.5,0.1c0.1,0.2,0.3,0.2,0.5,0.2c0.2,0.3,0.1,0.7,0.1,1
			c-0.2,0.2-0.4,0.1-0.5,0.1c-0.8,0-1.5,0-2.3,0c0,0.1,0,0.2,0,0.3c0.3,0,0.5,0,0.8,0c-0.5,0.4-1.1,0.2-1.7,0.3
			c-0.2,0.1-0.4-0.1-0.7,0.2c1.3,0.1,2.4,0.5,3.8,0.4c-0.3,0.3-0.7,0.2-1,0.2c-0.3,0-0.7,0-1,0c0,0.1,0,0.2,0,0.3c0.7,0,1.3,0,1.8,0
			c0.5,0.4-0.2,0.5-0.2,0.9c-0.3,0.1-0.6-0.1-0.9,0.2c-0.2,0.2-0.5-0.3-0.8-0.2c-1.7,0.2-3.2-0.5-4.7-0.9c-0.5-0.2-1-0.7-1.6-1
			c-0.2-0.2-0.2-0.2-0.2-1c0.2,0.1,0.2,0.3,0.4,0.3c0-0.1,0-0.2,0-0.3c-0.1-0.3-0.3-0.5-0.5-0.5c0-0.4,0.3-0.2,0.5-0.3
			c0-0.1,0-0.1,0-0.1c-0.1-0.2-0.4-0.2-0.2-0.4c0.1-0.1,0.3-0.1,0.5-0.1c-0.1-0.4-0.4-0.4-0.6-0.8c0.2-0.3,0.2-0.8,0.6-0.9
			c0.1-0.2-0.2-0.3-0.3-0.4c0.2-0.2,0.4-0.2,0.6,0.1c0.2,0.3,0.4,0.5,0.8,0.4c0.1-0.2-0.2-0.3-0.3-0.4c0.2-0.2,0.4-0.3,0.5,0.2
			c0.4,0,0.2-0.3,0.3-0.5c-0.4,0.1-0.6-0.2-0.9-0.4c0.2-0.2,0.4-0.1,0.5-0.2c0.1-0.2-0.2-0.3-0.3-0.4c0.4-0.5,0.5,0.2,0.8,0.1
			c-0.1-0.2,0.1-0.5-0.2-0.5c-0.4-0.1-0.4-0.3-0.8-0.6c0.4,0,0.5,0,0.7,0c-0.1-0.1-0.1-0.2-0.2-0.3c-0.2-0.3-0.2-0.5,0.2-0.5
			c0-0.1,0-0.1,0-0.1c-0.1-0.2-0.4-0.2-0.2-0.4c0.1-0.1,0.3-0.1,0.5-0.1c-0.1-0.2-0.2-0.4-0.3-0.5c-0.2,0-0.3,0-0.2-0.2
			c0-0.1,0.2-0.1,0.2-0.1c0.1,0,0.2,0,0.3,0c-0.1-0.3-0.4-0.4-0.5-0.7c0.1-0.3,0.4-0.1,0.5-0.2c0-0.1,0-0.1,0-0.1
			c-0.1-0.2-0.4-0.2-0.2-0.4c0.1-0.1,0.3-0.1,0.5-0.1c0-0.1,0-0.1,0-0.1c-0.1-0.2-0.4-0.2-0.2-0.4c0.1-0.1,0.3-0.1,0.5-0.1
			c-0.1-0.3-0.4-0.4-0.5-0.7c0.1-0.3,0.4-0.1,0.5-0.2c-0.1-0.2-0.2-0.4-0.3-0.5c-0.3-0.1-0.6-0.4-0.5-0.5c0.4-0.6-0.3-1.1,0-1.7
			c0.3-0.1,0.5-0.3,0.8-0.4c0-0.1,0-0.2,0-0.3c-1.1-0.3-2-0.8-2.6-1.4c-0.3,0-0.5,0-0.9,0c0-0.1,0-0.2,0-0.3
			c-0.8-0.3-1.6-0.8-2.4-0.9c-0.1,0-0.1-0.2-0.1-0.2c-1.1-0.7-2.3-1.1-3.4-1.6c-0.9-0.4-1.7-0.9-2.6-1.2c-0.5,0.1-0.9-0.4-1.4-0.5
			c0.1-0.2-0.1-0.2-0.2-0.3c-1.1-0.5-2.3-1-3.5-1.5c-0.1-0.6,0.4-1,0.3-1.6c0-0.3,0.4-0.4,0.3-0.8c-0.1-0.4,0.3-0.3,0.5-0.3
			c0.1,0.1,0.1,0.2,0.1,0.2c3,1.5,6,2.9,8.9,4.4c1,0.5,2.1,0.8,2.9,1.6c0.8,0.2,1.6,0.5,2.3,1.1c0.1,0,0.2,0,0.3,0
			c0.5,0.4,1.1,0.6,1.7,0.9c0-0.1,0-0.2,0-0.3c-0.1-0.1-0.1-0.2-0.1-0.2c-4.8-2.4-9.7-4.8-14.6-7.2c-0.3-0.2-0.8-0.2-0.9-0.7
			c0.3-0.2,0.5-0.1,0.8-0.1c0.3-0.1,0.7,0.3,0.9-0.3c2,0.2,3.9-0.6,5.9-0.2c0.2,0.2,0.5,0.6,0.9,0.7c-0.1,0.1-0.2,0.2-0.3,0.3
			c0.1,0.1,0.1,0.1,0.1,0.1c0.8-0.1,0.9-0.1,1.8,0.3c1.2,0.5,2.2,1.3,3.5,1.6c0.7,0.2,1.2,0.8,1.8,1c2.4,1.1,4.7,2.2,7.1,3.4
			c0.4,0.2,0.8,0.6,1.3,0.5c-0.3,0.2-1.6,0.5-2,0.5c-0.5,0-1.1,0-1.7,0c-0.2,0-0.4,0-0.4,0.3c0.3,0,0.5,0,0.8,0
			c0.2,0,0.3,0.1,0.3,0.3c0.5,0.2,0.9-0.3,1.4-0.3c0.5,0,1.1,0,1.6-0.1c0.1,0,0.1-0.2,0.1-0.2c1,0,1.8,0.5,2.7,0.8
			c0.9,0.3,1.8,0.6,2.8,0.9c-0.1,0.2,0.1,0.4-0.1,0.5c-0.4,0-0.9-0.1-1.2,0.1c-0.9,0.5-2,0.3-2.9,0.8c-0.1,0.1-0.3,0.1-0.4,0
			C167.1,41.1,166.3,41.1,165.6,40.9z M173.6,42.8c-0.1,0.1-0.2,0.3-0.3,0.2c-0.5-0.1-0.9,0.3-1.3,0.3c-0.7-0.1-1.3,0.2-1.8,0.3
			c-0.6,0.1-1.2,0.4-1.8,0.3c-0.2,0-0.2,0.3-0.4,0.3c-0.1-0.8,0.1-1.5,0.4-2.3c0.2,0,0.4,0.1,0.7,0c0.9-0.3,1.7-0.6,2.7-0.5
			c0.3-0.5,1.1,0.1,1.4-0.5c0.4-0.1,0.9,0.2,1.4-0.4C174.5,41.4,174,42.1,173.6,42.8z"/>
		<path d="M129.5,67.2c-0.2,0-0.3,0.1-0.3,0.3c0.2,0.1,0.4,0.2,0.5,0.3c0.1,0,0.2,0,0.3,0c-0.1-0.2-0.2-0.4-0.3-0.5
			C129.7,67.2,129.6,67.2,129.5,67.2z"/>
	</g>
	<path class="st63" d="M144,54.7c0.2,0,0.4,0,0.5,0c0,0.3-0.2,0.3-0.3,0.3C144.1,55,144,54.9,144,54.7z"/>
	<path class="st64" d="M158.2,41.6c-1.1-0.3-2-0.8-2.6-1.4c-0.1-0.5,0.3-0.7,0.5-1c0.3-0.3,0.7-0.5,0.5-1c0.5,0.4,1.1,0.6,1.7,0.9
		c0.3,0,0.3,0.2,0.3,0.3c0,0.8,0,1.5,0,2.2C158.6,41.6,158.4,41.6,158.2,41.6z"/>
	<path class="st65" d="M156.8,38.2c0.1,0.5-0.3,0.7-0.5,1c-0.3,0.3-0.7,0.5-0.5,1c-0.3,0-0.5,0-0.9,0c0-0.1,0-0.2,0-0.3
		c0.4-0.7,1-1.3,1.7-1.7C156.6,38.2,156.7,38.2,156.8,38.2z"/>
	<path class="st66" d="M161.6,42.5c0.4-0.5,0.7-1.2,1.3-1.5c0.2-0.1,0.1-0.3,0.1-0.5c0.2,0.1,0.4,0.3,0.6,0.3
		c0.7-0.1,1.1,0.4,1.7,0.6c-0.3,0.6-0.8,0.9-1.3,1.4c-0.2,0.2-0.2,0.4-0.2,0.6C163.2,43,162.4,42.7,161.6,42.5z"/>
	<path class="st67" d="M163.9,43.3c0-0.2,0-0.4,0.2-0.6c0.4-0.4,1-0.8,1.3-1.4c0.2,0,0.4,0,0.5,0c0,0.2,0,0.4-0.2,0.6
		c-0.4,0.4-1,0.8-1.3,1.4C164.3,43.3,164.1,43.3,163.9,43.3z"/>
	<path class="st68" d="M158.8,50.7c-0.1-0.4,0-0.8,0.3-1.1c0.7,0.2,1.3,0.6,2,0.5c0.2,0,0.4,0.1,0.3,0.3c0,0.1,0,0.2,0,0.3
		c-0.7-0.3-1.5-0.5-2.4-0.7c0.6,0.5,1.1,0.7,1.6,0.7c0,0.1,0,0.2,0,0.3C159.9,51.2,159.4,50.7,158.8,50.7z"/>
	<path class="st69" d="M159.1,49.6c-0.3,0-0.3-0.2-0.3-0.3c0-0.2,0.1-0.3,0.3-0.2c0.1,0,0.2,0,0.3,0c0.5-0.1,0.9,0.2,1.4,0.4
		c0.3,0.1,0.6,0.1,0.9,0.2c0,0.1,0,0.2,0,0.3c-0.8,0.1-1.5-0.1-2.1-0.5C159.4,49.2,159.1,49.2,159.1,49.6z"/>
	<path class="st70" d="M161.6,49.9c0-0.1,0-0.2,0-0.3c0.6,0,1.1,0.5,1.7,0.3c-0.4,0.4-0.9,0.4-1.5,0.1
		C161.8,49.9,161.7,49.9,161.6,49.9z"/>
	<path class="st71" d="M161.4,50.7c0-0.1,0-0.2,0-0.3c0.5,0,1.1,0,1.7,0C162.5,50.8,161.9,50.7,161.4,50.7z"/>
	<path class="st72" d="M158.2,54.1c0-0.1,0-0.2,0-0.3c0.2,0,0.4,0,0.5,0c0.7,0.7,1.5,0.5,2.3,0.5c0,0.4,0.3,0.2,0.5,0.3
		c0.4,0,0.7,0,1.4,0c-1.1,0.3-1.7,0.3-2.6,0.1C159.7,54.6,158.9,54.5,158.2,54.1z"/>
	<path class="st73" d="M157.9,55.3c-0.4-0.1-0.3-0.3-0.2-0.5c0.1-0.1,0.1-0.2,0.2-0.3c1.3,0.5,2.6,1,4,1c-0.9,0.3-1.7,0.2-2.5-0.1
		c-0.2,0-0.4,0-0.6-0.2C158.5,54.9,158.1,54.8,157.9,55.3z"/>
	<path class="st74" d="M160.5,53.8c0.4,0,0.8,0,1.2,0c0.4,0,0.7,0.2,0.8,0.6c-0.2,0-0.4,0-0.5,0c-0.1-0.5-0.6-0.2-0.9-0.3
		c-0.2,0-0.4,0-0.5,0C160.5,54.1,160.5,53.9,160.5,53.8z"/>
	<path class="st75" d="M161,54.1c0.3,0.1,0.7-0.3,0.9,0.3c-0.2,0-0.3,0.1-0.3,0.3c-0.2-0.1-0.5,0.2-0.5-0.3
		C161,54.3,161,54.2,161,54.1z"/>
	<path class="st76" d="M158.2,42.2c0.3,0,0.5,0,0.9,0c0,0.1,0,0.1,0,0.1c0.5,0.1,0.9,0.5,1.4,0.4c0,0.4,0.3,0.2,0.5,0.3
		c0.2,0.4,0.6,0.4,0.9,0.5c0.6,0.2,1.2,0.4,1.6,0.9c-1.8-0.3-3.6-0.8-5.2-2C158.3,42.5,158.2,42.4,158.2,42.2z"/>
	<path class="st77" d="M163.6,44.5c-0.4-0.5-1-0.7-1.6-0.9c-0.3-0.1-0.8-0.1-0.9-0.5c0.7-0.2,1.3,0.2,2,0.4c1,0.3,2.1,0.7,3.2,0.8
		c0,0.3-0.2,0.3-0.3,0.3C165.1,44.5,164.4,44.5,163.6,44.5z"/>
	<path class="st78" d="M159.1,44.5c0.4,0.1,0.3,0.3,0.2,0.5c-0.1,0.1-0.1,0.2-0.2,0.3c-0.3-0.1-0.5-0.4-0.9-0.3
		c-0.1-0.2-0.2-0.4-0.3-0.5c0.1,0,0.2,0,0.3,0c0.1,0.1,0.2,0.1,0.3,0.2C158.8,44.8,159,44.9,159.1,44.5z"/>
	<path class="st79" d="M166.2,45c-0.5,0-1.1,0-1.7,0C165,44.7,165.7,44.7,166.2,45z"/>
	<path class="st80" d="M159.1,44.5c-0.1,0.4-0.3,0.3-0.5,0.2c-0.1-0.1-0.2-0.1-0.3-0.2c0-0.1,0-0.2,0-0.3
		C158.6,44.1,158.8,44.4,159.1,44.5z"/>
	<path class="st77" d="M163.9,45c-0.3-0.1-0.7,0.3-0.9-0.3C163.3,44.9,163.8,44.5,163.9,45z"/>
	<path class="st72" d="M160,45.9c0.1-0.3-0.3-0.7,0.3-0.9c0.1,0.2-0.1,0.4,0.2,0.6c0.5,0.4,1.2,0,1.6,0.5c0.8-0.2,1.4,0.4,2.1,0.3
		c0,0.1,0,0.2,0,0.3c-0.9,0.1-1.8-0.2-2.6-0.5c-0.4-0.2-0.7,0-1.1-0.1C160.5,45.7,160.1,46,160,45.9z"/>
	<path class="st81" d="M161.4,46.7c1-0.2,1.8,0.6,2.8,0.3c-0.8,0.3-1.5,0.2-2.2,0.2c0-0.4-0.3-0.2-0.5-0.3
		C161.4,46.9,161.4,46.8,161.4,46.7z"/>
	<path class="st82" d="M161.4,47c0.2,0.1,0.5-0.2,0.5,0.3c0,0.1,0,0.2,0,0.3c-0.1,0-0.2,0-0.3,0c0.1-0.2-0.1-0.3-0.2-0.3
		c-0.7-0.1-1.2-0.3-1.8-0.6c0-0.2,0.1-0.3,0.3-0.3C160.4,46.7,160.9,46.8,161.4,47z"/>
	<path class="st83" d="M161.4,47c-0.5-0.2-0.9-0.4-1.4-0.5c0-0.1,0-0.2,0-0.3c0.2,0,0.4,0,0.5,0c0,0.3,0.2,0.3,0.4,0.3
		s0.5-0.1,0.5,0.3C161.4,46.8,161.4,46.9,161.4,47z"/>
	<path class="st84" d="M161.6,47.6c0.1,0,0.2,0,0.3,0c0.3,0,0.5,0,0.9,0c0,0.2-0.1,0.3-0.3,0.3c-0.3,0-0.5,0-0.9,0
		C161.6,47.8,161.6,47.7,161.6,47.6z"/>
	<path class="st85" d="M160.5,53.8c0,0.1,0,0.2,0,0.3c-0.6,0-1.1-0.5-1.7-0.3c0.1-0.2-0.1-0.3-0.2-0.3c-0.2,0-0.4,0-0.3,0.3
		c-0.4-0.1-0.3-0.3-0.2-0.5c0.1-0.1,0.1-0.2,0.2-0.3c0.7,0.4,1.3,0.7,2.1,0.6C160.4,53.6,160.5,53.7,160.5,53.8z"/>
	<path class="st85" d="M158.5,52.7c0-0.1,0-0.2,0-0.3c0.2,0,0.4,0,0.5,0c0.5,0.5,1.1,0.5,1.8,0.6c0.2,0,0.5-0.1,0.5,0.3
		c-0.2,0-0.3,0.1-0.3,0.3c-0.5-0.4-1.3-0.3-1.8-0.5C159,52.9,158.8,52.7,158.5,52.7z"/>
	<path class="st77" d="M161,43c-0.2-0.1-0.5,0.2-0.5-0.3C160.7,42.8,161,42.6,161,43z"/>
	<path class="st79" d="M160.8,52.2c-0.3,0-0.5,0-0.8,0c-0.2,0-0.3-0.1-0.3-0.3c0.3,0,0.5,0,0.8,0C160.7,51.9,160.8,51.9,160.8,52.2z
		"/>
	<path class="st79" d="M159.6,51.8c-0.2,0-0.5,0-0.8,0C159.2,51.6,159.2,51.6,159.6,51.8z"/>
	<path class="st86" d="M159.1,52.4c-0.2,0-0.4,0-0.5,0c0-0.1,0-0.2,0-0.3C158.7,52.2,159,52,159.1,52.4z"/>
	<path class="st87" d="M157.9,56.7c-0.1,0-0.2,0-0.3,0c0-0.4,0.3-0.3,0.5-0.3c0.4,0.1,0.8,0.3,1.4,0.3
		C158.8,57.2,158.4,56.9,157.9,56.7z"/>
	<path class="st83" d="M159.6,47.9c0-0.1,0-0.2,0-0.3c0.2,0,0.4,0,0.5,0c0.5,0.6,1.3,0.6,2,0.5c0,0.1,0,0.2,0,0.3c0,0.1,0,0.2,0,0.3
		c-0.5-0.4-1.3-0.3-1.8-0.5C160.1,48.1,160,47.9,159.6,47.9z"/>
	<path class="st88" d="M162.2,48.2c-0.7,0-1.5,0-2-0.5c0.5,0,1-0.1,1.4,0.3c0.3,0,0.5,0,0.9,0C162.5,48.1,162.4,48.2,162.2,48.2z"/>
	<path class="st89" d="M194,84.3c0-0.3,0.1-0.7,0.1-1c0-1.1-0.1-2.2-0.2-3.2c-0.1-0.8-0.2-1.5-0.4-2.2c-0.2-0.7-0.5-1.2-0.8-1.8
		c-0.9-1.6-1.7-3.2-3.2-4.2c-3-2.3-8.3-1.5-10.4,1.7c-0.3,0.4-0.9,0.8-0.8,1.5c-0.6,0.6-0.8,1.4-1.1,2.1c-0.3,0.7-0.4,1.5-1,2.2
		c-1-1.3-2.2-2.2-3.6-2.9c-0.2-0.1-0.4-0.2-0.6-0.3c-0.7-0.2-1.4-0.5-2.2-0.5c-1.2-0.1-2.3-0.1-3.5,0c-0.5,0-0.8,0.1-1.5,0.5
		c-0.1,0-0.2-0.1-0.3,0c-1.3,0.6-2.5,1.2-3.4,2.3c-0.6,0.8-1.1,1.5-1.5,2.4c-0.3,0.8-0.8,1.6-0.8,2.5c0.1,1.7-0.1,3.4,0.2,5.2
		c0.3,1.4,0.7,2.8,1.4,4c1.2,2.3,2.6,4.5,4.3,6.4c0.7,0.7,1.3,1.4,2,2.1c2.9,2.9,6.4,5.1,9.9,7.1c0.3,0.2,0.7,0.4,0.8,0.8
		c0,0.2-0.1,0.3-0.1,0.4c-0.3,1-0.1,2.1,0.1,3.1c0.1,0.5,0.3,1,0.5,1.4c0.4,0.7,0.7,0.8,1.5,0.8c0.1,0,0.2,0,0.3,0
		c0.2,0,0.3-0.1,0.4-0.2c0.2-0.1,0.4-0.2,0.7-0.4c0.4-0.4,0.6-1,0.5-1.5c-0.1-0.5-0.5-0.9-0.9-1.1c-0.4-0.2-0.8-0.4-0.9-0.8
		c-0.1-0.1-0.1-0.2-0.1-0.4c-0.1-0.4-0.2-0.8-0.3-1.1c-0.2-1,0.7-2,1.3-2.7c3.1-3.5,6.5-6.7,9.3-10.4
		C191.7,92.6,193.7,88.6,194,84.3z M172.7,102.7c-1.3,0.1-8.5-7-8.9-7.6c-0.4-0.5-0.7-1-0.9-1.6c-1.3-2.6-2.1-5.3-1.9-8.2
		c0.2-1.6,2.1-2.4,2.9-0.8c0.3,0.7,0.3,1.5,0.3,2.3c-0.1,5.7,3.1,11,7.5,14.5C172.1,101.7,172.8,102.2,172.7,102.7
		C172.8,102.7,172.8,102.7,172.7,102.7z M178.7,113.6c-0.7-0.4-1-0.9-1.1-1.7c0-0.2-0.2-0.4-0.3-0.6c0-0.2,0-0.3,0-0.8
		C177.9,111.7,178.8,112.4,178.7,113.6z"/>
	<path class="st11" d="M158.2,41.6c0.2,0,0.4,0,0.5,0c0,0.4-0.3,0.2-0.5,0.3C158.2,41.8,158.2,41.7,158.2,41.6z"/>
	<path class="st75" d="M151.7,42.5c0.7,0,1.3,0,2.1,0c-0.3,0.5-0.7,0.1-0.9,0.4c0,0.3,0.7,0.1,0.5,0.5c-0.1,0.3-0.2,0.5,0,0.8
		c-0.6,0-1.1,0-1.7,0c0-0.1,0-0.2,0-0.3c0.3-0.1,0.6,0.2,0.9-0.2c-0.6,0-1.1,0-1.6,0c-0.1,0-0.1,0.2-0.1,0.2
		c-0.2-0.1-0.5,0.2-0.5-0.3c0-0.1,0-0.2,0-0.3c0.4-0.1,0.8,0.1,1.4-0.3c-0.8,0-1.4,0-2,0c-0.4-0.4-0.9-0.3-1.4-0.3
		c0.1-0.2-0.1-0.3-0.2-0.3c-0.4,0.1-0.7-0.2-0.9-0.3c0.1-0.5,0.6-0.2,0.9-0.3c0,0.4,0.3,0.2,0.5,0.3c0.9,0.3,1.8,0.7,2.8,0.5
		C151.5,42.7,151.7,42.7,151.7,42.5z"/>
	<path class="st90" d="M150.3,52.4c0.1,0.6,0.7,0.1,0.9,0.5c0,0.5-0.5,0.8-0.9,1.3c-0.5,0-0.9,0-1.4,0c-1.3,0.1-2.4-0.3-3.7-0.5
		c-0.3-0.1-0.4-0.2-0.5-0.5c-0.1-0.2,0.1-0.3,0.1-0.1h0.1c0.4,0.4,1.1,0.3,1.6,0.5c1,0.4,2.2,0.4,3.3,0.3c0.2,0,0.3-0.1,0.2-0.3
		c0.2-0.1,0.4,0.2,0.5-0.3c-0.5,0-0.9,0-1.4,0c0-0.2,0-0.4,0-0.5c0-0.1,0-0.2,0-0.3c0.1,0,0.2,0,0.3,0
		C149.7,52.4,149.9,52.4,150.3,52.4z"/>
	<path class="st91" d="M151.7,41.1c0.5,0,1,0,1.5,0c0.4,0,0.5,0.2,0.8,0.5c-0.1,0.5-0.4,0.7-0.9,0.7c-0.5-0.1-1.1,0-1.7,0
		c-0.2-0.1-0.5,0.2-0.5-0.3c0.3,0,0.5,0,0.9,0C151.7,41.6,151.7,41.3,151.7,41.1z"/>
	<path class="st92" d="M145.7,50.4c-0.2,0-0.3,0.2-0.2,0.2c1,0.2,1.9,0.7,2.9,0.7c0.7,0,0.7,0,1.5,0.5c-0.3,0.2-0.5,0.1-0.8,0.1
		c-0.2,0.1-0.3-0.3-0.4-0.3c-1,0.2-2-0.3-3-0.3c0-0.4-0.3-0.2-0.5-0.3c-0.1-0.4,0-0.8,0.3-1.1c0.2,0,0.3,0.1,0.3,0.3
		C145.7,50.2,145.7,50.4,145.7,50.4z"/>
	<path class="st93" d="M149.4,49.9c0,0.3,0.2,0.3,0.4,0.3c0.5,0,1.1,0,1.7,0c-0.1,0.2-0.1,0.2-0.2,0.2c-0.8,0-1.6,0.1-2.5,0.1
		c-0.8-0.4-1.7-0.4-2.6-0.5c-0.2,0-0.3-0.1-0.3-0.3c0-0.1,0-0.2,0-0.3c0.2,0,0.4,0,0.5,0c0.2,0.2,1,0.5,1.4,0.5
		C148.5,49.9,148.9,49.9,149.4,49.9z"/>
	<path class="st93" d="M152,48.7c0,0.3-0.2,0.3-0.4,0.3c-0.9,0-1.8,0-2.8,0c-0.7-0.3-1.5-0.5-2.2-0.5c-0.2,0-0.4-0.1-0.3-0.3
		c0-0.1,0-0.2,0-0.3c0.9,0.4,1.8,0.7,2.8,0.5c0,0.4,0.3,0.2,0.5,0.3C150.4,48.7,151.2,48.7,152,48.7z"/>
	<path class="st94" d="M149.1,52.7c0,0.2,0,0.4,0,0.5c-0.3,0-0.5,0-0.9,0c0-0.3-0.2-0.3-0.3-0.3c-0.3,0-0.5,0-0.8,0
		c-0.3-0.3-0.8-0.2-1.1-0.3c-0.4-0.1-0.8-0.3-1.1-0.3c0.1-0.3-0.3-0.7,0.3-0.9c0,0.2,0,0.3,0,0.4c0.7,0.4,1.5,0.5,2.3,0.4
		c0,0.3,0.2,0.3,0.3,0.3C148.2,52.7,148.6,52.7,149.1,52.7z"/>
	<path class="st95" d="M149.9,53.6c0.1,0.2-0.1,0.3-0.2,0.3c-1.1,0.1-2.2,0-3.3-0.3c-0.5-0.2-1.2-0.1-1.6-0.5c0-0.1,0-0.2,0-0.3
		c0.8,0.2,1.5,0.4,2.3,0.5c0.4,0,0.8,0,1.1,0c0,0.3,0.2,0.3,0.3,0.3C149.1,53.6,149.5,53.6,149.9,53.6z"/>
	<path class="st42" d="M148.9,54.1c0.5,0,0.9,0,1.4,0c0.2,0.1,0.5-0.2,0.5,0.3c-0.4,0-0.2,0.3-0.3,0.5c0,0.3-0.2,0.3-0.3,0.3
		c-0.4,0-0.9,0-1.4,0C149.1,54.9,149.1,54.5,148.9,54.1z"/>
	<path class="st75" d="M150.8,41.9c0,0.4,0.3,0.2,0.5,0.3c0,0.1,0,0.2,0,0.3c-1,0.1-1.9-0.4-2.8-0.5c-0.2,0-0.4,0-0.5,0
		c0.1-0.5-0.8-0.1-0.5-0.8C148.5,41.4,149.6,41.9,150.8,41.9z"/>
	<path class="st96" d="M150.3,43.6c0,0.4,0.3,0.2,0.5,0.3c0.3,0,0.5,0,0.9,0c0,0.1,0,0.2,0,0.3c-0.5,0-1.1,0-1.7,0
		c0-0.3-0.2-0.3-0.3-0.3c-0.7,0.1-1.3-0.2-1.9-0.4c-0.3-0.2-0.6-0.1-0.9-0.2c0-0.2,0.1-0.3,0.3-0.3c0.3,0.1,0.5-0.1,0.8,0.1
		c0.4,0.2,0.8,0.4,1.2,0.5C149.5,43.7,149.9,43.6,150.3,43.6z"/>
	<path class="st94" d="M149.4,52.4c-0.1,0-0.2,0-0.3,0c-0.5,0-1.1,0-1.7,0c0-0.3-0.2-0.3-0.4-0.3c-0.6,0-1.2-0.1-1.6-0.5
		c0-0.1,0-0.2,0-0.3c0.1,0,0.2,0,0.3,0c0,0.1,0,0.1,0,0.1c1.1,0.3,2.2,0.7,3.4,0.7c0.1,0,0.2,0,0.3,0
		C149.4,52.3,149.4,52.3,149.4,52.4z"/>
	<path class="st97" d="M149.7,47.3c0.3,0,0.5,0,0.9,0c0,0.1,0,0.2,0,0.3c-1.1,0.2-2.1-0.4-3.2-0.3c0-0.4-0.3-0.3-0.5-0.3
		s-0.4,0-0.4-0.3c0-0.1,0-0.2,0-0.3c0.5,0.2,1.1,0.5,1.7,0.5c0.3,0,0.5,0,0.9,0C149.1,47.5,149.5,47.3,149.7,47.3z"/>
	<path class="st98" d="M149.1,48.5c-1,0.1-2-0.2-2.8-0.5c-0.3,0-0.3-0.2-0.3-0.3c0-0.2,0.1-0.3,0.3-0.2c-0.1,0.2,0.1,0.2,0.2,0.3
		c0.9,0.3,1.9,0.7,2.9,0.5C149.4,48.3,149.3,48.5,149.1,48.5z"/>
	<path class="st99" d="M146.9,43.3c0.3,0.1,0.6,0,0.9,0.2c0.6,0.3,1.2,0.5,1.9,0.4c0.2-0.1,0.4,0,0.3,0.3c0,0.1,0,0.2,0,0.3
		c-0.1,0-0.2,0-0.3,0c-0.9-0.3-1.9-0.5-2.8-0.9C146.9,43.5,146.9,43.4,146.9,43.3z"/>
	<path class="st100" d="M146.3,48.2c0,0.3,0.2,0.3,0.3,0.3c0.8,0.1,1.5,0.3,2.2,0.5c0,0.1,0,0.2,0,0.3c-0.7-0.2-1.4-0.2-2-0.5
		c-0.3,0-0.5,0-0.9,0c0-0.1,0-0.1,0-0.1c-0.1-0.2-0.4-0.2-0.2-0.4C145.9,48.1,146.1,48.2,146.3,48.2z"/>
	<path class="st101" d="M150.3,43.6c-0.4,0-0.8,0.1-1.1,0c-0.4-0.1-0.8-0.3-1.2-0.5c-0.3-0.2-0.5-0.1-0.8-0.1c0-0.1,0-0.2,0-0.3
		c0.4,0,0.8,0,1.1,0c0.2,0.2,1,0.5,1.4,0.5c0.2,0,0.4,0,0.5,0C150.3,43.4,150.3,43.5,150.3,43.6z"/>
	<path class="st102" d="M146.9,43.6c0.9,0.3,1.9,0.5,2.8,0.9c0,0.1,0,0.2,0,0.3c-0.2,0-0.4,0-0.5,0c0-0.3-0.2-0.3-0.3-0.3
		c-0.7,0-1.3-0.3-2-0.5C146.9,43.8,146.9,43.7,146.9,43.6z"/>
	<path class="st102" d="M146.9,44.8c0-0.1,0-0.2,0-0.3c0.3,0.1,0.6,0,0.9,0.2c0.4,0.2,0.9,0.4,1.4,0.4c0.3,0,0.5,0,0.9,0
		c0,0.4-0.3,0.2-0.5,0.3c-0.4-0.1-0.9,0.2-1.3-0.3C147.6,45.2,147.3,44.6,146.9,44.8z"/>
	<path class="st103" d="M149.1,45c-0.5,0.1-0.9-0.2-1.4-0.4c-0.3-0.1-0.6-0.1-0.9-0.2c0-0.2,0-0.4,0-0.5c0.7,0.2,1.3,0.6,2,0.5
		c0.2,0,0.4,0.1,0.3,0.3C149.1,44.9,149.1,44.9,149.1,45z"/>
	<path class="st104" d="M146.9,44.8c0.5-0.2,0.8,0.5,1.3,0.3c0.3,0.5,0.9,0.2,1.3,0.3c0,0.2-0.1,0.3-0.3,0.3
		c-0.4-0.1-0.9,0.2-1.3-0.3c-0.5,0.2-0.8-0.4-1.3-0.3C146.6,44.8,146.6,44.8,146.9,44.8z"/>
	<path class="st105" d="M142.3,53c-0.5-0.3-1-0.7-0.8-1.4c0.4-0.2,0.5-0.1,0.5,0.3c0,0.3,0.6,0,0.5,0.4
		C142.2,52.5,142.3,52.8,142.3,53z"/>
	<path class="st106" d="M146.6,45c0.5-0.2,0.8,0.5,1.3,0.3c0.3,0.5,0.9,0.2,1.3,0.3c0,0.1,0,0.2,0,0.3c-0.2,0-0.4,0-0.5,0
		c-0.7,0.1-1.4-0.3-2-0.5C146.6,45.2,146.6,45.1,146.6,45z"/>
	<path class="st107" d="M147.1,53.3c-0.8-0.2-1.5-0.4-2.3-0.5c0-0.1,0-0.2,0-0.3c0.4-0.1,0.8,0.1,1.1,0.3c0.4,0.1,0.8,0.1,1.1,0.3
		C147.1,53.1,147.1,53.2,147.1,53.3z"/>
	<path class="st108" d="M145.4,51.6c0.4,0.4,1,0.6,1.6,0.5c0.2,0,0.4,0,0.4,0.3c-0.8,0.1-1.6-0.1-2.3-0.4c0-0.1,0-0.3,0-0.4
		C145.2,51.6,145.3,51.6,145.4,51.6z"/>
	<path class="st109" d="M148.3,47c-0.6-0.1-1.1-0.4-1.7-0.5c-0.2,0-0.3-0.1-0.3-0.3c0.7-0.1,1.4,0.3,2,0.5
		C148.3,46.8,148.3,46.9,148.3,47z"/>
	<path class="st110" d="M148.3,46.7c-0.7-0.3-1.3-0.6-2-0.5c0-0.2,0.1-0.3,0.3-0.3c0.6-0.2,1.1,0.4,1.7,0.3c0,0.1,0,0.2,0,0.3
		C148.2,46.6,148.3,46.7,148.3,46.7z"/>
	<path class="st111" d="M148.3,46.2c-0.6,0.2-1.1-0.4-1.7-0.3c0-0.2,0-0.4,0-0.5c0.7,0.3,1.3,0.6,2,0.5
		C148.5,46.1,148.5,46.2,148.3,46.2z"/>
	<path class="st112" d="M146.6,46.7c0,0.3,0.2,0.3,0.4,0.3s0.5-0.1,0.5,0.3c0,0.1,0,0.2,0,0.3c-0.3-0.3-0.7-0.3-1.1-0.3
		c0-0.1,0-0.1,0-0.1c-0.1-0.2-0.4-0.2-0.2-0.4C146.1,46.7,146.4,46.8,146.6,46.7z"/>
	<path class="st113" d="M148.3,42.7c-0.4,0-0.8,0-1.1,0c-0.2,0-0.3,0-0.2-0.3c0.1-0.1,0.1-0.2,0.2-0.3c0.3,0.1,0.5,0.4,0.9,0.3
		C148.2,42.5,148.3,42.6,148.3,42.7z"/>
	<path class="st114" d="M143.7,49.6c0-0.1,0-0.2,0-0.3c0.1,0,0.2,0,0.3,0c0.1,0.3,0.4,0.4,0.5,0.7c-0.1,0.3-0.4,0.1-0.5,0.2
		C143.9,50,143.8,49.8,143.7,49.6z"/>
	<path class="st115" d="M144.8,43.6c0.1,0,0.2,0,0.3,0c0.1,0.3,0.4,0.4,0.5,0.7c-0.1,0.3-0.4,0.1-0.5,0.2
		C145.1,44.2,144.7,44,144.8,43.6z"/>
	<path class="st116" d="M144.6,44.5c0.2,0,0.4,0,0.5,0c0,0.2,0.1,0.3,0.3,0.3c0,0.3-0.3,0.4-0.4,0.2
		C144.8,44.9,144.6,44.8,144.6,44.5z"/>
	<path class="st117" d="M144.3,46.7c0.4-0.2,0.5,0.2,0.9,0.3c0,0.4-0.3,0.2-0.5,0.3C144.5,47.1,144.4,46.9,144.3,46.7z"/>
	<path class="st118" d="M145.2,43.6c-0.1-0.2-0.2-0.4-0.3-0.5c0.2,0,0.4,0,0.5,0c0,0.1,0,0.1,0,0.1c0.1,0.2,0.4,0.2,0.2,0.4
		C145.5,43.6,145.3,43.6,145.2,43.6z"/>
	<path class="st119" d="M145.4,43c-0.1-0.2-0.2-0.4-0.3-0.5c0.4-0.2,0.5,0.2,0.9,0.3C146,43.2,145.7,43,145.4,43z"/>
	<path class="st120" d="M144.3,45.9c0.2,0,0.4,0,0.5,0c0,0.2,0.1,0.3,0.3,0.3c0,0.3-0.3,0.4-0.4,0.2
		C144.5,46.3,144.3,46.2,144.3,45.9z"/>
	<path class="st121" d="M146,49.6c0,0.2,0.1,0.3,0.3,0.3c0,0.1,0,0.2,0,0.3c-0.2,0-0.4,0-0.5,0c0-0.2-0.1-0.3-0.3-0.3
		C145.4,49.4,145.8,49.7,146,49.6z"/>
	<path class="st122" d="M146.6,49.3c-0.2,0-0.4,0-0.5,0c-0.3,0-0.3-0.2-0.3-0.3c0-0.2,0.1-0.3,0.3-0.2c0,0.4,0.3,0.2,0.5,0.3
		C146.6,49.1,146.6,49.2,146.6,49.3z"/>
	<path class="st123" d="M144.8,45.9c-0.1-0.2-0.2-0.4-0.3-0.5c0.4-0.2,0.5,0.2,0.9,0.3C145.4,46,145.1,45.8,144.8,45.9z"/>
	<path class="st124" d="M143.4,51c0.1,0,0.2,0,0.3,0c0.3,0,0.3,0.2,0.3,0.3c0,0.2-0.1,0.3-0.3,0.2C143.6,51.4,143.5,51.2,143.4,51z"
		/>
	<path class="st125" d="M145.7,51.3c-0.1,0-0.2,0-0.3,0c-0.2,0-0.3-0.1-0.3-0.3C145.3,51.1,145.7,50.8,145.7,51.3z"/>
	<path class="st126" d="M154.5,40.8c-1.1,0-2.3,0-3.4,0c-0.2,0-0.3-0.1-0.3-0.3c0.3,0,0.5,0,0.8,0c-0.1-0.3-0.3-0.5-0.3-0.9
		c1-0.1,2,0.2,2.9,0.5C154.6,40.3,154.5,40.6,154.5,40.8z"/>
	<path class="st127" d="M147.7,37.7c1-0.2,1.5,0.7,2.3,1C149,38.8,148.3,38.5,147.7,37.7z"/>
	<path class="st128" d="M143.4,51c0.1,0.2,0.2,0.4,0.3,0.5c-0.5-0.1-0.5-0.1-0.8-0.5C143,50.9,143.3,51.1,143.4,51z"/>
	<path class="st129" d="M144.4,48.7c-0.4,0.1-0.7-0.1-0.9-0.5C144,48,144.1,48.4,144.4,48.7z"/>
	<path class="st130" d="M144.3,46.7c0.1,0.2,0.2,0.4,0.3,0.5c-0.4,0.1-0.7-0.2-0.9-0.4C143.9,46.7,144.1,46.8,144.3,46.7z"/>
	<path class="st131" d="M143.7,49.6c0.1,0.2,0.2,0.4,0.3,0.5c-0.4,0.1-0.8-0.1-0.9-0.5C143.3,49.6,143.5,49.6,143.7,49.6z"/>
	<path class="st132" d="M146,42c-0.4,0.1-0.4,0.1-0.8-0.3c0.2-0.2,0.3-0.2,0.5,0C145.8,41.8,145.9,41.9,146,42z"/>
	<path class="st133" d="M145.4,41.1c0.2,0.1,0.5-0.2,0.5,0.3C145.8,41.3,145.4,41.5,145.4,41.1z"/>
	<path class="st134" d="M149.1,45.9c0-0.1,0-0.2,0-0.3c0.2,0,0.3-0.1,0.3-0.3c0.2-0.1,0.5,0.2,0.5-0.3c0.2-0.1,0.5,0.2,0.5-0.3
		c0.2,0,0.3-0.1,0.3-0.3c0.8,0,1.5,0,2.3,0c-0.2,0.4-0.4,0.7-0.3,1c-0.2,0.1-0.2,0.1-0.3,0.2c-0.8,0-1.7,0-2.5,0
		c-0.2,0-0.4,0-0.4,0.3C149.5,45.9,149.3,45.9,149.1,45.9z"/>
	<path class="st93" d="M146.6,49.3c0-0.1,0-0.2,0-0.3c0.2,0,0.3-0.1,0.3-0.3c0.6,0.3,1.4,0.3,2,0.5c0.9,0,1.8,0,2.9,0
		c-0.3,0.4-0.8,0.3-1.1,0.5c-0.4-0.6-0.8,0.3-1.2,0.1c0-0.3-0.2-0.3-0.3-0.3c-0.4,0-0.7,0-1.1,0C147.6,49.2,147.1,49.3,146.6,49.3z"
		/>
	<path class="st135" d="M156.8,53.6c0.4,0,0.4,0.3,0.2,0.5c-0.3,0.3-0.2,0.4,0.1,0.5c-0.1,0.3-0.6,0-0.5,0.4c-0.1,0-0.2,0-0.3,0
		c0-0.4-0.3-0.2-0.5-0.3c-0.1-0.4-0.4-0.4-0.6-0.8c0.2-0.3,0.2-0.8,0.6-0.9c0,0.2,0.1,0.3,0.3,0.3c0,0.4,0.3,0.2,0.5,0.3
		C156.6,53.6,156.7,53.6,156.8,53.6z M155.7,53.9c0.2,0.2,0.2,0.7,0.8,0.3C156.3,54.1,156.2,53.8,155.7,53.9z"/>
	<path class="st136" d="M149.1,48.5c0.2,0,0.3-0.1,0.3-0.3c0.2-0.1,0.5,0.2,0.5-0.3c0.5,0,1.1,0,1.7,0s0.6,0.1,0.3,0.5
		c-0.7,0-1.3,0-1.9,0c-0.2,0-0.4,0-0.3,0.3C149.5,48.7,149.1,48.9,149.1,48.5z"/>
	<path class="st137" d="M151.7,47.9c-0.5,0-1.1,0-1.7,0c-0.9,0.2-1.7-0.3-2.6-0.3c0-0.1,0-0.2,0-0.3c1.1-0.2,2.1,0.5,3.2,0.3
		c0.4,0,0.8,0,1.1,0C151.7,47.7,151.7,47.8,151.7,47.9z"/>
	<path class="st125" d="M149.1,52.2c-1.2,0-2.3-0.4-3.4-0.7v-0.1c1-0.1,2,0.4,3,0.3c0.2,0,0.2,0.3,0.4,0.3
		C149.1,51.9,149.1,52,149.1,52.2z"/>
	<path class="st138" d="M149.7,47.3c-0.2-0.1-0.5,0.2-0.5-0.3c0.2,0,0.3-0.1,0.3-0.3c0.2-0.1,0.5,0.2,0.5-0.3
		c0.4-0.2,0.5,0.3,0.9,0.3c0.5,0,1.1,0.1,1.6-0.3c0.1,0.3,0.1,0.5-0.2,0.5c-0.8,0-1.5,0-2.3,0C149.8,47,149.7,47,149.7,47.3z"/>
	<path class="st52" d="M159.1,45.6c0.1,0.4,0,0.8-0.3,1.1c-0.3-0.1-0.5-0.4-0.9-0.3c0-0.1,0-0.1,0-0.1c-0.1-0.2-0.4-0.2-0.2-0.4
		c0.1-0.1,0.3-0.1,0.8,0c0.2,0,0.2-0.1,0.1-0.1c-0.1,0.1-0.4-0.2-0.4,0.1c0.1,0.2,0.3,0.2,0.3-0.1c-0.3-0.4-0.7-0.5-0.8-0.8
		c0.1-0.3,0.4-0.1,0.5-0.2C158.3,45.5,158.6,45.6,159.1,45.6z"/>
	<path class="st139" d="M148.5,41.9c1,0.1,1.8,0.7,2.8,0.5c0.1,0,0.2,0,0.3,0c0,0.3-0.2,0.3-0.3,0.3c-1,0.1-1.9-0.2-2.8-0.5
		C148.5,42.1,148.5,42,148.5,41.9z"/>
	<path class="st140" d="M148.9,50.7c0.4,0,0.7,0,1.1,0c-0.5,0.4-1,0.2-1.5,0.3c-0.5,0.1-1-0.4-1.6-0.3c0-0.1,0-0.2,0-0.3
		c0.3,0,0.7,0.1,1,0C148.2,50.4,148.4,50.8,148.9,50.7z"/>
	<path class="st141" d="M148.9,50.7c-0.4,0.2-0.6-0.3-1-0.3c-0.3,0.1-0.7,0-1,0c0-0.4-0.3-0.2-0.5-0.3c0-0.1,0-0.2,0-0.3
		c0.9,0.1,1.7,0.2,2.6,0.5C148.9,50.5,148.9,50.6,148.9,50.7z"/>
	<path class="st142" d="M155.9,53.3c-0.2,0-0.3-0.1-0.3-0.3c0.1-0.2-0.2-0.3-0.3-0.4c0.2-0.2,0.4-0.2,0.6,0.1
		c0.2,0.3,0.4,0.5,0.8,0.4c0.1,0,0.2,0,0.3,0c-0.1,0.2-0.2,0.4-0.3,0.5c-0.1,0-0.2,0-0.3,0C156.5,53.1,156.1,53.3,155.9,53.3z"/>
	<path class="st98" d="M149.7,48.7c0-0.3,0.2-0.3,0.3-0.3c0.7,0,1.3,0,1.9,0c0,0.1,0,0.2,0,0.3C151.2,48.7,150.4,48.7,149.7,48.7z"
		/>
	<path class="st143" d="M158.5,47.6c0,0.2-0.1,0.3-0.3,0.3s-0.4,0-0.5,0c-0.1-0.3-0.4-0.4-0.5-0.7c0.1-0.3,0.4-0.1,0.5-0.2
		c0.2,0,0.3,0.1,0.3,0.3C157.9,47.7,158.3,47.5,158.5,47.6z"/>
	<path class="st144" d="M149.1,45.9c0.2,0,0.4,0,0.5,0c0.4,0,0.9,0,1.4,0c-0.7,0.4-1.3,0.3-2,0.3C149.1,46.1,149.1,46,149.1,45.9z"
		/>
	<path class="st145" d="M151.7,47.6c-0.4,0-0.8,0-1.1,0c0-0.1,0-0.2,0-0.3c0.5,0,1.1,0,1.7,0C152.1,47.7,151.9,47.5,151.7,47.6z"/>
	<path class="st146" d="M149.4,52.4c0-0.1,0-0.2,0-0.3c0.5,0,1.1,0,1.8,0c-0.4,0.4-0.8,0.3-1,0.3S149.7,52.4,149.4,52.4z"/>
	<path class="st147" d="M149.9,46.4c0,0.4-0.3,0.2-0.5,0.3c-0.4,0-0.8,0-1.1,0c0-0.1,0-0.2,0-0.3c0.2,0,0.4,0,0.5,0
		C149.2,46.4,149.6,46.4,149.9,46.4z"/>
	<path class="st148" d="M157.7,47.9c0.2,0,0.4,0,0.5,0c0,0.1,0,0.1,0,0.1c0.1,0.2,0.4,0.2,0.2,0.4c-0.1,0.1-0.3,0.1-0.5,0.1
		c0-0.4-0.3-0.2-0.5-0.3c-0.2,0-0.3,0-0.2-0.2c0-0.1,0.2-0.1,0.2-0.1C157.5,47.9,157.6,47.9,157.7,47.9z"/>
	<path class="st149" d="M157.7,51.6c-0.1,0.2,0.2,0.5-0.3,0.5c-0.4,0.1-0.6-0.2-0.9-0.4c0.2-0.2,0.4-0.1,0.5-0.2
		c0,0.2,0,0.3,0.3,0.2C157.5,51.7,157.6,51.6,157.7,51.6z"/>
	<path class="st150" d="M146.3,50.1c0.2,0.1,0.5-0.2,0.5,0.3c0,0.1,0,0.2,0,0.3c-0.3-0.3-0.7-0.3-1.1-0.3c0-0.1,0-0.2,0-0.3
		C145.9,50.1,146.1,50.1,146.3,50.1z"/>
	<path class="st151" d="M157.7,51.6c-0.1,0.1-0.2,0.1-0.3,0.2c-0.3,0.2-0.2,0-0.3-0.2c0.1-0.2-0.2-0.3-0.3-0.4
		c0.4-0.5,0.5,0.2,0.8,0.1C157.7,51.4,157.7,51.5,157.7,51.6z"/>
	<path class="st152" d="M156.3,55.3c-0.1,0-0.2,0-0.3,0c-0.2,0-0.4,0-0.5,0c0-0.1,0-0.1,0-0.1c-0.1-0.2-0.4-0.2-0.2-0.4
		c0.1-0.1,0.3-0.1,0.5-0.1c0,0.4,0.3,0.2,0.5,0.3C156.3,55.1,156.3,55.2,156.3,55.3z"/>
	<path class="st143" d="M157.9,47.3c0-0.2-0.1-0.3-0.3-0.3c0-0.1,0-0.1,0-0.1c-0.1-0.2-0.4-0.2-0.2-0.4c0.1-0.1,0.3-0.1,0.5-0.1
		c0.1,0.2,0.2,0.4,0.3,0.5c0,0.1,0,0.2,0,0.3C158.1,47.3,158,47.3,157.9,47.3z"/>
	<path class="st7" d="M150.8,44.5c0,0.2-0.1,0.3-0.3,0.3c-0.3,0-0.5,0-0.9,0c0-0.1,0-0.2,0-0.3c0.1,0,0.2,0,0.3,0
		C150.3,44.5,150.5,44.5,150.8,44.5z"/>
	<path class="st153" d="M148.9,46.4c-0.2,0-0.4,0-0.5,0c0-0.1,0-0.2,0-0.3c0.2,0,0.3-0.1,0.3-0.3c0.2,0,0.4,0,0.5,0
		c0,0.1,0,0.2,0,0.3C148.9,46.2,148.8,46.3,148.9,46.4z"/>
	<path class="st40" d="M157.7,49.9c0,0.1,0,0.2,0,0.3c-0.1,0-0.2,0-0.3,0c-0.1-0.1-0.1-0.2-0.2-0.3c-0.2-0.3-0.2-0.5,0.2-0.5
		C157.5,49.5,157.6,49.7,157.7,49.9z"/>
	<path class="st39" d="M157.1,53c-0.1,0-0.2,0-0.3,0c0.1-0.2-0.2-0.3-0.3-0.4c0.2-0.2,0.4-0.3,0.5,0.2
		C157.1,52.8,157.1,52.9,157.1,53z"/>
	<path class="st154" d="M157.3,48.2c0.2,0.1,0.5-0.2,0.5,0.3c0,0.1,0,0.2,0,0.3c-0.1,0-0.2,0-0.3,0
		C157.6,48.6,157.5,48.3,157.3,48.2z"/>
	<path class="st90" d="M150.5,55c0.1-0.2-0.2-0.5,0.3-0.5C150.8,54.7,151,55,150.5,55z"/>
	<path class="st83" d="M161.6,47.9c-0.4-0.4-0.9-0.3-1.4-0.3c0.1-0.2-0.1-0.3-0.2-0.3c-0.2,0-0.4,0-0.3,0.3
		c-0.4-0.1-0.3-0.3-0.2-0.5c0.1-0.1,0.1-0.2,0.2-0.3c0.6,0.2,1.1,0.5,1.8,0.6c0.1,0,0.2,0.1,0.2,0.3
		C161.6,47.7,161.6,47.8,161.6,47.9z"/>
	<path class="st155" d="M155.4,55.3c0.2,0,0.4,0,0.5,0c0,0.2,0.2,0.2,0.3,0.3c0.3,0.1,0.3,0.2-0.1,0.5c0.1-0.2-0.1-0.3-0.2-0.3
		C155.7,55.8,155.5,55.6,155.4,55.3z"/>
	<path class="st156" d="M158.2,47c-0.1-0.2-0.2-0.4-0.3-0.5c0.4-0.2,0.5,0.2,0.9,0.3C158.8,47.2,158.4,47,158.2,47z"/>
	<path class="st157" d="M159.1,45.6c-0.4,0.1-0.8-0.1-0.9-0.5c0.4-0.2,0.5,0.2,0.9,0.3C159.1,45.4,159.1,45.5,159.1,45.6z"/>
	<path class="st80" d="M157.7,49.9c-0.1-0.2-0.2-0.4-0.3-0.5c0.2,0.1,0.5-0.1,0.5,0.2C157.9,49.7,157.9,49.9,157.7,49.9z"/>
	<path class="st101" d="M156.3,55.3c0-0.1,0-0.2,0-0.3c0.1,0,0.2,0,0.3,0c0.2,0,0.3,0,0.2,0.2c0,0.1-0.2,0.1-0.2,0.1
		C156.4,55.3,156.3,55.3,156.3,55.3z"/>
	<path class="st80" d="M157.3,50.1c0.1,0,0.2,0,0.3,0c0.2,0,0.2,0.1,0.2,0.2c0,0.1-0.1,0.1-0.2,0.1
		C157.5,50.5,157.3,50.4,157.3,50.1z"/>
	<path class="st158" d="M157.9,47.3c0.1,0,0.2,0,0.3,0c0.2,0,0.3,0.1,0.3,0.3C158.3,47.5,157.9,47.7,157.9,47.3z"/>
	<path class="st159" d="M157.7,48.7c0.1,0,0.2,0,0.3,0c0.2,0,0.2,0.1,0.2,0.2c0,0.1-0.1,0.1-0.2,0.1
		C157.8,49.1,157.6,48.9,157.7,48.7z"/>
	<path class="st160" d="M160.5,46.2c-0.2,0-0.4,0-0.5,0c0-0.1,0-0.2,0-0.3C160.1,46,160.5,45.7,160.5,46.2z"/>
	<path class="st161" d="M158.8,53.8c0.6-0.2,1.1,0.3,1.7,0.3c0.2,0,0.4,0,0.5,0c0,0.1,0,0.2,0,0.3C160.3,54.4,159.4,54.5,158.8,53.8
		z"/>
	<g>
		<path class="st162" d="M161.9,50c-0.1-0.1-0.2-0.1-0.2-0.1c-0.8,0.1-1.5-0.1-2.1-0.5c-0.2-0.1-0.4-0.1-0.4,0.2
			c0.7,0.2,1.3,0.6,2,0.5c0.2,0,0.4,0.1,0.3,0.3c0.5,0,1.1,0,1.7,0c-0.5,0.4-1.1,0.2-1.7,0.3c-0.7-0.3-1.5-0.5-2.4-0.7
			c0.6,0.5,1.1,0.7,1.6,0.7c0.3,0.2,0.6,0.4,1,0.3c0.3-0.1,1.6,0.4,1.8,0.5c0.5,0,1.1,0,1.7,0c-0.1-0.2-0.3-0.4-0.2-0.5
			c0.1-0.2,0.3-0.3,0.2-0.6s-0.6,0.1-0.8-0.2c0.3-0.3,0.8,0.2,1.1-0.4c-0.7,0-1.3,0-2,0C162.9,50.2,162.5,50.2,161.9,50z"/>
		<path class="st162" d="M165.3,46.7c-0.4,0-0.8,0-1.1,0c-0.9,0.1-1.8-0.2-2.6-0.5c-0.4-0.2-0.7,0-1.1-0.1c0,0.3,0.2,0.3,0.4,0.3
			s0.5-0.1,0.5,0.3c1-0.2,1.8,0.6,2.8,0.3c-0.8,0.3-1.5,0.2-2.2,0.2c0,0.1,0,0.2,0,0.3c0.3,0,0.5,0,0.9,0c0,0.2-0.1,0.3-0.3,0.3
			c0,0.2-0.1,0.3-0.3,0.3c0,0.1,0,0.2,0,0.3c0.2,0,0.4,0,0.5,0c0-0.3,0.2-0.3,0.3-0.3c0.8,0,1.7,0,2.5,0c0.4,0,0.3-0.3,0.3-0.5
			c-0.2-0.3,0.4-0.4,0.2-0.6C165.9,46.8,165.4,47.3,165.3,46.7z"/>
		<path class="st162" d="M162.5,53.3c0,0.3-0.2,0.3-0.3,0.3c-0.4,0-0.7,0-1.1,0c-0.5-0.4-1.3-0.3-1.8-0.5c-0.2-0.1-0.4-0.3-0.7-0.3
			c-0.2,0-0.3,0.1-0.3,0.3c0.7,0.4,1.3,0.7,2.1,0.6c0.1,0,0.2,0.1,0.2,0.3c0.4,0,0.8,0,1.2,0c0.4,0,0.7,0.2,0.8,0.6
			c-0.2,0-0.4,0-0.5,0c-0.2,0-0.3,0.1-0.3,0.3c0.4,0,0.7,0,1.4,0c-1.1,0.3-1.7,0.3-2.6,0.1c-0.8-0.2-1.5-0.3-2.2-0.7
			c-0.2,0-0.3,0.1-0.3,0.3c1.3,0.5,2.6,1,4,1c-0.9,0.3-1.7,0.2-2.5-0.1c-0.2,0-0.4,0-0.6-0.2c-0.3-0.2-0.7-0.3-0.8,0.2
			c0.1,0,0.2,0,0.3,0c0.3,0.3,0.7,0.3,1.1,0.3c0.3,0,0.4,0.3,0.7,0.3c1-0.1,2,0.4,3,0.3c0.1,0,0.2,0.1,0.2,0.3
			c0.2-0.1,0.4,0.1,0.5-0.1c0.1-0.3,0.1-0.7-0.1-1c-0.2-0.1-0.4,0-0.5-0.2c0.1-0.2,0.3-0.1,0.5-0.1c0.5,0,0.3-0.3,0.3-0.6
			c0.1-0.3-0.2-0.5-0.2-0.8c0.2-0.1,0.4,0,0.5-0.3C163.8,53.2,163.2,53.3,162.5,53.3z"/>
		<path class="st162" d="M164.5,45.9c-1.5,0.1-2.9-0.3-4.2-0.9c0.1,0.2-0.1,0.4,0.2,0.6c0.5,0.4,1.2,0,1.6,0.5
			c0.8-0.2,1.4,0.4,2.1,0.3c-0.1-0.2,0.1-0.3,0.2-0.3c0.5,0,0.9,0,1.4,0c0.2,0,0.4,0,0.4-0.3C165.6,45.9,165.1,45.9,164.5,45.9z"/>
		<path class="st162" d="M158.2,55.6c-0.2,0.1-0.5-0.2-0.5,0.3c0.7,0.3,1.4,0.7,2.2,0.6c0.2,0,0.4,0,0.3,0.3c0.3,0,0.5,0,0.9,0
			c0-0.1,0-0.2,0-0.3c-0.6,0.1-1-0.3-1.7-0.3C159,56.1,158.5,56,158.2,55.6z"/>
		<path class="st162" d="M158.6,53.6c-0.2,0-0.4,0-0.3,0.3c0.2,0,0.4,0,0.5,0C158.8,53.7,158.7,53.6,158.6,53.6z"/>
	</g>
	<path class="st163" d="M159.6,47.6c0-0.3,0.2-0.3,0.3-0.3c0.2,0,0.3,0.1,0.2,0.3C160,47.6,159.8,47.6,159.6,47.6z"/>
	<path class="st113" d="M149.7,43.3c-0.4-0.1-1.3-0.4-1.4-0.5c0.5,0,1-0.1,1.4,0.3C149.7,43.1,149.7,43.2,149.7,43.3z"/>
	<path class="st164" d="M149.7,43.3c0-0.1,0-0.2,0-0.3c0.5,0,1.1,0,2,0c-0.6,0.4-1,0.2-1.4,0.3C150.1,43.3,149.9,43.3,149.7,43.3z"
		/>
	<path class="st80" d="M151.7,43.9c-0.3,0-0.5,0-0.9,0c0.1-0.1,0.1-0.2,0.1-0.2c0.5,0,1,0,1.6,0C152.3,44.1,152,43.8,151.7,43.9z"/>
	<path class="st80" d="M149.9,53.6c-0.4,0-0.9,0-1.4,0c-0.2,0-0.4-0.1-0.3-0.3c0.3,0,0.5,0,0.9,0c0.4,0,0.9,0,1.4,0
		C150.4,53.7,150.2,53.5,149.9,53.6z"/>
	<path class="st80" d="M147.4,52.4c0.5,0,1.1,0,1.7,0c0,0.1,0,0.2,0,0.3c-0.4,0-0.9,0-1.4,0C147.6,52.7,147.4,52.7,147.4,52.4z"/>
	<path class="st122" d="M146.6,49.3c0.5,0,1-0.1,1.4,0.3c0,0.1,0,0.2,0,0.3C147.6,49.8,146.7,49.5,146.6,49.3z"/>
	<path class="st80" d="M148,49.9c0-0.1,0-0.2,0-0.3c0.4,0,0.7,0,1.1,0c0.2,0,0.4,0.1,0.3,0.3C148.9,49.9,148.5,49.9,148,49.9z"/>
	<path class="st80" d="M147.1,53.3c0-0.1,0-0.2,0-0.3c0.3,0,0.5,0,0.8,0c0.2,0,0.3,0.1,0.3,0.3C147.9,53.3,147.5,53.3,147.1,53.3z"
		/>
	<path class="st165" d="M148.3,46.7c0.4,0,0.8,0,1.1,0c0,0.2-0.1,0.3-0.3,0.3c-0.3,0-0.5,0-0.9,0C148.3,46.9,148.3,46.8,148.3,46.7z
		"/>
	<path class="st149" d="M147.4,47.6c0.9,0.1,1.7,0.5,2.6,0.3c0,0.4-0.3,0.2-0.5,0.3c-1,0.1-2-0.2-2.9-0.5c-0.1-0.1-0.2-0.1-0.2-0.3
		C146.7,47.3,147.1,47.3,147.4,47.6z"/>
	<path class="st166" d="M146.9,48.7c0,0.2-0.1,0.3-0.3,0.3c-0.2-0.1-0.5,0.2-0.5-0.3C146.3,48.7,146.6,48.7,146.9,48.7z"/>
	<path class="st167" d="M149.7,44.8c0.3,0,0.5,0,0.9,0c0,0.4-0.3,0.2-0.5,0.3c-0.3,0-0.5,0-0.9,0c0-0.1,0-0.2,0-0.3
		C149.3,44.8,149.5,44.8,149.7,44.8z"/>
	<path class="st80" d="M155.7,53.9c0.4-0.2,0.5,0.2,0.8,0.3C155.9,54.7,156,54.1,155.7,53.9z"/>
	<path class="st101" d="M156.3,55c-0.2-0.1-0.5,0.2-0.5-0.3C155.9,54.8,156.2,54.5,156.3,55z"/>
	<path class="st168" d="M155.9,53.3c0.2,0.1,0.5-0.2,0.5,0.3C156.3,53.5,156,53.7,155.9,53.3z"/>
	<path class="st169" d="M158.8,46.1c-0.2,0.2-0.5,0.2-0.5-0.1c-0.1-0.3,0.3-0.1,0.4-0.1C158.6,45.9,158.7,46,158.8,46.1z"/>
	<g>
		<path class="st2" d="M229.6,70.1c-1,0.5-1.6,0.8-2.2,1c-0.2-0.2-0.4-0.4-0.8-0.8c1.6-1.9-0.3-3.5-0.3-5.2
			c-1.5-0.6-2.4,1.1-3.8,0.6c-0.7,1,0.1,2.2-0.5,3.5c-1.1-0.9-1.7-1.9-1.8-3.2c-0.2-1.3-1.4-2.4-0.4-3.8c0.7,0.5,1.1,1,1.2,1.9
			c2,0.1,2,0.1,3.9-0.7c0.1-0.8,0.5-1.8-0.2-2.5c-0.7-0.7,0-1.6-0.7-2.2c-0.5-0.1-1.1-0.1-1.7-0.2c-0.1-0.8,0.8-0.8,0.8-1.3
			c0.5,0,1,0,1.7,0C226.9,61.4,227.8,65.9,229.6,70.1z"/>
		<g>
			<path class="st2" d="M74.4,78.3c1.1,0,1.9,0,2.6,0c0.9,2.3-0.8,4.4-0.5,6.7c0.3,2.3,0.1,4.6,0.1,6.6c-0.4,0.5-0.7,0.9-1.1,1.4
				c-2.2-3.3-2.7-7.1-4.4-11.4c0,2.1-0.1,3.5,0,4.8c0.1,1.4-1.3,2.4-0.8,3.4c0.3,1.2,1.2,0.7,1.5,1.3c0,0.2,0,0.4,0,0.7
				c-0.8,0.6-1.7,0.3-2.7,0.2c-0.5-4.6,1.5-9,0.4-13.2c0.7-0.8,1.3-0.5,1.8-0.6c1.1,3.3,2.2,6.5,3.4,9.7
				C74.9,84.7,75.8,81.6,74.4,78.3z"/>
			<path class="st2" d="M73.8,98.4c0.6-0.1,0.7,0.5,1.3,0.9c-1,1.3-0.5,2.8-0.7,4.3c0.3,0.3,0.7,0.6,1.1,1c0.3-0.3,1-0.8,0.9-1.1
				c-0.3-2.2-0.8-4.3-1-6.5c-0.1-1.3-1.4-1.1-1.8-2c0.4-1.4,1.3-1.7,2.6-1.3c0.7,2.7,0.8,5.4,1.5,8c0.4,1.8,0.4,4,0.8,5.9
				c0.1,0.3-0.3,0.6-1.4,0.3c-0.4-0.3,0.4-2-1-2.4c-1,1-2.4,0.3-3.9,0.7c0,0.8,0,1.7,0,2.5c-0.5,0.1-0.7,0.1-1.2,0.1
				c0-4.6-1.6-9.1-1.6-13.5c0.9-1,1.7-1.6,2.8-0.8c0.3,1-0.4,1.1-1.1,1.2c-0.4,0.6-0.2,1.3-0.2,2c-0.2,2.3,1.3,4.5,0.7,6.7
				c0.9,0.2,1.5,0.4,2.4-0.4c-2.1-1.1-0.1-3.3-1.6-4.7C73,98.9,73.8,99.3,73.8,98.4z"/>
			<path class="st2" d="M80,112c0.2,1.9-0.8,3.5-1.5,5.5c0.7,1.1,0.7,2.8,2.4,3.2c1.4-1.1-1.2-1.8,0.1-2.8c0.7-0.3,1.4,0.2,1.4,0.6
				c0.3,1.9,2,3.3,1.8,5.4c-0.8,0.2-1.3,0.4-1.4-0.5c-0.1-0.9-0.9-0.9-1-1.5c-1.4,0.7-2.6,1.3-3.7,1.8c0.4,0.8,1.3,1.6,0.2,2.5
				c-0.4,0-0.8,0.1-0.9-0.3c-0.9-3.9-3.4-7.2-3.6-11.1c0.8-0.7,1.2-1.6,2.4-1.3c0.4,0.6,0.7,1.2,1,1.7c1.3-0.5,1.6-1.3,1.4-2.4
				c-0.7-0.5-1.5-1.2-2.2-1.7c0.5-1,1.2-0.5,1.8-0.8C78.8,110.7,79.4,111.3,80,112z M76.1,114.8c-1.4,1.6-1.4,1.6,1.6,7.1
				c0.3,0,0.7,0.1,1-0.4C77.9,119.4,77.1,117.3,76.1,114.8z"/>
			<path class="st2" d="M75.9,57.6c3-1.4,5.8-2.7,8.3-4.7c-1.1-0.6-2.2-1.1-3.3-1.7c-0.7,0.4-0.9,1.2-1.1,1.8
				c-0.5,0.2-0.9,0.2-1.3-0.4c1.3-1.7,1.5-4.1,3.3-5.7c0.5,1,0.4,1.8-0.4,2.5c1.4,1.4,3.2,1.8,4.8,2.7c0,0.4,0,0.9,0,1.5
				c-2.4,2-5.8,2.7-8.2,4.8c0.5,0.9,1.7,1.1,2.6,1.7c1.3-0.1,1.3-1.5,1.8-2.1c0.8-0.1,1.1,0.2,1,0.5c-0.4,2.4-1.7,4.4-3,6.5
				c-0.4-0.4-0.7-0.8-1-1.1c0.7-0.5,0.5-1.6,1.3-2.1c-1.1-0.6-2.3-1.1-3.4-1.7c-1.3,0.2-1.4,1.5-2.2,2.5
				C73.6,60.4,75.9,59.3,75.9,57.6z"/>
			<path class="st2" d="M99.4,29.7c0.2,1.6,1.4,1.9,1.6,2.4c1.5,1,2-1,3.3-0.2c0.2,1.5-1.7,1.3-2.2,2.3c-0.5,1.1-2.4,0.9-2.9,2.8
				c-0.4-0.8-0.5-1.2-0.9-2.1c0-0.5,1.4-0.3,2.2-1c-1-1.1-1.8-2-2.5-2.7c-1.3-0.7-2,0.4-2.9,0.5c-0.4-0.2-0.5-0.5-0.4-1.1
				c1.3-0.2,2-1.4,3.1-2.3c2.9,0,6,0,9,0c0.6-0.4,0.3-1,0.4-1.5c-0.7-0.6-1.4-1.3-2.1-2c-0.9,0.1-1.1,1-1.8,1.4
				c-0.3-0.3-0.7-0.7-1-1c1.2-1.7,3.4-2.2,4.4-3.8c0.6,0,1.1,0,1.5,0c0.3,0.3,0.3,0.3-1.7,2.3c1.3,1.3,1.8,3.1,3.4,4.2
				c-0.7,0.7-1.2,1.2-1.8,1.9C105.3,29.7,102.4,29.7,99.4,29.7z"/>
			<path class="st2" d="M228.9,105.3c-1.1,0-2.3,0-3.4,0c-2.3-1.9-2.2-4.6-1.6-6.8c0.7-2.3,0.3-4.5,0.6-6.7c0.3-0.3,0.6-0.6,1-1
				c0.3,0.3,0.7,0.6,0.9,0.9c0,0.5-0.9,0.8-0.5,1.6c1.5,0.1,2.8,1.4,4.5,0.9c0.7-0.8-0.1-1.8,0.5-2.7c0.3,0,0.6,0,1.1,0
				c-0.3,1.6,0.3,3-0.7,4.6c-0.5,1-0.1,2.5-0.1,3.8C231.3,101.9,230.7,103.9,228.9,105.3z M230,95.6c-1.4,0.1-2.7-0.4-4.2-1
				c0.4,3-1.3,5.5-0.4,8.4c0.8,1.1,2,0.9,3.2,0.6C230.3,101.3,230,98.6,230,95.6z"/>
			<path class="st2" d="M93.1,38.6c0.1-0.8,0.2-1.3,0.2-1.8c0.3-0.4,0.7-0.3,1-0.3c0.5,0.3,0.3,0.8,0.3,1.3c0,0.4,0.1,0.7,0.4,0.8
				c1.3,0.3,1.4-1.9,2.9-1.2c-0.6,2.1-2.3,3.2-3.8,4.8c-0.2-0.4-0.2-0.5-0.3-0.8c-0.1-0.2-0.2-0.4-0.3-0.8c-1.1,0.9-2.8,0.4-3.8,1.8
				c0,0.9,0,1.9,0,3.3c0.7-0.5,1.2-1,2-1.7c-0.2,2.9-2.4,4.1-3.8,5.8c-0.7-0.5-0.3-1.1-0.4-1.7c0.4-0.5,0.9-1,1.3-1.4
				c-1.1-1.6-0.1-3.8-1.7-5.2c-0.7,0.3-0.9,1.6-2.1,1.3c0.9-2.1,0.9-2.1,2.8-4.1C89.6,38.6,91.2,38.6,93.1,38.6z M90.5,40.4
				c-0.9-0.5-1.5-0.4-2.3-0.1C89.1,40.8,89.7,40.8,90.5,40.4z"/>
			<path class="st2" d="M121,18.5c0.7,0.2,1.1,0.7,1.4,1.3c-0.7,3.2-3.5,3.8-8.2,5.1c-0.2,0.4-0.3,0.8-0.4,1.2
				c-0.2-0.2-0.4-0.2-0.5-0.4c-0.4-0.7-0.8-1.4-1.2-2.1c0,0,0.2-0.2,0.2-0.2c0.1-0.1,0.2,0,0.3,0c4.3,0,6.1-0.8,8.2-3.5
				c-3.2-0.3-5.4,2.2-8.2,2.8c-1-0.4-1.5-1.2-2.2-2c1.8-2.5,3.9-4.2,7.1-4.2c0.9,0,1-1.1,1.8-1.3c0.3,0.5,1,0.6,1,1.3
				c-0.1,0.4,0.2,0.9-0.4,1.4c-2.9-0.3-5.7,0.2-7.9,2.4c0.5,0.4,0.8,0.8,1.3,1.1c1.3-0.7,2.6-1.2,3.7-2
				C118.2,18.7,119.5,18.3,121,18.5z"/>
			<path class="st2" d="M143.3,15.6c1.1-1.7,2.1-1.1,3.1-1.4c0.9-1.1,2.4-2,3.2-3.5c-0.5-1.1-1.6-0.2-2.2-1c0-0.2,0-0.4,0-0.9
				c1.7-0.4,3.5,0,5.3-0.2c0.3,1.9,2.4,2.4,2.8,4.6c0.6-0.8,1-1.3,1.4-1.8c0.3,0,0.7-0.1,0.9,0.3c0.3,1.1-0.9,1.4-1.4,2.1
				c0.3,0.3,0.7,0.7,1,1c0.8,0.1,1.5,0.1,2.3,0.1c0.2,0.7-0.5,0.7-0.7,1.2c-1.7,0-3.5,0-5.2,0c-0.7-1.5,0.8-1,1.2-1.6
				c-1.5-0.8-3-1.5-4.6-2.3c-0.7,0.8-1.4,1.6-2.2,2.5c0.3,0.7,1.5-0.4,2,0.7C148,15.8,146,15.7,143.3,15.6z M151.4,10.2
				c-0.8,0.3-0.5,0.7-0.6,1.1c0.7,0.3,1.4,0.6,2.4,1.1C152.7,10.9,152.4,10,151.4,10.2z"/>
			<path class="st2" d="M216.1,46.3c0.1,0,0.3,0.1,0.3,0c0.2-0.2,0.4-0.5,0.6-0.7c3.1,0.1,3.7,2.7,4.5,4.6c0.5,1.3,1.1,2.5,1.5,3.8
				c-0.4,0.9-1,1.5-2.1,1.3c0.1-3.2-0.6-6.1-3.1-8.3c0,0-0.2,0.1-0.2,0.2c-0.2,0.2-0.5,0.5-0.7,0.7c0.9,2.6,2.6,4.8,3.4,7.4
				c-0.4,1-1.2,1.5-2.1,2.3c-2.4-2-4.2-4.2-4.2-7.6c-0.3-0.6-1.2,0-1.4-0.9c0.3-1,0.9-1.7,2.1-1.5c-0.3,1.7,0.5,3.2,1,4.7
				c0.5,1.6,0.7,1.6,3.3,3.4c-0.3-2.3-1.3-4.2-2.8-5.8C216.1,48.8,216.1,47.5,216.1,46.3z"/>
			<path class="st2" d="M223.7,81.6c0.1-1.3,1.2-1.9,0.7-3c0.8-0.8,1.7-1.5,2.8-2.4c0.5-0.1,1.5,0.1,1.9-0.8c0.5-1-0.2-2,0.5-2.7
				c0.3,0.3,0.7,0.7,1,1c0.1,1.7,0.2,3.4,0.3,5.2c0,0.2,0.3,0.3,0.5,0.5c-0.3,0.3-0.7,0.6-1,0.9c-1.2-0.4-1-1.5-1.1-2.4
				c-0.5-0.5-1.1-0.3-1.6-0.2c-0.4,0.1-0.7,0.7-1,0.9c-0.8,0.7-0.9,1.7-1.5,2.5c0.5,1.7,1.7,2.8,3,4c0.4,0.2,1,0.1,1.6,0
				c0.7-1-0.2-2.2,0.4-3.3c0.3-0.2,0.7-0.2,1.1,0.2c-0.6,2.1,1.3,4,0.6,6.4c-0.2,0.4-0.6,0.3-0.9,0.3c-0.3-0.2-0.4-0.5-0.4-0.8
				c0-0.3-0.1-0.7-0.1-1.1C227,86.7,225,84.7,223.7,81.6z"/>
			<path class="st2" d="M191,19.5c0.3,1.2,0,2.2-1.6,2.6c-0.7-0.8-0.1-2.5-1.4-2.7c-1-0.2-1.8-0.7-2.7-0.9c-1.6,0.8-1,2.6-2.1,3.6
				c0.8,0.7,1.8,0.8,2.2,1.6c-0.3,0.3-0.7,0.6-1,0.9c-1.5-1.5-4.2-1.3-5.3-3.5c1-1.4,1.6,0.4,2.4,0.2c1.2-1.3,1.6-2,1.9-3.8
				c-1.2-0.6-2.4-1.2-3.5-1.7c-0.7,0-0.9,1.3-2.2,0.2c-0.1-0.1,0.2-0.7,0.1-1.3c0.3-0.3,0.7-0.7,0.8-0.8
				C183.1,15.4,187,17.5,191,19.5z"/>
			<path class="st2" d="M135.8,16.2c-1.1-1.3-0.9-2.6-0.9-3.8c-1.9-0.5-3.4-0.1-4.9,0.9c0.1,0.7-0.1,1.1-1.1,1
				c-0.1-0.9-1.2-1.4-1-2.6c4.6-0.5,8.9-2.2,13.5-2.3c0.4,0.6,1.1,0.8,1,1.5c0,0.7-0.7,0.8-1,1.3c-0.5-0.2-0.3-0.7-0.5-1.1
				c-1.6-1-2.9,0.7-4.6,0.4c0,1.1,0,2.2,0,3.1c0.7,1.7,2.3,0.5,3.3,1.3c0,0.3,0,0.5,0,1c-2.3,0-4.3,1.5-6.8,0.6
				C133.4,16.4,134.3,16.2,135.8,16.2z"/>
			<path class="st2" d="M74.9,76.8c-2.2-0.4-3.5-1.6-3.9-3.9c0.4-1.7,1.7-3.4,1.4-5.5c0.8-0.8,1.6-1.5,2.6-2.4
				c2.2-0.2,3.9,0.7,4.9,2.9c0.2,0.5,0.3,1.1,0.2,1.3c-0.9,1-0.6,2.3-0.9,3.4C78.5,74.8,77.2,76.2,74.9,76.8z M75.4,75.6
				c0.7-0.7,1.3-1.3,1.8-1.8c-0.1-2,1.4-3.4,1.4-5.3c-1.5-1.6-1.5-1.6-2.6-2c-0.8,0.7-1.4,1.3-2.3,2.2c-0.7,1.5-0.8,3.6-0.5,5.8
				C73.8,74.8,74.5,75.1,75.4,75.6z"/>
			<path class="st2" d="M220.8,126.9c-2.4-0.4-3.5-1.7-4-4c0.4-1.4,1.3-2.7,1.7-4.3c0.6-2.1,2.3-3.4,4.8-3.7
				c1.4,1.1,2.7,2.4,3.3,4.3c-0.7,1.6-1.7,2.9-2.1,4.7C224,125.8,222.2,126.1,220.8,126.9z M224.3,120.9c0-1.3,0-2.5,0-3.8
				c-1,0.2-1.3-0.9-2.2-0.8c-2.3,1.5-2.6,4.2-3.7,5.7c-0.4,1,0.1,1.1,0.2,1.4c0.2,0.4,0.3,0.8,0.4,1.2c0.9-0.3,1.3,1,2.1,0.8
				C223,124.3,223.4,122.4,224.3,120.9z"/>
			<path class="st2" d="M164.8,15.8c0.7,0.2,1.4,0.9,2.4,0.5c0.2-1,0.5-2.2,1-2.9c-0.3-1.3-0.9-2-2-1.8c-0.9,0.1-1.7-0.3-2.2-0.7
				c-1.2,0.1-0.5,1.7-1.8,1.4c-0.9-1.1-0.3-2,0.7-2.8c2.2,0,4.1,1.2,6.3,1.5c2.1,0.3,4.2,1,6.4,1.5c0.4,0.7,0.1,1.5,0.2,2.3
				c-0.3,0.4-1,0.5-1.1,0.2c-0.7-1.5-1.8-2-3.3-1.9c-0.4,0-0.9,0-1.7,0c0.4,1.4-1.3,2.4-0.7,3.9c0.5,0.6,1.4-0.2,1.9,0.5
				c0,0.2,0.1,0.4,0.1,0.7c-0.2,0.2-0.3,0.4-0.4,0.5c-1.7,0.3-3.2-0.9-4.8-0.9C165.3,17.6,164.5,16.9,164.8,15.8z"/>
			<path class="st2" d="M201.5,30c-0.8,0.8-1.6,1.6-2.6,2.6c-3.6-0.2-6-2.8-8.5-5.3c0-0.6,0-1.3,0-2.1c0.8-0.7,1.6-1.4,2.7-2.4
				c0.7,0,1.8,0,3.2,0c1.3,1.8,3.8,2.5,5.2,4.6C201.5,28.1,201.5,29,201.5,30z M192.7,24.1c0.1,0.9-1.1,1.4-0.9,2.4
				c1.9,1.8,3.6,3.9,6.5,4.6c0.8-1,2.3-1.6,1.8-3.2c-1.3-1.8-3.2-2.6-4.6-3.9C194.5,24.1,193.7,24.1,192.7,24.1z"/>
			<path class="st2" d="M212,38c-0.8,1.3-1.3,2.6-2.6,3.3c-4,0.8-5.8-2.2-7.7-5.2c-0.2-2.3-0.2-2.3,0.6-4.2c1.2-0.6,2.4-1.5,3.7-0.9
				c1.8,0.9,3.6,2.2,4.6,4.2C210.9,36.1,211.5,37,212,38z M206,32.4c-0.7,0-1.4,0-2.1,0c-0.3,0.3-0.7,0.7-1,1c0,1,0,2,0,2.9
				c1.3,1.3,2.5,2.5,3.8,3.8c0.7,0,1.4,0,1.3,0c1.2-0.8,2-1.3,2.6-1.6C209.8,35.5,207.6,34.2,206,32.4z"/>
			<path class="st2" d="M223.1,105.7c0.7,0.7,1,1,1.2,1.2c-0.3,0.8-0.9,1.5-0.4,2.4c1,0.5,2.6-0.6,3.1,0.9c1.3-0.5,1-2.6,2.8-2.1
				c-0.4,2.1-1.3,4-1.3,6.1c-0.5,0.1-0.7,0.1-0.9,0.1c-0.8-0.7-0.1-1.7-0.5-2.5c-1.2-0.5-2.3-1.4-3.9-0.8c-0.4,0.7-1.1,1.4-2.4,2
				C221.6,110.5,222.4,108.2,223.1,105.7z"/>
			<path class="st2" d="M214.6,130.3c0,0-17.2,34.5-62.7,34.5S86,129.5,86,129.5V129c0,0,20.4,35.3,65.9,35.3s62.7-34.5,62.7-34.5
				V130.3z"/>
			<polygon class="st2" points="85.5,133.1 85.9,134 86.9,134.2 86.2,134.9 86.4,135.9 85.5,135.4 84.6,135.9 84.8,134.9 84,134.2 
				85,134 			"/>
			<polygon class="st2" points="94.6,144 95,144.9 96,145 95.3,145.8 95.5,146.7 94.6,146.2 93.7,146.7 93.9,145.8 93.1,145 
				94.1,144.9 			"/>
			<polygon class="st2" points="105.3,152.8 105.8,153.7 106.7,153.9 106,154.6 106.2,155.5 105.3,155.1 104.4,155.5 104.6,154.6 
				103.9,153.9 104.8,153.7 			"/>
			<polygon class="st2" points="117.4,159.8 117.9,160.7 118.9,160.8 118.2,161.5 118.4,162.5 117.4,162.1 116.6,162.5 116.7,161.5 
				116,160.8 117,160.7 			"/>
			<polygon class="st2" points="130.8,164.9 131.3,165.8 132.2,166 131.5,166.7 131.7,167.7 130.8,167.2 129.9,167.7 130.1,166.7 
				129.3,166 130.4,165.8 			"/>
			<polygon class="st2" points="144.7,167.3 145.2,168.2 146.1,168.3 145.4,169 145.6,170 144.7,169.5 143.9,170 144,169 
				143.3,168.3 144.3,168.2 			"/>
			<polygon class="st2" points="158.8,166.8 159.2,167.7 160.2,167.8 159.5,168.5 159.6,169.5 158.8,169.1 157.9,169.5 158,168.5 
				157.3,167.8 158.3,167.7 			"/>
			<polygon class="st2" points="173,164.7 173.4,165.5 174.4,165.7 173.7,166.4 173.9,167.4 173,166.9 172.1,167.4 172.3,166.4 
				171.6,165.7 172.6,165.5 			"/>
			<polygon class="st2" points="185.9,159 186.3,159.9 187.3,160.1 186.6,160.7 186.7,161.7 185.9,161.2 185,161.7 185.2,160.7 
				184.5,160.1 185.4,159.9 			"/>
			<polygon class="st2" points="198,151.4 198.5,152.3 199.5,152.4 198.8,153.1 198.9,154.1 198,153.6 197.1,154.1 197.3,153.1 
				196.6,152.4 197.6,152.3 			"/>
			<polygon class="st2" points="208.5,142.2 209,143.1 210,143.2 209.3,143.9 209.4,144.9 208.5,144.5 207.6,144.9 207.8,143.9 
				207.1,143.2 208.1,143.1 			"/>
			<polygon class="st2" points="217.1,131.1 217.6,132 218.5,132.1 217.8,132.8 218,133.8 217.1,133.4 216.2,133.8 216.4,132.8 
				215.7,132.1 216.6,132 			"/>
		</g>
	</g>
</g>
</svg>
