<svg id="Слой_1" xmlns="http://www.w3.org/2000/svg" viewBox="0 0 300 300">
  <style>
    .st0{fill:#340306;} .st1{fill:#DDDDDE;} .st2{fill:#FFFFFF;} .st3{fill:#7B8188;} .st4{fill:#7C8086;} .st5{fill:#7B8084;} .st6{fill:#7E8083;} .st7{fill:#CACACB;} .st8{fill:#7C7D82;} .st9{fill:#DEDEDE;} .st10{fill:#D5D5D5;} .st11{fill:#414141;} .st12{fill:#C9C9CD;} .st13{fill:#7B7B81;} .st14{fill:#7D7F83;} .st15{fill:#CCCCCD;} .st16{fill:#818387;} .st17{fill:#AEAEAF;} .st18{fill:#969597;} .st19{fill:#3D3D3F;} .st20{fill:#848386;} .st21{fill:#B7B7B8;} .st22{fill:#D1D1D1;} .st23{fill:#9B9B9D;} .st24{fill:#333333;} .st25{fill:#BCBCBF;} .st26{fill:#393A39;} .st27{fill:#C4C3C5;} .st28{fill:#767878;} .st29{fill:#7C7B80;} .st30{fill:#D8D8DA;} .st31{fill:#29292A;} .st32{fill:#393839;} .st33{fill:#313031;} .st34{fill:#ACACAD;} .st35{fill:#2A2A2B;} .st36{fill:#76767A;} .st37{fill:#727176;} .st38{fill:#CCCCCE;} .st39{fill:#C4C4C6;} .st40{fill:#C3C3C5;} .st41{fill:#CACBCE;} .st42{fill:#424244;} .st43{fill:#798189;} .st44{fill:#161517;} .st45{fill:#9B9AA1;} .st46{fill:#2D2E30;} .st47{fill:#363537;} .st48{fill:#363638;} .st49{fill:#3D3E3E;} .st50{fill:#7B7D81;} .st51{fill:#8F8F91;} .st52{fill:#ADADAD;} .st53{fill:#9F9F9F;} .st54{fill:#9F9EA0;} .st55{fill:#ABABAC;} .st56{fill:#A4A4A6;} .st57{fill:#7C8286;} .st58{fill:#7D8287;} .st59{fill:#989897;} .st60{fill:#939494;} .st61{fill:#262625;} .st62{fill:#949293;} .st63{fill:#7B7B7B;} .st64{fill:#D1D0D4;} .st65{fill:#DFE1E8;} .st66{fill:#7E8084;} .st67{fill:#DDDDE2;} .st68{fill:#B6B5B7;} .st69{fill:#C6C5C7;} .st70{fill:#C3C4C6;} .st71{fill:#C7C8CA;} .st72{fill:#B1B1B3;} .st73{fill:#AEAEB0;} .st74{fill:#C3C2C4;} .st75{fill:#424143;} .st76{fill:#D7D8D8;} .st77{fill:#78787B;} .st78{fill:#B2B1B2;} .st79{fill:#050406;} .st80{fill:#080809;} .st81{fill:#BABBBD;} .st82{fill:#292829;} .st83{fill:#B3B3B3;} .st84{fill:#D1D2D4;} .st85{fill:#ACABAD;} .st86{fill:#151517;} .st87{fill:#1B1A1D;} .st88{fill:#272728;} .st89{fill:#FF0000;} .st90{fill:#39393A;} .st91{fill:#7A797E;} .st92{fill:#AAAAAA;} .st93{fill:#9F9FA0;} .st94{fill:#ACACAB;} .st95{fill:#B0AFB1;} .st96{fill:#B9B9B9;} .st97{fill:#B0B0B2;} .st98{fill:#333336;} .st99{fill:#393939;} .st100{fill:#3E3E3E;} .st101{fill:#2F2F2F;} .st102{fill:#BCBCBB;} .st103{fill:#313130;} .st104{fill:#343434;} .st105{fill:#7D7C7F;} .st106{fill:#B8B8B7;} .st107{fill:#2D2D2C;} .st108{fill:#2A2B2A;} .st109{fill:#323232;} .st110{fill:#BABABA;} .st111{fill:#2F2F2E;} .st112{fill:#3F3F3F;} .st113{fill:#B6B6B6;} .st114{fill:#3B3B3C;} .st115{fill:#2C2B2C;} .st116{fill:#2B2B2A;} .st117{fill:#404040;} .st118{fill:#262527;} .st119{fill:#060608;} .st120{fill:#242424;} .st121{fill:#363635;} .st122{fill:#313131;} .st123{fill:#303030;} .st124{fill:#303031;} .st125{fill:#3A3A3A;} .st126{fill:#7C7F84;} .st127{fill:#C9CACB;} .st128{fill:#B5B5B7;} .st129{fill:#B2B2B3;} .st130{fill:#ADADAE;} .st131{fill:#BFBFC1;} .st132{fill:#28282A;} .st133{fill:#161618;} .st134{fill:#616265;} .st135{fill:#898989;} .st136{fill:#5D5E62;} .st137{fill:#232327;} .st138{fill:#77777B;} .st139{fill:#BCBCBD;} .st140{fill:#B8B8B9;} .st141{fill:#353434;} .st142{fill:#A3A2A4;} .st143{fill:#99999A;} .st144{fill:#C2C2C4;} .st145{fill:#727478;} .st146{fill:#78777A;} .st147{fill:#CBCBCD;} .st148{fill:#414142;} .st149{fill:#B4B4B6;} .st150{fill:#B4B4B3;} .st151{fill:#C5C5C7;} .st152{fill:#959595;} .st153{fill:#737374;} .st154{fill:#A1A1A2;} .st155{fill:#333332;} .st156{fill:#3D3D3E;} .st157{fill:#2E2E2E;} .st158{fill:#242425;} .st159{fill:#2A292B;} .st160{fill:#272727;} .st161{fill:#323234;} .st162{fill:#4C4C54;} .st163{fill:#161616;} .st164{fill:#C2C2C2;} .st165{fill:#222224;} .st166{fill:#C3C3C3;} .st167{fill:#222122;} .st168{fill:#1C1C1C;} .st169{fill:#171718;}
  </style>
  <path class="st0" d="M241 90.7c0-50-40.5-90.5-90.5-90.5S60 40.7 60 90.7c0 59.8 84.7 199.5 90.4 208.7 4-1.9 90.6-148.2 90.6-208.7z"/>
  <path class="st1" d="M166.7 37.4l-17.1-8.1-3.5.2-5.3.4-1.1 4.8-.9 1 1 1.6-1.1 5.4-2.1.8-1.8 7.1-2.4.4-2.3 7.6-.8 1.7s1.3 2.4 2.2 2.6c.9.1 3.3.9 3.3.9l4.8-.9 1-1.1 3.8-.8 17.8 4.7 5.1-2.4 1.3-4.7-2.7-1.3 3.2-12.8 5.3-1.3.8-3-8.5-2.8zm-23.7 8l-.3.1-2.2-2.1 1.4-5.7 2.9-1.3-1.8 9zm12.5 5.2l-.9 3.4-1.1.1-.9-.7 2.3-11.1.8-1 1.1.3.1.9-1.4 8.1z"/>
  <path class="st2" d="M105.2 110.1c1.5.6 3.2.7 4.8.6 1.7-.2 3.5-.6 5.2-1.1.8-.2 1.6-.5 2.3-.8 2-.8 3.6-2 5.8-2.1-.3-.3-1.3-.2-1.7-.3-.7-.1-1.4-.2-2-.3-1.4-.3-2.7-.6-3.9-1.3-1.7-.9-3.1-2.2-4.7-3.3-.8-.5-1.7-1-2.7-1.3-1.6-.4-3.2.1-4.3 1.3-.2.2-.4.3-.5.5-1 1.3-1.8 2.9-1.4 4.6.1.5.3.9.6 1.4.2.4.4.8.8 1.1.4.3.8.6 1.3.8.1.1.3.1.4.2zm2.9-8.3c.3.2.5.3.8.6.4.4.7.9 1 1.4.2.3.3.5.3.9-.7 0-1.5-.3-2.2-.6-.8-.3-2.7-1.1-1.5-2.2.3-.2.6-.3 1-.3.2 0 .4.1.6.2zM112.7 111.9c.1-.1.1-.2.1-.2-.3.4-1.5.5-2.1.7-.8.3-1.5.7-2.2 1-.4.2-.7.5-1.1.7-.4.2-.9.4-1.4.7-.8.5-1.6 1.1-2.1 2-.2.3-.3.6-.5.9-.5.9-1.2 1.7-1.7 2.6-.5.7-.9 1.5-.8 2.4.1.4.2.7.4 1 .2.3.4.7.7.9.3.2.5.3.9.4.7.2 1.4.4 2 .2.7-.2 1.5-.5 1.8-1.1.4-.7.5-1.7.6-2.5 0-.4-.1-.9-.1-1.4 0-1.5.5-3 1.4-4.3.9-1.3 2-2.3 3.3-3.2.2-.3.7-.5.8-.8zm-8.2 10.1c-.2.3-.5 1-.9 1.1-.2 0-.3-.1-.5-.1-.3-.1-.6-.2-.8-.5-.1-.2-.1-.5-.1-.8.1-.3.2-.5.4-.7.3-.4.7-.8 1-1.3.3-.3.5-1 .8-1.3.5-.4.4.8.4 1.1-.1.7-.1 1.4-.3 2.1.1.2.1.3 0 .4zM119.8 99.9c.2.2.4.4.5.8-.3-1.8-.6-3.5-1-5.3-.1-.2-.1-.4-.2-.7-.6-1.3-2.1-.4-2.7.4-.1.1-.1.2-.1.2-.1.1-.1.3-.1.4 0 .3 0 .5.1.7.2.8.8 1.3 1.5 1.8.6.4 1.1 1 1.6 1.4.3.2.3.2.4.3zM170.4 62.9c.6.4 1.5.6 2.2.8.5.1.9.2 1.4.3.2.1.3.1.4.1.8.3 1.5 1 1.8 1.8.2.4.2.8.6 1.1.3.3.8.4 1.2.5.7.1 1.4-.3 1.7-.8.6-.9.2-1.8-.4-2.6l-.5-.5c-.3-.2-.5-.4-.8-.7-.2-.2-.4-.3-.6-.4l-.6-.3c-.6-.2-1.2-.2-1.8-.4-.6-.1-1.2-.1-1.8-.1-.5.1-1.1.2-1.6.3l-.9.3c-.1.1-.3.1-.4.2-.1.3-.1.3.1.4zM171.7 60.8h.4c.4-.1.8-.1 1.1-.2.7-.2 1.4-.3 2.1-.4l1.2-.3c.4-.2.8-.5 1-.8.3-.4.5-.9.4-1.3-.1-.4-.4-.7-.8-.9-.5-.3-1.1-.5-1.6-.4-.4.1-.7.3-1 .4-1.3.8-2.1 1.9-2.8 3.3-.1.2-.3.4-.3.6-.1.1.1 0 .3 0zM132.9 98.3c.4.9 1.1 1.5 1.9 1.8 1 .4 2.1.5 3.2.5 2.1.1 4.2-.4 6.2-1.2.7-.3 1.3-.6 2-.7.6-.1.8.3 1.3.7.1.1.1.1.2.1.7.5 1.3.9 2.1 1.1.7.2 1.5 0 2.2-.2 1.5-.4 2.7-1.3 3.6-2.4.5-.6.9-1.3.7-2.1 0-.1 0-.2-.1-.3 0-.2-.7-.5-.9-.7-.3-.2-.6-.3-.9-.4-.8-.2-1.6-.3-2.4-.2-.4.1-.7.2-1.1.3l-.9.3c-.1-.3-.1-.8.1-1.1.6-1.6 1.1-3.2 1.6-4.7.4-1.1.7-2.3 1.1-3.4.4-1 .8-2.1 1.1-3.1.4-1 .7-2.1 1.1-3.1.7-1.7 1-3.4 1.7-5.2.1-.4.3-.6.6-.8 1.2-.7 2.4-1.4 3.5-2.1 1.4-.8 2.7-1.5 4-2.3.9-.5 1.8-1.1 2.9-1.4.3-.1.8-.2 1 0 .2.2.3.4.3.7.1.4.1.8.1 1.1 0 .5-.3.9-.2 1.4.1.5.4.9.8 1.1.9.6 1.6.2 2.2-.3.8-.5 1.2-1.4 1.6-2.3.3-.9-.2-1.7-.2-2.6-.1-.3-.3-.8-.5-1-1-1-2.1-1.5-3.5-1.5-.7-.1-1.4.1-2 .2-.9.1-1.8.4-2.7.8-1.8.9-3.8 1.7-5.4 2.9-.5.4-1 .7-1.5 1-.1.1-.3.2-.4.2-.2.1-.4.2-.5.1.2-1.1-.4-2.7-1.5-3.2-.3-.1-.7-.2-1-.2-1.4 0-2.8.8-4 1.5-1.3.8-2.3 1.8-3.6 2.7-1.7 1.3-3.1 2.9-4.6 4.4-1.1 1.1-.9 2.2.3 3.2.4.3 1 .5 1.5.5 1.2.1 2.3-.2 3.5-.5 1.8-.5 3.6-1.1 5.3-2 0 .1.1.2.1.2-.3 1-.5 2-.8 2.9-.3 1.3-.8 2.4-1.3 3.6-.5 1.5-1.1 3-1.6 4.6-.6 1.8-1.1 3.6-1.6 5.5-.1.5-.1 1.1-.3 1.7-.2.7-.7.8-1.4 1-1.4.4-2.8.8-4.3 1.2-1.3.4-2.7.7-4 .5-.8-.2-1.4-.5-2.2-.7-.7-.2-1.4-.3-2.2-.1-.3.1-1.1.5-.8.9.4.7.5.9.6 1.1zm14-22.9c-.1-.3.1-.4.3-.6 1.4-1.5 3-2.7 4.6-4 .4-.3.9-.4 1.3-.7.4-.2.9.2 1 .7.1.3 0 .5 0 .9-2.1 1.9-4.7 2.7-7.2 3.7zm2.9 22.4c.1-.1.2-.1.3-.2.1-.1.3-.1.6-.2.5-.1 1.1-.2 1.2.1.2.4-1 .9-1.3.9-.4.1-1.5 0-.8-.6zM202.8 110.5c-.3-.7-.7-1.3-1.3-1.6-.8-.6-1.8-.9-2.9-.9-1-.1-1.9 0-2.9.2-.9.2-1.7.3-2.6.6-1.8.6-3.7 1.1-5.5 1.7-.8.3-1.7.4-2.6 1.1.7 0 1.3.1 1.8 0 1.8-.2 3.8.2 5.5.4 1.8.2 3.7.4 5.4 1.1.3.1.5.2.8.3.3.1.7.1 1 .1 1 0 2.2-.2 2.8-1 .8-.6.8-1.4.5-2zm-1.8-.2c-.2 0-.4.2-.6.2-.2.1-.4-.1-.7-.1-.1 0-.1-.1-.2-.1-.9-.3-1.8-.3-2.7-.1-.7.1-1.6.4-2.2.1.2-.2.5-.4.8-.4 1.3-.3 2.6-.7 4-.6.5.1.9.3 1.4.5.1 0 .1 0 .1.1v.1c.1 0 .1.2.1.3zM183.9 108.7c1.5-.1 3-.7 4.3-1.2 2.6-1 4.9-2.5 6.6-4.8.5-.8.9-1.9.8-2.8-.1-.6-.5-1.2-1-1.4-1-.5-2.3.2-3 .9-.4.4-.7.8-.9 1.3-.5 1.3-1.4 2.4-2.4 3.4l-2 2c-.2.2-.4.4-.7.6-1 .7-1.9 1.4-2.9 2.1.5.5.8-.1 1.2-.1zm7.7-5.9c.4-.7.6-1.4 1.2-2.1s.7-.7 1.5-.4c.2.6 0 1-.5 1.5-.7.7-1.4 1.4-2.2 1.8-.2-.3-.2-.6 0-.8zM166.6 106.2c-.9 0-1.6-.1-2.1.8-.4.8-.5 1.7-1 2.4-.3.4-.7 1-1.1 1.4-.2.2-.9.9-1.3.9.9-.1 1.8-.2 2.7-.5 1.2-.4 2.3-1 3.1-2.1.3-.5.6-1.1.6-1.7 0-.4-.3-.9-.8-1.2h-.1zm0 1.8c-.1.3-.4.6-.5.8-.2.2-.3.3-.4.3-.1-.1-.1-.3 0-.7.1-.3.1-.5.2-.8.3-.8.8-.2.7.4zM133.4 114.7c.5-1.6 1.3-3.4.5-4.9-.5-1-.1-1.1.8-1.3.9-.2 1.9-.4 2.8-.6 5.8-1.1 11.6-1.6 17.4-1.9.4 0 .9-.1 1.3-.1.5 0 1 .2 1.5.2 1 .1 2 0 3-.2.2-.1.4-.1.6-.2.2-.1.3-.3.5-.4.6-.7 1.3-1.3 1.5-2.2.2-.9 0-1.9-.8-2.3-.6-.3-1.3-.3-2-.2-.6.1-1.3.1-1.8.2-.6.1-25.2 4-26 4.2-1.6.3-3.2.9-4.7 1.3-1.1.3-2.1.8-3.2 1.2-1.1.4-2.2.8-3.3 1.4-1 .5-2 1-2.9 1.6-2.4 1.5-4.7 3.2-6.5 5.5-.9 1.3-1.7 2.5-2.2 4-.3.9-.7 2-.4 2.9.2.7.2 1.3.5 1.9.3.6.5 1.3.8 1.8.3.6.8 1.1 1.1 1.7.7 1.2 1.8 1.7 2.8 2.4.5.3 1.1.6 1.6.8.6.3 1.3.3 1.9.5 1.5.4 2.6-.1 3.3-1.4.4-.7.3-1.4.3-2.1 0-.8-.5-1.2-1.1-.9-1.3.6-2.6.2-3.8-.1-.7-.1-1.3-.4-1.9-.9-1-.7-1.7-1.5-2.6-2.4-.7-.7-1-1.6-1.1-2.5-.2-.9.3-1.7.7-2.4 1-2 1.8-2.6 3.9-4 1.3-.9 2.8-1.6 4.2-2.3 1.1-.5 2.2-1 3.4-1.4 1.4-.5 2.8-.9 4.2-1.3 1.2-.4 2-.6 1.5 1.1-.8 3.1-1.3 6.3-1.8 9.4-.9 6-1.8 12.1-2.8 18.2-.6 3.9-1.2 7.9-1.5 11.9 0 .3-.1.7.1.9.2.5.9.7 1.4.5 1.3-.4 1.4-2.2 1.5-3.3.3-1.4.5-2.8.8-4.2.5-2.8 1.1-5.5 1.6-8.3.1-.4.2-.9.3-1.3 1-5.2 2-10.3 3-15.5.7-1.8 1-3.4 1.6-5z"/>
  <path class="st2" d="M200.3 123.9c-.3-.5-.8-.8-1.2-1.1s-1 .2-1.2.5c-.3.4-.4.8-.4 1.3-.1.7-.3 1.4-.3 2 0 .9-.7 1.5-.7 2.3-1 1.5-2.1 3-3.4 4.3-.7.7-1.4.8-2.3.5.8-1.1 1.4-2.2 1.9-3.3 1-2.3 1.4-4.9 1.3-7.4-.1-.8-.1-1.7-.4-2.5-.4-1.4-1.4-2.6-2.4-3.6-.9-1-2.2-1.5-3.5-1.5h-1.8c.2-.9-.1-1.4-.8-1.7-1 .1-1.8-.1-2.8.5-1.6 1-2.2 2.2-1.5 3.8.2.5.5 1 1.2 1 .3 0 .5-.2.8.2.1.6-.3 1-.3 1.6-.1 1-.5 2.1-.7 3.1-.3 1.5-.7 3-.9 4.6-.1.7-.2 1.2-.5 1.8-.2.2-.4.5-.4.8 0 .7-.4 1.2-.9 1.5-.4.2-.8.4-1.3.4-.5.1-.7-.1-.5-.6.3-1 .5-2 .7-2.9.4-1.9.7-3.9.9-5.9.1-.3.1-.7.1-1 0-.6-.1-1.2-.3-1.7-.2-.7-.4-1.4-.7-2.1-.3-.6-.6-1.1-1.3-1.2-.6-.1-1.2-.1-1.8.1-.5.2-1 .4-1.4.8l-.6.6c-.2.2-.3.5-.4.7-.5.4-.8-.5-1.2-.2-.8.5-1.5.9-1.8 2-.4 1.4-.9 2.7-1.3 4-.3 1.3-.7 2.6-.7 3.9-.1 1.4-.1 2.8-.1 4.2 0 .3 0 .5.2.8-.4.2-.6.5-1 .7-.2.1-.5 0-.7 0-.4-.1-.7-.1-.5-.4.1-.5.4-1 .5-1.5.2-.5.3-1 .4-1.5.3-1 .4-2 .6-3 .3-2.1.2-4.1-.2-6.2-.1-.3-.1-.5-.2-.8-.5-1.6-2-2.4-3.6-1.6-.5.2-.9.5-1.4.9-.4.3-.5.9-1 1.1h-.7c-.9-.1-1.5.4-1.9 1.2-1 2-1.6 4.1-2 6.3-.3 1.5-.4 3.1-.4 4.7.1 1.3.3 2.5.7 3.7.3 1 0 2.2-.8 2.6-.3.2-.7.4-1.1.5-.8.1-2.1.7-2.6-.4-.1-.3-.1-.7 0-1 .7-4.1 1.5-8.2 2.4-12.2.5-2 1-4 1.6-6l.9-3c.2-.8.3-2 1.2-2 .3 0 .7.1 1-.1 1.5-.7 3.2-.7 4.8-1 1.4-.3 2.7-.5 4-.9 1.5-.5 2.9-.9 4.3-1.6.6-.3.8-.8.9-1.3.2-1.3.2-2.6-1.1-3.5-.2-.1-.3-.3-.4-.4-.5-.5-2 .2-2.3.5-.3.3-.4.7-.7.9-.3.3-.8.5-1.1.8-.3.3-.7.6-1 .9-1 .8-2.2 1.2-3.4 1.6-1.7.5-3.4 1-5.2 1-.8 0-1.1-.2-1.7-.4-1-.4-1.1.5-1.9.8-.4.2-1.1.1-1.5.1-.5.1-1 .1-1.6.2-2.2.2-4.4.6-6.6 1.1-1.4.3-2.2.8-3.2 1.8-.8.9-1.4 2-1.7 3.1-.5 1.5-.4 2.9 1.1 4 .2.1.6-.2 1 .2-.6.7-.6 1.6-1.1 2.3-.5-.5-1.1-.5-1.6-.8-1.4-.5-3.3-.8-4.6.3-1.2 1-2 2.3-2.6 3.7-1.6 3.5-2.3 7.3-2.1 11.1 0 .4.1.9.2 1.3 1 2.6 3.5 4.9 6.3 3 .7-.5 1.1-1.1 1.8-1.6.1.4.3.7.7.9.7.3 2.2.4 2.9.1.9-.3 1.6-.9 2.3-1.5 1 .8 2.3.5 3.4.5.8-.6 1.8-.8 2.6-1.4.3-.3.6-.3 1-.1 1.4.8 2.7.4 4-.3 1-.5 2-1.1 2.8-2 .9.7 1.7 1.1 2.8.8.8-.2 1.5-.7 2.1-1.2 1.1-1 1.8-2.2 2.4-3.6 1.1.2 2.2-.1 3.2-.6.2.3.3.4.4.6.4.9 1.1 1.8 2.1 2.1 1.1.4 2.1.3 3.1-.3.9-.6 1.5-1.5 2.1-2.5.4-.8.7-1.5 1.5-1.9.9.1 1.9-.1 2.9-.5 0 .6.2 1.3-.1 1.7-.3.6-.1 1 .2 1.4.3 0 .5.1.8-.2.5-.5.9-1.2 1-1.8.1-.5.3-1 .5-1.5.3-1 .4-2.1.6-3.1.2-1.1.5-2.1.8-3.2.5-2.1 1-4.2 1.4-6.3.1-.5.2-1.5.7-1.8-.1.3 1.1.4 1.3.4.5.2 1 .4 1.5.7.9.6 1.7 1.4 2.1 2.4.3.7.5 1.5.7 2.3.1.4.2.9.3 1.3.2 1.7-.4 3.7-1.2 5.1-.1.2-.3.5-.4.7-.1.1-.3.5-.4.5-.3.1-.2-.2-.3-.4-.1-.5-.3-1-.7-1.5-.7-.9-1.9-.9-2.8-.5-1.3.4-1.8 1.3-2.2 2.4-.3.8-.4 1.6-.1 2.3.2.7.8 1.4 1.5 1.6.2.1.3.1.5.1.1.1.2.1.3.1.2 0 .3.1.5.1.9 0 1.7-.1 2.4-.7.4-.4 1-.3 1.4-.1.5.3 1.3.3 1.8.3.7.1 1.4-.1 2.1-.3 1.7-.7 3.3-2 4.3-3.3 1.1-1.4 1.9-3 2.2-4.7.1-.3.1-.6.1-.9 0-.5.1-1-.1-1.5-.3-.2-.4-.3-.5-.5zm-62.9 16.8c-.2.8-.5 1.7-1.1 2.4-.4.5-1.1 1-1.7 1.3-.5.2-1 .3-1.5.1-.4-.2-.8-.7-1-1.1-1-2-.8-4.4-.3-6.6.4-1.8 1-3.6 1.9-5.3.2-.3.3-.7.6-1 1-1.3 2.8-1.5 4.3-1.5.3 0 .5 0 .8-.1.3-.2.3-.6.7-.6.1.3.1.7 0 1.1-.1.7-.3 1.4-.5 2-.1.2-.1.4-.2.5-.9 2.8-1.1 5.9-2 8.8zm6.6-9.4c-.5 2.4-.9 4.8-1.2 7.2-.1 1.3-.1 2.4-.2 3.7-.1.7-.9 1.4-1.5 1.7-.5.2-1.1.2-1.4-.3-.3-.4-.3-.9-.2-1.4.3-2.2.8-4.3 1.4-6.5s1.1-4.2 1.6-6.3c.4-1.6 1.4-3.4-.1-4.7-.2-.2-.4-.4-.7-.6.8-.2 1.1-.4 1.5-.9.3-.4.6-.9.3-1.5-.2-.4-.5-.9-.3-1.4.2-.4.4-.9.7-1.3.1-.2 2.2-.7 2.5-.6.7.2 0 2.2-.1 2.7-.7 3-1.4 6-2 9-.2.5-.2.9-.3 1.2zm6.5.4c-.4 2.4-.8 4.8-1 7.2-.1 1.1.2 2.2-.8 2.9-.8.5-3.1 1.5-3.6.2-.2-.4-.1-.9 0-1.3 1.1-6.4 2.6-12.8 4.4-19 .2-.5.3-1 .4-1.4.2-.7.4-1.3.5-2 .1-.7.4-.8 1.1-.7.3.1.5-.3.8-.3.6-.1.8-.1.8.4.1.6-.3 1.4-.4 2-.3 1.3-.5 2.7-.8 4-.2 1-.4 2.1-.6 3.1-.3 1.6-.5 3.2-.8 4.9zM163 136c-.2.5-.7 1.1-.8 1.5-.3.5-.6 1.1-1.1 1.5-.4.4-1.1.7-1.7.5-.5-.1-.9-.5-1.1-.9-.7-1-.9-2.2-.9-3.4-.1-2.6.7-5.2 1.4-7.7.1-.2.2-1 .4-.9.2.1.2.8.2 1 .1.6.2 1.3.3 1.8.2 1.5.8 3 1.6 4.2.4.5.6 1.2 1.4 1.4.5.2.5.5.3 1zm1.5-5.7c-.1 1.1-.3 2.3-.5 3.4-.1.3-.1.8-.5.8-.4-.1-.9-.7-1.1-1-.4-.5-.6-1-.8-1.6-.1-.2-.2-.5-.2-.7-.1-.2-.1-.4-.1-.7-.1-1.3 0-2.6.3-3.8.2-.9.5-1.8 1.1-2.6.2-.3.4-.8.9-.7.3.1.6.4.8.7.2.4.3.8.3 1.3 0 1.7 0 3.3-.2 4.9zm10.1 4c-.3.5-.6 1.1-1 1.6l-.2.2c-.5.5-1.3.8-2 .8-.8 0-1.4-.5-1.8-1.2-.2-.3-.3-.6-.4-.9-.3-1-.3-2.1-.2-3.2.1-1.4.4-2.7.8-4.1.2-.7.4-1.3.7-1.9.1-.3.5-1.6.9-1.6.2.9.2 1.8.4 2.7.2.8.3 1.6.6 2.4.4 1.1.9 2.1 1.6 3 .3.4.8.5 1 .8.2.4-.2 1-.4 1.4zm2-8.2c0 .4 0 .9-.1 1.4 0 .3-.1.5-.1.8-.1.7-.2 1.3-.4 1.9-.1.4-.3.9-.4 1.4-.1.1-.1.5-.2.6-.1.1-.4-.3-.5-.3-1.1-.9-1.5-2.3-1.6-3.6-.2-1.4.2-2.7.3-4 .1-.7.4-1.4.5-2.1.1-.3.4-.8.8-.9.4-.1.9.4 1.1.7.4.6.6 1.3.7 2.1 0 .6-.1 1.3-.1 2zm7.4-9.9c-.2-.4-.2-.8 0-1.3.1.5.1.9 0 1.3zm3.7 17.4c-1.3.9-2.3-.2-2.5-1.2-.1-.6-.1-1.1.4-1.6s.9-.5 1.5-.5c.8.7.7 1.9 1.3 2.7-.2.3-.5.5-.7.6zm12-5.5c-.2.4-.3.7-.5 1.1-.2.4-.3.9-.6 1.2-.5.5-.7 1.4-1.4 1.7 0-.7.6-1.3.9-1.9.5-.9 1-2 1.2-3 .2-1 .2-2 .2-3.1.4.4.6.9.7 1.5.1.8-.2 1.7-.5 2.5z"/>
  <path class="st3" d="M129.2 62.4c0-.2.1-.3 0-.4-.4-1.1-.3-1.5.8-1.8.2-.1.5-.2.7-.3.1 0 .2.1.2.3-.2.7.2 1.1.7 1.4 1.6 1.1 3.5 1.7 5.4 1.7h2.1c-.2.4.3.6.3 1-.1.3 0 .7 0 1-1 0-2.1.1-3.1 0-.8-.1-1.5-.2-2.2-.4-1.8-.5-3.3-1.5-4.9-2.5z"/>
  <path class="st4" d="M163 64.7c-.5-.1-.3-.5-.3-.7.4-.8.3-1.7.8-2.5.1-.1 0-.3 0-.4 1.4-.4 2.7-1.3 4.1-1.5.2.2.1.4.1.5-.2.5-.4 1-.5 1.5-.2.9-.5 1.6-1.6 1.7-.2 0-.5.3-.8.4-.4.4-1 .8-1.8 1z"/>
  <path class="st5" d="M173 40.8c.4-.1.9.2 1.4-.4.2 1-.3 1.7-.7 2.4-.1.1-.2.3-.3.2-.5-.1-.9.3-1.3.3-.7-.1-1.3.2-1.8.3-.6.1-1.2.4-1.8.3-.2 0-.2.3-.4.3-.1-.8.1-1.5.4-2.3.2 0 .4.1.7 0 .9-.3 1.7-.6 2.7-.5.1-.6.8 0 1.1-.6z"/>
  <path class="st1" d="M141.7 36c.1.4-.2.8-.3 1.1-.3 2.2-1.2 4.4-1.5 6.6 0 .2-.3.2-.3.4h-.7c-.2-.2-.2-.4-.2-.7.4-1.6.8-3.2 1.2-4.7.2-.7.5-1.3.5-2.1.1-.1.2-.1.2-.1-.1-.7.4-1.2.4-1.8 0-.4.3-.7.7-.6.6.8 0 1.3 0 1.9z"/>
  <path class="st6" d="M127 101.1c0-.7 0-1.3.3-1.9.4-1.1.7-2.2 1-3.3.1-.1.1-.3.1-.4-.2-1.4.4-2.8.3-4.1.3.1.5.3.8.4.1 1.5-.1 3-.5 4.5-.5 1.6-1.1 3.1-1.7 4.6-.1.1-.3.1-.3.2z"/>
  <path class="st7" d="M130.1 52.4c.6.1 1.1.3 1.5.5.3.3-.1.4-.1.6-.2.9-.5 1.1-1.3.8-.7-.3-1.4-.3-2.1-.7v-1c.4.1.2-.5.4-.6.6 0 1 .6 1.6.4z"/>
  <path class="st8" d="M134.8 86h-3c-1.2-.3-2.4-.5-3.5-.8-.5-.2-.9-.7-1.6-.6-.4.8-.4 1.7-.1 2.6.1.4.1.7.1 1-.2.2-.4.1-.5.1.1.6.6.2.9.4.4.3 1.1.3 1.6.5.5.4 1.1-.1 1.6.3.5.3 1.2.1 1.8.1.7.1 1.3 0 1.8 0 .9-.4 1.1-1.2 1.4-1.9.1-.5-.5-1.1-.5-1.7zM124.9 83.4c-.2-.1-.5-.3-.5-.5-.8.7-1 1.7-.7 2.9.2.9.9 1.5 1.6 2 .1-.4-.2-.8-.3-1.1-.2-.9 0-1.8.5-2.6-.1-.4-.3-.6-.6-.7z"/>
  <path class="st9" d="M142.9 30.2h-.3c-.6-.2-1 .2-1.3.5-.4-.2-.7-.4-1-.5-.2-.9.5-1.4.9-2 .3-.1.5.2.8.3 1 .5 2 .9 2.9 1.3-.2.2-.4.1-.5.2h-1.1c-.3 0-.5 0-.4.2z"/>
  <path class="st10" d="M138.3 29.7c-.1-1.1.7-1.9 1.4-2.5.8-.8 1.4-.4 1.5.8-.5.2-.7.7-1.1 1 .1.9-.7 1-1.2 1.3-.3-.2-.5-.3-.6-.6z"/>
  <path class="st11" d="M166.7 44.5c-.1.2-.2.4-.3.5h-.3c-.5-.4-1.2-.4-1.7 0h-.5c-.1-.5-.6-.2-.9-.3-1.7-.1-3.3-.9-4.8-1.8v1.6h-.3c-.3-.1-.6-.4-.5-.5.4-.6-.3-1.1 0-1.7.3-.1.5-.3.8-.4v.3c-.1.2.1.3.2.3 1.5 1.2 3.3 1.6 5.2 2h2.2c.2 0 .4 0 .3-.3.3.1.5.2.6.3z"/>
  <path class="st12" d="M165.9 41.3c.3.1.5.3.9.3.7 0 .8.2.9.9.1.5-.4 1-.3 1.6h-.5V44c-.8-.3-1.5-.5-2.3-.7.3-.6.8-.9 1.3-1.4v-.6z"/>
  <path class="st13" d="M135.9 82h-.1c-1.4.2-2.8-.1-4.1-.3-1.5-.3-3.1-.6-4.4-1.6.1.7-.6 1-.6 1.7.1.6 0 1.2 0 1.8 0 .2-.1.2-.3.2.5.7 1.4.9 2.2 1.1 1 .3 2 .8 3 .7.2 0 .3.1.2.3 1-.1 2 .2 3-.3.8.2 1.1-.5 1.2-1 .1-.9.2-1.8-.1-2.6zM125.5 81c.2-.5.6-.8.9-1.3-.1-.5-.8-.6-.9-1.1-.3.1-.4.3-.6.5-.5.7 0 1.6-.5 2.3-.3.3.4.7.3 1.1.3.2.5.4.9.5-.4-1.1-.4-1.1-.1-2z"/>
  <path class="st14" d="M137.4 73.7c-.5 0-1.1-.1-1.7 0-2.2.2-4.2-.6-6.2-1.5-.2-.1-.4-.2-.7-.2-.4.8-.7 1.6-.6 2.5 0 .3.3.8-.3.9.7.6 1.5 1 2.4 1.1.4.1.8.2 1.3.4.1.1.2.2.3.2 1.3-.1 2.6.5 4 .3.2 0 .5-.1.7 0 .4.1.6-.2.7-.4.4-1 .8-2.1.1-3.3zM128.1 71.5c-.1-.5-.8-.6-.9-1.1-.6.6-.8 1.4-.9 2.1-.1.4 0 .8 0 1.1-.1.4.4.6.3 1h.5v-.5c0-1.1.3-1.9 1-2.6z"/>
  <path class="st15" d="M127.8 53v.5c0 1 0 1 1.1 1.2.3.9-.6 1.1-1 1.7-.9-.4-1-1.3-1-2.1.5-.2.2-.6.3-.9.1-.3-.3-.7.3-.8 0 .3.1.4.3.4z"/>
  <path class="st16" d="M128.9 70.7c-.1.2.1.5-.3.5.6.5 1.4.9 2.1 1.1.7.2 1.1.8 1.8.6.5.6 1.4-.1 1.8.5h2.9c1.3-1.3 1.5-2.6.7-3.7h-3.8c-.2 0-.3-.1-.3-.3-1.1-.2-2.2-.7-3.3-1.1-.3-.2-.5-.3-.7-.6h-.3c-.4.9-.4 2-.6 3z"/>
  <path class="st16" d="M139 65.8h-.2c-1.4.2-2.8-.3-4.1-.3-.7-.5-1.5-.3-2.1-.7-.7-.4-1.3-.7-2-1 0 .2-.1.4-.2.7-.2.4-.5.8-.4 1.4.1.5-.4.9-.3 1.4.1.2.2.4.3.5.3.1.5-.1.8.1.8.6 1.8.7 2.7 1 .7.3 1.3.3 2 .3.2 0 .5-.1.5.3h1.5c.2 0 .4 0 .7-.1.7-.2 1.1-.7 1.1-1.3.1-.7.5-1.7-.3-2.3zM129.5 67.2c-.2-.3-.4-.5-.5-.9 0-.8-.1-1.5.3-2.2.2-.4.4-.7.9-.6.1-.2-.1-.3-.2-.3-.4-.1-.7-.4-.7-.9-.3.1-.4-.5-.8-.3-.3.3.1.9-.3 1.3-.2.2-.2.9.1 1.2.3.4.1.8.2 1.2 0 .2.1.4 0 .4-.5.3-.7.8-.9 1.3-.3.9-.2 1.7-.2 2.6.3.2.5.4.9.5v-1.8c.1-.8.4-1.1 1.1-1.4-.2 0-.1-.1.1-.1z"/>
  <path class="st17" d="M160.8 52.2c0 .3.2.3.4.3 1.1-.1 2.2.5 3.3.4-.8.2-1.5.2-2.3.2-1-.2-2.1-.6-3.2-.5 0-.4-.3-.2-.5-.3-.1-.4 0-.8.3-1.1.7.3 1.4.7 2.2.6.2 0 .4 0 .3.3v.3c-.2-.2-.3-.2-.5-.2 0-.3-.2-.3-.3-.3h-.8c-.3-.3-.3-.3-.8 0h.8c0 .3.2.3.4.3h.7z"/>
  <path class="st18" d="M160.2 57c-.2.1-.4-.1-.7.2 1.3.1 2.4.5 3.8.4-.3.3-.7.2-1 .2h-1c-.7-.1-1.6-.1-2.2-.4-.4-.3-1 .2-1.3-.4v-.3c.4.3.9.4 1.6.1-.6 0-1-.2-1.4-.3-.2-.1-.5-.1-.5.3-.4-.1-.3-.3-.2-.5.1-.1.1-.2.2-.3.7.3 1.4.7 2.2.6.2 0 .4 0 .3.3.2-.1.2 0 .2.1z"/>
  <path class="st13" d="M142.6 60.7c-.9-.2-1.6.4-2.6.2v-.8c.1-.3.3-.4.5-.5.8.2 1.6.4 2.4.7-.1.1-.3.2-.3.4z"/>
  <path class="st19" d="M140 51.9v.2c-1.3.2-2.6.4-3.7-.3-.5-.3-1.1-.4-1.7-.4 0-.4.3-.3.5-.3s.4 0 .4-.3c.6.5.9.6 2 .9-.1.2.1.3.2.3.2 0 .4 0 .3-.3.5.1.9 0 1-.5h.1v.9c.4-.2.7-.2.9-.2z"/>
  <path class="st20" d="M124.1 53.3c.1.6.9.1 1 .5.5-.2 1 .3 1.5.3v.9c-.8-.2-1.5-.4-2.2-.6-.7-.2-.7-.5-.3-1.1z"/>
  <path class="st21" d="M162.2 49c1-.1 2 .6 3.1.3-.7.3-1.3.2-2 .2-.4.2-.5-.3-.9-.3-.9.1-1.7-.2-2.4-.5-.2-.1-.6-.2-.7.3h-.3c-.2-.4.2-.5.3-.9 1 .4 1.8.9 2.9.9z"/>
  <path class="st22" d="M140 44.5h.3c-.1.2-.2.4-.3.5-1.1 0-2.1-.2-2.8-1.1.3-.7.9-.1 1.3-.3.3.3.1.5.2.8 1 .2 1 .2 1.3.1z"/>
  <path class="st23" d="M159.4 55.6c.3 0 .4.3.7.3 1-.1 2 .4 3 .3.1 0 .2.1.2.3H161c-.6.1-1-.3-1.7-.3-.3 0-.9-.1-1.2-.5v-.3c.4.1.9.2 1.3.2z"/>
  <path class="st24" d="M138.3 29.7c.1.3.3.4.5.5.6-.3 1.4-.4 1.2-1.3.4-.3.7-.8 1.1-1v.3c-.4.7-1 1.1-.9 2-.5-.1-1 .4-1.6.3-.4-.1-.6-.2-.7-.5.1-.1.1-.4.4-.3z"/>
  <path class="st19" d="M157.9 57c.2.7.8.2 1.3.4.6.3 1.4.3 2.2.4v.3c-1.3.1-2.4-.3-3.5-.5-.2-.1-.5-.1-.4-.4 0-.4.2-.2.4-.2z"/>
  <path class="st25" d="M136.3 60.7c0 .3.1.6-.4.5-.7-.1-1.7-.6-2.2-1.2 0 0 0-.1.1-.3.5.2 1.1.4 1.6.6.4 0 .6.3.9.4z"/>
  <path class="st26" d="M137.2 43.9c.7.9 1.7 1.1 2.8 1.1h1.1c0 .3-.2.3-.4.3s-.5-.1-.5.3c-.2-.1-.4.1-.5-.1-.2-.2-.4-.2-.6-.2-.9.1-1.5-.6-2.3-.9.2-.1-.1-.5.4-.5z"/>
  <path class="st27" d="M141.1 31.7c-.2.3-.5 1.5-.5 1.9 0 .2 0 .4-.3.4-.6-.3-.4-.9-.2-1.2.3-.5.2-1.3.7-1.6.5-.1.3.2.3.5z"/>
  <path class="st28" d="M163 58.9c-.3.1-.6-.1-.9.2-.2.2-.5-.3-.8-.2V58h1.8c.5.6-.1.7-.1.9z"/>
  <path class="st29" d="M166.2 45.9h-1.7V45h2c-.1.3.2.7-.3.9z"/>
  <path class="st30" d="M140.3 34.8c.4.5.4.8.1 1.5-.1.2-.1.3-.1.5-.1-.1-.2-.1-.2-.1-1-.9-1-1 .2-1.7v-.2z"/>
  <path class="st31" d="M159.4 49c.1-.5.5-.3.7-.3.8.4 1.6.6 2.4.5.3 0 .5.4.9.3v.3c-.6.2-1.1-.3-1.7-.3-.3-.1-.6 0-.9-.2-.5 0-1-.3-1.4-.3z"/>
  <path class="st32" d="M161.4 51.9c0-.3-.2-.3-.3-.3-.8.1-1.5-.3-2.2-.6v-.3c.6 0 1.1.5 1.7.3 0 .3.2.3.3.3.4-.1.8.1 1.1.3v.3h-.6z"/>
  <path class="st33" d="M162.2 49c-1 0-1.9-.5-2.8-.9 0-.2.1-.3.3-.3.3 0 .5.2.7.3.6.3 1.3.1 1.8.5v.4z"/>
  <path class="st34" d="M161.9 51.6c-.3-.2-.7-.3-1.1-.3-.2 0-.3-.1-.3-.3v-.3c.3.2.6.4 1 .3.3-.1 1.6.4 1.8.5-.4.1-.9.1-1.4.1z"/>
  <path class="st35" d="M159.1 52.4c1.1-.1 2.1.4 3.2.5v.3h-.9c0-.4-.3-.3-.5-.3-.7.1-1.3 0-1.8-.5z"/>
  <path class="st36" d="M163.6 48.5h2c-.7.4-1.3.3-2 .3v-.3z"/>
  <path class="st37" d="M165.3 46.7h-1.1v-.3h1.7c-.1.5-.4.3-.6.3z"/>
  <path class="st38" d="M160.2 56.7H161.9c-.5.4-1.1.2-1.7.3v-.3z"/>
  <path class="st39" d="M161.4 51.9h1.6c-.5.4-1.1.2-1.7.3.1-.2.1-.3.1-.3z"/>
  <path class="st40" d="M161.4 53.3h1.2c0 .3-.2.3-.3.3h-1.1c-.2-.3-.1-.3.2-.3z"/>
  <path class="st41" d="M163.6 48.5v.3h-1.4v-.3h1.4z"/>
  <path class="st42" d="M132.9 51.9h-.5c0-.3.2-.3.3-.3.1 0 .2.1.2.3z"/>
  <path class="st43" d="M127.3 75.5c-.4-.1-.7-.4-.7-.9-.6-.1-.8.4-1.1.7v.2c-.1.4 0 .9-.2 1.3-.3.6.3 1.3.5 1.8.2.1.4.2.5.3v-1.8c.1-.8.4-1.1 1.1-1.4.2-.1 0-.2-.1-.2zM136.9 78c0-.4-.3-.2-.5-.3h-.3c-.5.4-1.1.2-1.7.3-.5.1-.8-.4-1.3-.3-.4.1-.8.1-1.1-.3-1.1.1-1.9-.6-2.9-1-.3-.1-.6-.1-.9-.2-.5.1-.1.5-.3.8-.5.4 0 1.1-.5 1.6-.2.2.2.4.2.7l-.1.1h-.2c.9.8 2 1.1 3 1.4 1.3.4 2.6.7 4 .6.5-.1 1 0 1.6 0 .9-.2 1.3-.8 1.4-1.6 0-.6-.3-1.2-.4-1.8z"/>
  <path class="st6" d="M126.7 101.9c.1-.2-.2-.5.3-.5-.1.2.1.5-.3.5z"/>
  <path class="st7" d="M132.1 53.6c-.1.2.2.5-.3.5 0-.2-.2-.5.3-.5z"/>
  <path class="st44" d="M162.8 38.8h.8c.2 0 .3.1.3.3h-1.4c-.3.1-.7-.3-.9.3h-.5c-.4-.2-.5.2-.9.3-.2.1-.5-.1-.5.2 0 .8-.6 1.4-.6 2.1v.3h-.9V42c.2-.1.5.2.5-.3v-2.2c0-.2 0-.4-.3-.3v-.3c.6 0 1.1.5 1.7.3.3-.1.7.3.9-.3.6-.1 1.2-.1 1.8-.1z"/>
  <path class="st45" d="M152.6 32.1c-.3.2-.6.2-.9 0 .3-.2.5-.2.9 0z"/>
  <path class="st46" d="M161 38.8c-.1.5-.6.2-.9.3.2-.6.7-.2.9-.3z"/>
  <path class="st6" d="M139.2 45.3c.2 0 .4-.1.6.2.1.2.3.1.5.1 0 .5-.1.9-.3 1.4-.3.8-.5 1.7-.6 2.6-.1.5-.4.9-.3 1.4h-.1c-.1.6-.5.7-1 .5.2-1 .3-2.1.7-3 .4-.9.3-2 .8-2.8 0-.1-.4-.1-.3-.4z"/>
  <path class="st47" d="M143.7 51.6v.1c.1.2.4.2.2.4-.1.1-.3.1-.8 0-.2 0-.2.1-.1.1.1-.1.4.2.4-.1-.1-.2-.3-.2-.3.1.2.4.8.4.5.9-.3-.2-.7-.3-1.1-.5.1-.4-.5-.2-.5-.4 0-.4-.2-.5-.5-.3-.2.7.3 1 .8 1.4-.1.2.2.4.3.4.8.3 1.4.9 2.3 1 0 .2-.1.3-.3.3h-.5c-.1-.5-.7-.3-.9-.5-1.3-.5-2.1-1-2-2.4v-1c.4-.1.2.5.4.5.1-.1.4-.1.5-.3.2-.3.7-.1.7-.5h.3c0 .4.3.2.5.3v.3h-.3c-.2.1-.4-.1-.5.1.5 0 .5 0 .9.1z"/>
  <path class="st48" d="M144.6 47.3c.1.3-.1.5-.4.8.2.2.4.3.7.4-.2.3-.4.2-.5.2-.2-.3-.3-.7-.9-.5.2.4.4.5.9.5 0 .1-.1.1 0 .1.1.2.4.2.2.4-.1.1-.3.1-.5.1 0-.2-.1-.3-.3-.3-.1 0-.2.1-.2.1 0 .2.1.2.2.2v.3h-.5c.1-.4-.3-.2-.5-.4.2-.3.3-.7.5-1.1-.4-.3-.1-.7-.1-1.1 0-.2.2-.8.3-.9.1-.1.3 0 .4 0 .3.1.5.3.5.5-.2.1-.4-.1-.5.1.1.5.2.7.7.6z"/>
  <path class="st49" d="M145.4 38.2c1.3 1.2 2.9 1.6 4.4 2.3.3.1.7 0 1 0 0 .2.1.3.3.3v.3c-1.6-.1-4.2-1.1-5.4-2-.3-.1-.3.3-.6.3-.3-.4-.3-.4-.2-1.1.2-.2.4.5.5-.1z"/>
  <path class="st50" d="M142 36.2c.4 0 .3-.3.3-.5-.1-.4.2-.7.5-1l1.8.9c.1.1.2.1.3.1-.9.4-1.7.8-2.5 1.3-.3-.2-.5-.4-.4-.8z"/>
  <path class="st51" d="M146 42c.4 0 .3.2.2.5-.1.1-.1.2-.2.3-.3-.1-.5-.4-.9-.3-.2 0-.3-.1-.3-.3-.4-.7-.4-.7.3-1.4.2 0 .3.1.3.3 0 .4.3.2.5.3h.3c0 .2-.1.3-.2.6l-.3-.3c-.2-.2-.3-.1-.5 0 .3.4.3.4.8.3z"/>
  <path class="st48" d="M143.2 50.4h-.3c-.4-.1-.7-.3-.5-.8l.8-.1c.1.4.4.6.9.5v.1c.1.2.4.2.2.4-.1.1-.3.1-.5.1-.1-.3-.4-.1-.6-.2z"/>
  <path class="st1" d="M141.1 45H140c.1-.2.2-.4.3-.5v-.1c.3-.1 1 .1 1.1.4.1.1 0 .2-.3.2z"/>
  <path class="st52" d="M144.3 46.7c-.1-.3-.3-.5-.5-.5 0-.4.3-.2.5-.3 0 .3.2.4.4.5.2.1.4.1.4-.2.4.1.3.3.2.5-.1.1-.1.2-.2.3-.3 0-.5-.4-.8-.3z"/>
  <path class="st53" d="M145.4 44.8c.4.1.3.3.2.5-.1.1-.1.2-.2.3-.3-.1-.5-.4-.9-.3-.1-.3-.4-.4-.5-.7.1-.3.4-.1.5-.2 0 .3.2.4.4.5.3.2.5.2.5-.1z"/>
  <path class="st54" d="M145.4 41.1c0-.2-.1-.3-.3-.3.1-.2-.1-.4.1-.5.3.3.7.5 1 .8v.3h-.3c.1-.5-.2-.3-.5-.3z"/>
  <path class="st55" d="M144.6 44.5c-.1-.3-.4-.4-.5-.7.1-.3.4-.1.5-.2h.3c-.2.4.2.5.3.9h-.6z"/>
  <path class="st56" d="M144.8 42.2c0 .2.1.3.3.3.1.2.2.4.3.5h-.5c-.1-.1-.1-.2-.2-.3-.2-.2-.2-.4.1-.5z"/>
  <path class="st55" d="M144.3 45.9v-.1c-.1-.2-.4-.2-.2-.4.1-.1.3-.1.5-.1.1.2.2.4.3.5-.2.1-.4.1-.6.1z"/>
  <path class="st57" d="M154.8 39.9c-.8-.3-1.6-.8-2.4-.9-.1 0-.1-.2-.1-.2.2-.1.4.1.5-.1.5-.5 1.1-.9 1.5-1.6.8.2 1.6.5 2.3 1.1-.8.5-1.3 1-1.8 1.7z"/>
  <path class="st43" d="M134.1 69.5h.8c.2 0 .3.1.3.3h-.8c-.2 0-.4-.1-.3-.3z"/>
  <path class="st58" d="M150.2 57.3s0-.1 0 0c-.1-.1-.3-.2-.4-.2-.1-.1-.3-.1-.4-.1-.2-.1-.5-.2-.8-.2-.3-.1-.5-.2-.8-.3-.3-.1-.4.1-.5.2-.9 1-1.8 2.1-2.7 3.2-.1.1-.1.1-.1.2 0 .2.2.2.3.3.2.1.4.1.7.2.1.1 1.3.3 1.3.4.1-.2-.1-.4.1-.5l.1-.1c.7-.7 1.4-1.5 2.1-2.1.2-.2.4-.3.5-.5.2-.2.6-.4.6-.5zM141.5 54.4c.1.4-.2.6-.4.8l-4.6 4.6h-.7v.3c.6-.2 1.1.3 1.7.3.1-.2-.2-.3-.3-.4l2.3-2.3c.9-1 2-1.8 2.8-2.9-.3 0-.6-.4-.8-.4zM151.9 57.5c-.4.1-.8-.1-1.1-.3-.1.2.1.4-.1.5-1.1 1-2.1 2.2-3.3 3.2.1.5.6.2.9.3 1-1.3 2.2-2.2 3.3-3.4h.7c0-.2-.2-.3-.4-.3zM139.1 56.1c.6-.6 1.1-1.3 1.8-1.7v-.1c-.9-.3-1.7-.5-2.6-.7-1.6 1.8-3.3 3.6-4.9 5.4h-1c.1.1.1.2.1.2 1.1-.1 2 .4 3 .7 1-1.4 2.4-2.5 3.6-3.8z"/>
  <path class="st46" d="M161.6 39.3c.1-.5.6-.2.9-.3-.2.6-.6.2-.9.3z"/>
  <path class="st59" d="M156.3 56.1v.3c-.3-.1-.5-.4-.9-.3-.1-.3-.3-.5-.5-.5 0-.4.3-.2.5-.3.1.3.3.5.7.6 0-.1.2.1.2.2z"/>
  <path class="st60" d="M160.2 59.5v.3c-.4-.3-.9-.3-1.5-.3.9-.3.9-.3 1.5 0z"/>
  <path class="st61" d="M155.4 56.1c.4-.2.5.2.9.3-.1.4-.3.3-.5.2-.1-.1-.2-.1-.3-.2-.1-.1-.1-.2-.1-.3z"/>
  <path class="st62" d="M156.8 58.6c-.2.2-.5.2-.5-.1-.1-.3.3-.1.4-.1-.1 0 0 .1.1.2z"/>
  <path class="st6" d="M138 51.6c0 .3-.2.3-.3.3-.2 0-.3-.1-.2-.3h.5z"/>
  <path class="st15" d="M127 52.7c-.1.2.2.5-.3.5 0-.1-.2-.4.3-.5z"/>
  <path class="st63" d="M143.2 54.1c.2.3.8.1.9.5h-.8c-.2 0-.3-.1-.3-.3 0 .1.2 0 .2-.2z"/>
  <path d="M156.3 58.5c.1 0 .2.1.3.1-.1-.1-.1-.1-.2-.1-.1-.1-.1-.1-.1 0z"/>
  <path d="M175.5 40c-1.5-.5-2.9-1.1-4.4-1.5-1.4-.4-2.9-.8-4.2-1.5-2.6-1.2-5-2.5-7.5-3.8-1.3-.7-2.6-1.4-4-2-1.2-.5-2.3-1.1-3.4-1.7-.8-.4-1.7-.9-2.8-.8-.4.1-.6.3-1 .3-1.5.1-2.9-.1-4.2-.8-.9-.5-1.9-.7-2.2-1.9-.1-.4-1.3-.9-1.5-.7-.7.5-1.5.7-2 1.6-.3.7-.9 1.1-.8 2-.6.7-.3 1.3 0 1.9.3.8 1 .9 1.7.8-.1.9-.7 1.6.1 2.3-1 .5-1 .5-.9 2.1.3.3.7.7 1 .9-.4 1.7-.8 3.3-1.1 5.1-.4-.2-.7.2-1 .2-.9 0-1 .8-1.5 1.3.1 1-.4 2-.6 3-.2 1.2-.6 2.3-.9 3.3-.7.2-1.3 0-1.9.2-.7.2-.8.8-1.3 1.2-.2-.5-.3-.9-.3-1.2 0-.9-.7-1.1-1.3-1.2-.6-.1-1.1-.4-1.7-.4-.7 0-1.4-.9-2.1-.2-1 0-1.4.8-1.8 1.5-.8 1.3-1 2.7-.8 4.2.1 1.1.8 2 1.8 2.3 1.2.3 2.4.9 3.6.6.7-.4 1-1.2 1.8-1.5-.2 1.2-.7 2.2-.8 3.4-1.1.6-1.6 1.5-2 2.6-.3 1-.3 2-.3 3 0 .3.1.7-.1 1-.6 1.1-.8 2.2-.8 3.4 0 .3-.1.6-.3.9-.6 1.1-.9 2.3-.9 3.6 0 .2.1.4-.1.7-.6 1-.8 2.2-.8 3.4 0 .2 0 .4-.1.7-.5 1-.8 2.1-.7 3.3 0 .3.1.5-.2.8-1 1.2-1 3.5-.1 4.9.4.6.9 1.3 1.5 1.5 1 .4.9 1.3 1 2 .1.7.1 1.3.1 2 0 .5-1.5 1-1.7 1.4-.3.5.1 2.2.1 2.9.1 2.2.4 4.3.6 6.5.1.9.1 1.9.3 2.8.9-.9 1.6-2.4 2.3-3.6 1.1-1.8 2.3-3.7 3.5-5.5.4-.5 1-1.1 1-1.7.1-.7.3-1.4.4-2 .2-.9.2-1.8.7-2.7.5.2.9-.4 1.4-.3.7.2 1.3-.3 1.9-.5 1-.4 1.8-2 1.4-3-.4-.9 0-1.4.3-2 .1-.2.3-.3.3-.4 0-.8.2-1.7-.3-2.4.5-.6 1.1-1 1.4-1.9.1-.5.1-1 .1-1.5.1-.7-.1-1.3.5-1.8.4-.4.3-1 .3-1.6-.1-1.1.1-2.1.7-3 .4-.7.3-1.7-.1-2.4.9-1.1 1.6-2.2.8-3.7l.6-.6c.7-.8 1.2-1.7.5-2.8.2-.4-.4-.8-.3-1.3h.9c1.3-.2 1.3-.1 2.8.3 1.3.3 2.4.8 3.6 1.1l4.5 1.2c.9.3 1.8.5 2.7.8l4.2 1.2c.5.2 1.1.1 1.7-.2 1.3-.7 2.6-1.4 3.9-2 .7-.3.6-.4 1-1 .6-.9.7-2 1.1-2.9.2-.3.3-.6.3-1-.1-.8-.1-.7-.8-1-.7-.3-1.5-.3-2-.9.1-.2.2-.3.2-.4 0-.5.1-1.1.3-1.6.3-.8.5-1.5.6-2.3.2-1 .4-1.9.7-2.9.3-1.4.7-2.7 1-4.1.1-.5.3-.6.8-.8.7-.4 1.5-.1 2.2-.5.4-.2.9-.4 1.4-.3.4.1.9-.2 1-.5.6-1.6 1.3-2.7 1-3.9zm-36.7-9.4c-.4-.1-.6-.2-.7-.5-.1-.2 0-.4.3-.3-.1-1.1.7-1.9 1.4-2.5.8-.8 1.4-.4 1.5.8v.3c.3-.1.5.2.8.3 1 .5 2 .9 2.9 1.3-.2.2-.4.1-.5.2h-1.1c-.2 0-.4.1-.3.3h-.3c-.6-.2-1 .2-1.3.5-.4-.2-.7-.4-1-.5-.7-.3-1.2.2-1.7.1zm2.3 1.1c-.2.3-.5 1.5-.5 1.9 0 .2 0 .4-.3.4-.6-.3-.4-.9-.2-1.2.3-.5.2-1.3.7-1.6.5-.1.3.2.3.5zm-.8 3.1c.4.5.4.8.1 1.5-.1.2-.1.3-.1.5-.1-.1-.2-.1-.2-.1-1-.9-1-1 .2-1.7v-.2zm-1.4 8.8c.4-1.6.8-3.2 1.2-4.7.2-.7.5-1.3.5-2.1.1-.1.2-.1.2-.1-.1-.7.4-1.2.4-1.8 0-.4.3-.7.7-.6.4.7-.2 1.1-.2 1.7.1.4-.2.8-.3 1.1-.3 2.2-1.2 4.4-1.5 6.6 0 .2-.3.2-.3.4h-.7c-.1-.1 0-.4 0-.5zm3.4-7.9c-.1-.4.2-.7.5-1l1.8.9c.1.1.2.1.3.1-.9.4-1.7.8-2.5 1.3-.2-.2-.5-.4-.4-.8.4 0 .3-.3.3-.5zm0 3.1c-.1-.5.2-.9.7-.8.5.1.7-.7 1.3-.5-.7 2.2-1.4 4.5-1.7 6.8-.4-.3-.6-.6-1-.7-.3-.1-.5-.5-.4-.8.5-1.1.4-2.3 1-3.4.1-.3.1-.5.1-.6zm-8.9 12.5h1.3c0-.4.3-.3.5-.3s.4 0 .4-.3c-.1-.8.3-1.5.4-2.2.1-.7.4-1.3.5-2 .1-.7.2-1.4.5-2 .1-.2-.2-.5.3-.5.3-.7.9-.1 1.3-.3.3.3.1.5.2.8 1 .3 1 .3 1.4.1h.3v-.1c.3-.1 1 .1 1.1.4.1.2 0 .3-.3.3 0 .3-.2.3-.4.3s-.5-.1-.5.3c0 .5-.1.9-.3 1.4-.3.8-.5 1.7-.6 2.6-.1.5-.4.9-.3 1.4v.9h.9c.4-.2.4-.6.5-.9.2-.3.4-.2.6-.2.4-.1.2.5.4.5.1-.1.4-.1.5-.3.2-.3.7-.1.7-.5-.4-.1-.7-.3-.5-.8l.8-.1c.1-.4-.3-.2-.5-.4.2-.3.3-.7.5-1.1-.4-.3-.1-.7-.1-1.1 0-.2.2-.8.3-.9.1-.1.3 0 .4 0 0-.4.3-.2.5-.3v-.1c-.1-.2-.4-.2-.2-.4.1-.1.3-.1.5-.1-.1-.3-.4-.4-.5-.7.1-.3.4-.1.5-.2-.1-.3-.4-.4-.5-.7.1-.3.4-.1.5-.2.1-.2-.2-.5.3-.5-.1-.1-.1-.2-.2-.3-.2-.3-.2-.5.2-.5-.4-.7-.4-.7.3-1.4.1-.2-.1-.4.1-.5.3.3.7.5 1 .8.4-.1.4-.4.1-.5-.6-.2-.9-.7-1.3-1.1-.3-.4-.3-.4-.2-1.1.2-.1.4.6.5-.1-.2-.3-.5-.7 0-1 .1-.1 0-.3 0-.4.5 0 1 0 1.5.3.2.2.5.3.5.5 0 .8.5 1 1.1 1.3.9.4 1.8.9 2.9.8 1-.1 2 .2 2.9.5.3.1.2.4.2.6H151v.3h2c.4 0 .5.2.8.5-.1.5-.4.7-.9.7-.5-.1-1.1 0-1.7 0v.3h2.4c-.3.5-.7.1-.9.4 0 .3.7.1.5.5-.1.3-.2.5 0 .8h-3.4v.3H153c-.2.4-.4.7-.3 1-.2.1-.2.1-.3.2h-2.5c-.2 0-.4 0-.4.3h1.4c-.7.4-1.3.3-2 .3-.2 0-.3.1-.3.3h1.1c.4-.2.5.3.9.3.5 0 1.1.1 1.6-.3.1.3.1.5-.2.5h-2.3c-.2 0-.4 0-.4.3h2.6c-.1.4-.4.2-.5.3v.3c.5 0 .6.1.3.5v.3c0 .3-.2.3-.4.3h-2.8v.3h2.9c-.3.4-.8.3-1.1.5-.4-.6-.8.3-1.2.1 0 .3.2.3.4.3h1.7c-.1.2-.1.2-.2.2-.8 0-1.6.1-2.5.1v.3h1.1c-.5.4-1 .2-1.5.3-.5.1-1-.4-1.6-.3-.3-.3-.7-.3-1.1-.3-.2 0-.3.2-.2.2 1 .2 1.9.7 2.9.7.7 0 .7 0 1.5.5-.3.2-.5.1-.8.1v.3h2.1c-.4.4-.8.3-1 .3.1.6.7.1.9.5 0 .5-.5.8-.9 1.3.2.1.5-.2.5.3-.1.2.2.5-.3.5 0 .3-.2.3-.3.3h-2.3c0-.3-.2-.3-.3-.3-.8.2-1.5-.4-2.3-.3-.2 0-.2-.3-.4-.3 0 .2-.1.3-.3.3 0 .3-.2.3-.3.3-.2 0-.3-.1-.2-.3h-.8c-.2 0-.3-.1-.3-.3-.9-.2-1.7-.4-2.6-.7-1.4-.4-2.7-.9-4.1-1.3-.9-.3-1.9-.4-2.8-.9-.1-.1-.2-.1-.2-.1.4-.6.4-.7.5-.7zm14.3-13.6c1-.2 1.5.7 2.3 1-1 .1-1.7-.2-2.3-1zm7.7 7.3c.3-.3.3-.7.3-1.1-.2-.4.3-.6.3-1-.1-.3 0-.7 0-1 .3.1.4.1.5.1.1 0 .1.1.1.1.1.4-.2 1.5-.5 2.1v1.1c0 .2-.1.4-.3.3 0 .5-.2 1-.3 1.5-.3 1.8-.9 3.5-1.2 5.3-.1.4-.2.8-.4 1.1 0 .1-.2.1-.4.1.3-.7.3-1.5.5-2.2.6-1.9.8-3.9 1.4-5.8V45zm.9 13.5v-.1c-.5-.1-.8-.2-1-.3-1.3-.4-2.5-.7-3.8-1.1-1.2-.4-2.4-.5-3.6-1.1-.3-.1-.7 0-1 0 0-.4.3-.2.5-.3h2.5c1-.1 2-.4 2.8-1.1.4.1.8.4 1.3.3v1.7c.5.9 1.4 1.3 2.4 1.9.1 0 .2.1.3 0 0 0 .1.1-.1.1 0 .2-.3.2-.3 0zm-29.6-5.2v1.8c-.8-.2-1.5-.4-2.2-.6-.7-.2-.7-.5-.3-1.1-.1-1.5.4-2.8 1.5-3.6.8-.3 1.5.3 2.2.2.4.4.1.8-.1 1.1-.5.5-.7 1.1-.7 1.7-.2.1 0 .4-.4.5zm1.2 3.2c-.9-.4-1-1.3-1-2.1.5-.2.2-.6.3-.9.1-.3-.3-.7.3-.8-.1-.6.1-1.1.6-1.6.2-.2.3-.4.3-.7h.5c.7.1.8.2.9.9v.5h-1.6c-.2.3-.3.6-.4.9v.8c0 1 0 1 1.1 1.2.3 1-.6 1.2-1 1.8zm2.3-2.1c-.7-.3-1.4-.3-2.1-.7v-1c.4.1.2-.5.4-.6.5-.1 1 .4 1.5.3.6.1 1.1.3 1.5.5.3.3-.1.4-.1.6-.1.9-.5 1.2-1.2.9zm-1.3 41.9c-.5 1.6-1.1 3.1-1.7 4.6 0 .1-.2.1-.2.1v.3c-.1.2.2.5-.3.5.1.4-.3.7-.4 1.1-.5-.8-.5-1.7-.4-2.6.1-.7-.4-1.3-.3-2 .1-.6.1-1.3-.2-1.9-.2-.5-.1-1.2-.1-1.7L127 93c-.1-1.1.2-2.2-.5-3.5 1 .7 1.4 1.5 2.2 1.8.3.1.5.3.8.4.1 1.7-.1 3.2-.6 4.6zm6.3-8.5c-.3.7-.5 1.5-1.4 1.9H132c-.6 0-1.3.2-1.8-.1-.5-.4-1.1.1-1.6-.3-.4-.3-1.1-.3-1.6-.5-.3-.2-.8.2-.9-.4-.2-.3-.8-.1-.9-.5-.7-.5-1.3-1-1.6-2-.3-1.1-.1-2.2.7-2.9.1.3.3.5.5.5.3.1.5.3.7.6.4.2.8.4 1.1.5.6-.1 1 .4 1.6.6 1.2.3 2.4.5 3.5.8h3c.1.6.7 1.2.5 1.8zm.8-3.4c-.1.5-.4 1.2-1.2 1-1 .5-2 .2-3 .3.1-.2-.1-.3-.2-.3-1.1.1-2.1-.3-3-.7-.8-.2-1.6-.4-2.2-1.1-.4.1-.8-.1-.9-.5-.3-.2-.5-.4-.9-.5.1-.4-.5-.8-.3-1.1.5-.7-.1-1.6.5-2.3.2-.2.3-.5.6-.5.1.5.8.6.9 1.1.4-.2.5.2.9.3 1.3 1 2.9 1.4 4.4 1.6 1.4.2 2.7.5 4.1.3h.1c.4.8.3 1.7.2 2.4zm1.4-7.4c-.1.2-.3.5-.7.4-.2-.1-.5 0-.7 0-1.4.2-2.6-.3-4-.3-.2 0-.2-.2-.3-.2-.4-.2-.8-.3-1.3-.4-.9-.2-1.7-.5-2.4-1.1-.4-.2-.7-.4-.9-.9h-.5c-.1.5.2.8.7.9.2.1.3.1.2.3.3.1.5.3.5.5.3.1.6.1.9.2.9.4 1.8 1 2.9 1 .3.4.8.3 1.1.3.5-.1.8.4 1.3.3.6-.1 1.2.1 1.7-.3h.3c.2.1.5-.2.5.3.1.6.4 1.2.3 1.8-.1.8-.6 1.3-1.4 1.6H134c-1.4.1-2.7-.2-4-.6-1-.3-2.1-.7-3-1.4-.4.1-.8-.1-.9-.5-.2-.1-.4-.2-.5-.3-.2-.6-.8-1.3-.5-1.8.2-.5.2-.9.2-1.3v-.2c.4-.3.5-.8 1.1-.7.2-.4-.3-.6-.3-1 .1-.4 0-.8 0-1.1.1-.8.2-1.5.9-2.1.1.5.8.6.9 1.1.2.3.8.1.9.5.2 0 .4.1.7.2 2 .9 4 1.7 6.2 1.5.5-.1 1.1 0 1.7 0 .7 1.2.3 2.3 0 3.3zm2-8.9c0 .6-.5 1.1-1.1 1.3-.2.1-.4.1-.7.1h-1.5c0-.4-.3-.3-.5-.3-.7 0-1.4 0-2-.3-.9-.4-1.9-.4-2.7-1-.3-.2-.5-.1-.8-.1.1.3.3.4.7.6 1.1.5 2.2.9 3.3 1.1h.8c.2 0 .3.1.3.3h3c.9 1.1.6 2.4-.7 3.7h-2.9c-.5-.6-1.4 0-1.8-.5-.8.2-1.3-.4-1.8-.6-.8-.2-1.5-.5-2.1-1.1-.3-.1-.5-.3-.5-.5-.3-.2-.5-.4-.9-.5.1-.9-.1-1.7.2-2.6.2-.5.4-1 .9-1.3.1-.1 0-.3 0-.4-.1-.4.2-.8-.2-1.2-.3-.3-.3-1-.1-1.2.4-.4.1-.9.3-1.3.4-.2.5.3.8.3 0-.2.1-.3 0-.4-.4-1.1-.3-1.5.8-1.8.2-.1.5-.2.7-.3.1 0 .2.1.2.3-.2.7.2 1.1.7 1.4 1.6 1.1 3.5 1.7 5.4 1.7h2.1c-.2.4.3.6.3 1-.1.3 0 .7 0 1-1 0-2.1.1-3.1 0-.8-.1-1.5-.2-2.2-.4-1.8-.5-3.4-1.4-4.9-2.4-.1.5.2.8.7.9.2.1.3.1.2.3.2.1.4.2.5.3.7.3 1.4.7 2 1 .7.4 1.5.2 2.1.7 1.4 0 2.7.5 4.1.3h.2c.6.2.2 1.2.2 1.9zm-3.4-6.9c-.7-.1-1.7-.6-2.2-1.2 0 0 0-.1.1-.3.5.2 1.1.4 1.6.6.4-.2.5.2.9.3-.1.3.1.7-.4.6zm-1.4 0c0 .4.3.2.5.3h1.4c.5-.1.9.1 1.2.4.1.2.2.4.5.4-.1.1-.1.2-.1.2-1.4.2-2.7.1-4-.3-.9-.3-1.7-.7-2.4-1.3-.3-.2-.8-.5-.6-1 .1-.3.3-.5.5-.5.5.1 1.1-.2 1.4.4.4.9 1 1.1 1.6 1.4zm8-.5c-.9-.2-1.6.4-2.6.2v-.8c.1-.3.3-.4.5-.5.8.2 1.6.4 2.4.7-.1.1-.3.2-.3.4zm18.3 4.2c-.4-.1-.7-.3-1-.4-1-.3-2-.7-2.9-1l-5.1-1.5c-1.4-.4-2.8-.8-4.2-1.1-.7-.2-1.3-.4-2-.5-.3-.1-.7-.2-1-.2-.3-.1-.6-.2-.9-.2s-.5-.1-.8-.2c-.3-.2-.7-.2-1-.3-.3-.1-.7-.2-1-.2-.2-.1-.3-.1-.5-.1-.1-.1-.3-.1-.4-.1-.1 0-.4.2-.4.3-.1.1-.1.2-.1.2-.1.2-.1.5-.1.7 0 .1-.1.2-.1.3-.1.2-.3.3-.5.3-.4.1-.9-.2-1.3-.4-.7-.3-1.4-.4-2.1-.5-.7-.2-1.3-.4-1.8-.7-.3-.1-.7-.2-1-.2-.5-.1-1.3.2-1.8-.3-.2-.2-.3-.4-.3-.6 0-.2.1-.3.2-.5s.1-.4.2-.7c.1-.4.2-.9.3-1.3.1-.5.2-.9.3-1.4.2-.5.3-1 .5-1.5.1-.2.1-.3.2-.5.1-.1.1-.3.2-.3.2-.1.4 0 .5.1.4.2.9.3 1.4.5.5.2 1 .4 1.6.6 1 .4 2.1.8 3.2 1.1.4.2.9.3 1.3.4.7.2 1.3.4 1.9.5 1.1.3 2.2.7 3.3.9.5.2 1.1.3 1.6.5s1 .2 1.5.3c2.2.6 4.3 1.3 6.5 1.9 1.4.4 2.7.8 4 1.3.3.1.5.1.8.2.3.1.6.2.9.2.6.2 1.2.3 1.7.6.1.1.1.1.2.1v.1c.1.6-.2 1-.4 1.6-.1.3-.2.6-.2.9-.1.2-.1.7-.2.9-.2.4-.7.4-1.2.2zm7-4.8c-.2.5-.4 1-.5 1.5-.2.9-.5 1.6-1.6 1.7-.2 0-.5.3-.8.4-.6.4-1.2.8-1.8.9-.5-.1-.3-.5-.3-.7.4-.8.3-1.7.8-2.5.1-.1 0-.3 0-.4 1.4-.4 2.7-1.3 4.1-1.5.2.2 0 .4.1.6zm-.7-1.7c.4.1.5.3.7.6-.9.2-1.8.5-2.6 1-.6.4-1.3.3-1.8.7-.8-.4-1.6-.3-2.4-.7-.3-.2-.6-.1-.9-.2-.4-.3-.9-.3-1.5-.3 1-.3 1-.3 1.5 0h3c.2 0 .4 0 .4-.3 1 .1 1.7-.4 2-1.4.6.3 1.1.5 1.6.6zm-1.6-17.5c-.8-.2-1.6-.5-2.5-.8-.7-.2-1.5-.2-2-.8-.4-.2-.5.2-.9.3.1.6.6.3.9.4.6.3 1.3.5 2 .5.2.1.4.3.6.3.7-.1 1.1.4 1.7.6h.5c.3.1.5.3.9.3.7 0 .8.2.9.9.1.5-.4 1-.3 1.6h-.5v-.1c-.8-.3-1.5-.5-2.3-.7h-.5c-.8-.3-1.5-.5-2.3-.9-.4-.1-.9.1-1.3-.2-.3-.2-.9 0-1.3-.3v.4c.5.1.9.5 1.4.4.2.1.5-.2.5.3.7-.2 1.3.2 2 .4 1 .3 2.1.7 3.2.8.2.1.4.2.5.3-.1.2-.2.4-.3.5-.1.3.3.7-.3.9 0 .3-.2.3-.4.3h-1.4c-.2 0-.3.1-.2.3h1.7c-.1.4-.4.2-.5.3.1.5.5.1.7.3.3.3-.3.3-.2.6.1.2.1.5-.3.5h-2.5c-.2 0-.4 0-.3.3h2.9c-.7.4-1.3.3-2 .3h-1.4v.3c1-.1 2 .6 3.1.3-.7.3-1.3.2-2 .2v.3h2c-.3.5-.8.1-1.1.4.2.3.6 0 .8.2.2.3 0 .4-.2.6-.1.1.1.3.2.5H162v.3h1.1c-.5.4-1.1.2-1.7.3h-.5c0 .3.2.3.4.3 1.1-.1 2.2.5 3.3.4-.8.2-1.5.2-2.3.2v.3h.3c.7.1 1.4-.1 2 .1-.2.3-.4.2-.5.3.1.3.3.5.2.8-.1.2.1.6-.3.6-.2 0-.4-.1-.5.1.1.2.3.2.5.2.2.3.1.7.1 1-.2.2-.4.1-.5.1h-2.3v.3h.8c-.5.4-1.1.2-1.7.3-.2.1-.4-.1-.7.2 1.3.1 2.4.5 3.8.4-.3.3-.7.2-1 .2h-1v.3h1.8c.5.4-.2.5-.2.9-.3.1-.6-.1-.9.2-.2.2-.5-.3-.8-.2-1.7.2-3.2-.5-4.7-.9-.5-.2-1-.7-1.6-1-.2-.2-.2-.2-.2-1 .2.1.2.3.4.3v-.3c-.1-.3-.3-.5-.5-.5 0-.4.3-.2.5-.3v-.1c-.1-.2-.4-.2-.2-.4.1-.1.3-.1.5-.1-.1-.4-.4-.4-.6-.8.2-.3.2-.8.6-.9.1-.2-.2-.3-.3-.4.2-.2.4-.2.6.1.2.3.4.5.8.4.1-.2-.2-.3-.3-.4.2-.2.4-.3.5.2.4 0 .2-.3.3-.5-.4.1-.6-.2-.9-.4.2-.2.4-.1.5-.2.1-.2-.2-.3-.3-.4.4-.5.5.2.8.1-.1-.2.1-.5-.2-.5-.4-.1-.4-.3-.8-.6h.7c-.1-.1-.1-.2-.2-.3-.2-.3-.2-.5.2-.5v-.1c-.1-.2-.4-.2-.2-.4.1-.1.3-.1.5-.1-.1-.2-.2-.4-.3-.5-.2 0-.3 0-.2-.2 0-.1.2-.1.2-.1h.3c-.1-.3-.4-.4-.5-.7.1-.3.4-.1.5-.2v-.1c-.1-.2-.4-.2-.2-.4.1-.1.3-.1.5-.1v-.1c-.1-.2-.4-.2-.2-.4.1-.1.3-.1.5-.1-.1-.3-.4-.4-.5-.7.1-.3.4-.1.5-.2-.1-.2-.2-.4-.3-.5-.3-.1-.6-.4-.5-.5.4-.6-.3-1.1 0-1.7.3-.1.5-.3.8-.4v-.3c-1.1-.3-2-.8-2.6-1.4h-.9v-.3c-.8-.3-1.6-.8-2.4-.9-.1 0-.1-.2-.1-.2-1.1-.7-2.3-1.1-3.4-1.6-.9-.4-1.7-.9-2.6-1.2-.5.1-.9-.4-1.4-.5.1-.2-.1-.2-.2-.3-1.1-.5-2.3-1-3.5-1.5-.1-.6.4-1 .3-1.6 0-.3.4-.4.3-.8-.1-.4.3-.3.5-.3.1.1.1.2.1.2 3 1.5 6 2.9 8.9 4.4 1 .5 2.1.8 2.9 1.6.8.2 1.6.5 2.3 1.1h.3c.5.4 1.1.6 1.7.9v-.3c-.1-.1-.1-.2-.1-.2-4.8-2.4-9.7-4.8-14.6-7.2-.3-.2-.8-.2-.9-.7.3-.2.5-.1.8-.1.3-.1.7.3.9-.3 2 .2 3.9-.6 5.9-.2.2.2.5.6.9.7l-.3.3.1.1c.8-.1.9-.1 1.8.3 1.2.5 2.2 1.3 3.5 1.6.7.2 1.2.8 1.8 1 2.4 1.1 4.7 2.2 7.1 3.4.4.2.8.6 1.3.5-.3.2-1.6.5-2 .5h-1.7c-.2 0-.4 0-.4.3h.8c.2 0 .3.1.3.3.5.2.9-.3 1.4-.3.5 0 1.1 0 1.6-.1.1 0 .1-.2.1-.2 1 0 1.8.5 2.7.8.9.3 1.8.6 2.8.9-.1.2.1.4-.1.5-.4 0-.9-.1-1.2.1-.9.5-2 .3-2.9.8-.1.1-.3.1-.4 0-.2-1.1-1-1.1-1.7-1.3zm8 1.9c-.1.1-.2.3-.3.2-.5-.1-.9.3-1.3.3-.7-.1-1.3.2-1.8.3-.6.1-1.2.4-1.8.3-.2 0-.2.3-.4.3-.1-.8.1-1.5.4-2.3.2 0 .4.1.7 0 .9-.3 1.7-.6 2.7-.5.3-.5 1.1.1 1.4-.5.4-.1.9.2 1.4-.4-.1.9-.6 1.6-1 2.3z"/>
  <path d="M129.5 67.2c-.2 0-.3.1-.3.3.2.1.4.2.5.3h.3c-.1-.2-.2-.4-.3-.5 0-.1-.1-.1-.2-.1z"/>
  <path class="st63" d="M144 54.7h.5c0 .3-.2.3-.3.3-.1 0-.2-.1-.2-.3z"/>
  <path class="st64" d="M158.2 41.6c-1.1-.3-2-.8-2.6-1.4-.1-.5.3-.7.5-1 .3-.3.7-.5.5-1 .5.4 1.1.6 1.7.9.3 0 .3.2.3.3v2.2h-.4z"/>
  <path class="st65" d="M156.8 38.2c.1.5-.3.7-.5 1-.3.3-.7.5-.5 1h-.9v-.3c.4-.7 1-1.3 1.7-1.7h.2z"/>
  <path class="st66" d="M161.6 42.5c.4-.5.7-1.2 1.3-1.5.2-.1.1-.3.1-.5.2.1.4.3.6.3.7-.1 1.1.4 1.7.6-.3.6-.8.9-1.3 1.4-.2.2-.2.4-.2.6-.6-.4-1.4-.7-2.2-.9z"/>
  <path class="st67" d="M163.9 43.3c0-.2 0-.4.2-.6.4-.4 1-.8 1.3-1.4h.5c0 .2 0 .4-.2.6-.4.4-1 .8-1.3 1.4h-.5z"/>
  <path class="st68" d="M158.8 50.7c-.1-.4 0-.8.3-1.1.7.2 1.3.6 2 .5.2 0 .4.1.3.3v.3c-.7-.3-1.5-.5-2.4-.7.6.5 1.1.7 1.6.7v.3c-.7.2-1.2-.3-1.8-.3z"/>
  <path class="st69" d="M159.1 49.6c-.3 0-.3-.2-.3-.3 0-.2.1-.3.3-.2h.3c.5-.1.9.2 1.4.4.3.1.6.1.9.2v.3c-.8.1-1.5-.1-2.1-.5-.2-.3-.5-.3-.5.1z"/>
  <path class="st70" d="M161.6 49.9v-.3c.6 0 1.1.5 1.7.3-.4.4-.9.4-1.5.1 0-.1-.1-.1-.2-.1z"/>
  <path class="st71" d="M161.4 50.7v-.3h1.7c-.6.4-1.2.3-1.7.3z"/>
  <path class="st72" d="M158.2 54.1v-.3h.5c.7.7 1.5.5 2.3.5 0 .4.3.2.5.3h1.4c-1.1.3-1.7.3-2.6.1-.6-.1-1.4-.2-2.1-.6z"/>
  <path class="st73" d="M157.9 55.3c-.4-.1-.3-.3-.2-.5.1-.1.1-.2.2-.3 1.3.5 2.6 1 4 1-.9.3-1.7.2-2.5-.1-.2 0-.4 0-.6-.2-.3-.3-.7-.4-.9.1z"/>
  <path class="st74" d="M160.5 53.8h1.2c.4 0 .7.2.8.6h-.5c-.1-.5-.6-.2-.9-.3h-.5c-.1 0-.1-.2-.1-.3z"/>
  <path class="st75" d="M161 54.1c.3.1.7-.3.9.3-.2 0-.3.1-.3.3-.2-.1-.5.2-.5-.3-.1-.1-.1-.2-.1-.3z"/>
  <path class="st76" d="M158.2 42.2h.9v.1c.5.1.9.5 1.4.4 0 .4.3.2.5.3.2.4.6.4.9.5.6.2 1.2.4 1.6.9-1.8-.3-3.6-.8-5.2-2 0 .1-.1 0-.1-.2z"/>
  <path class="st77" d="M163.6 44.5c-.4-.5-1-.7-1.6-.9-.3-.1-.8-.1-.9-.5.7-.2 1.3.2 2 .4 1 .3 2.1.7 3.2.8 0 .3-.2.3-.3.3-.9-.1-1.6-.1-2.4-.1z"/>
  <path class="st78" d="M159.1 44.5c.4.1.3.3.2.5-.1.1-.1.2-.2.3-.3-.1-.5-.4-.9-.3-.1-.2-.2-.4-.3-.5h.3c.1.1.2.1.3.2.3.1.5.2.6-.2z"/>
  <path class="st79" d="M166.2 45h-1.7c.5-.3 1.2-.3 1.7 0z"/>
  <path class="st80" d="M159.1 44.5c-.1.4-.3.3-.5.2-.1-.1-.2-.1-.3-.2v-.3c.3-.1.5.2.8.3z"/>
  <path class="st77" d="M163.9 45c-.3-.1-.7.3-.9-.3.3.2.8-.2.9.3z"/>
  <path class="st72" d="M160 45.9c.1-.3-.3-.7.3-.9.1.2-.1.4.2.6.5.4 1.2 0 1.6.5.8-.2 1.4.4 2.1.3v.3c-.9.1-1.8-.2-2.6-.5-.4-.2-.7 0-1.1-.1 0-.4-.4-.1-.5-.2z"/>
  <path class="st81" d="M161.4 46.7c1-.2 1.8.6 2.8.3-.8.3-1.5.2-2.2.2 0-.4-.3-.2-.5-.3-.1 0-.1-.1-.1-.2z"/>
  <path class="st82" d="M161.4 47c.2.1.5-.2.5.3v.3h-.3c.1-.2-.1-.3-.2-.3-.7-.1-1.2-.3-1.8-.6 0-.2.1-.3.3-.3.5.3 1 .4 1.5.6z"/>
  <path class="st83" d="M161.4 47c-.5-.2-.9-.4-1.4-.5v-.3h.5c0 .3.2.3.4.3s.5-.1.5.3v.2z"/>
  <path class="st84" d="M161.6 47.6h1.2c0 .2-.1.3-.3.3h-.9v-.3z"/>
  <path class="st85" d="M160.5 53.8v.3c-.6 0-1.1-.5-1.7-.3.1-.2-.1-.3-.2-.3-.2 0-.4 0-.3.3-.4-.1-.3-.3-.2-.5.1-.1.1-.2.2-.3.7.4 1.3.7 2.1.6 0 0 .1.1.1.2zM158.5 52.7v-.3h.5c.5.5 1.1.5 1.8.6.2 0 .5-.1.5.3-.2 0-.3.1-.3.3-.5-.4-1.3-.3-1.8-.5-.2-.2-.4-.4-.7-.4z"/>
  <path class="st77" d="M161 43c-.2-.1-.5.2-.5-.3.2.1.5-.1.5.3z"/>
  <path class="st79" d="M160.8 52.2h-.8c-.2 0-.3-.1-.3-.3h.8c.2 0 .3 0 .3.3zM159.6 51.8h-.8c.4-.2.4-.2.8 0z"/>
  <path class="st86" d="M159.1 52.4h-.5v-.3c.1.1.4-.1.5.3z"/>
  <path class="st87" d="M157.9 56.7h-.3c0-.4.3-.3.5-.3.4.1.8.3 1.4.3-.7.5-1.1.2-1.6 0z"/>
  <path class="st83" d="M159.6 47.9v-.3h.5c.5.6 1.3.6 2 .5v.6c-.5-.4-1.3-.3-1.8-.5-.2-.1-.3-.3-.7-.3z"/>
  <path class="st88" d="M162.2 48.2c-.7 0-1.5 0-2-.5.5 0 1-.1 1.4.3h.9c0 .1-.1.2-.3.2z"/>
  <path class="st89" d="M194 84.3c0-.3.1-.7.1-1 0-1.1-.1-2.2-.2-3.2-.1-.8-.2-1.5-.4-2.2-.2-.7-.5-1.2-.8-1.8-.9-1.6-1.7-3.2-3.2-4.2-3-2.3-8.3-1.5-10.4 1.7-.3.4-.9.8-.8 1.5-.6.6-.8 1.4-1.1 2.1-.3.7-.4 1.5-1 2.2-1-1.3-2.2-2.2-3.6-2.9l-.6-.3c-.7-.2-1.4-.5-2.2-.5-1.2-.1-2.3-.1-3.5 0-.5 0-.8.1-1.5.5-.1 0-.2-.1-.3 0-1.3.6-2.5 1.2-3.4 2.3-.6.8-1.1 1.5-1.5 2.4-.3.8-.8 1.6-.8 2.5.1 1.7-.1 3.4.2 5.2.3 1.4.7 2.8 1.4 4 1.2 2.3 2.6 4.5 4.3 6.4.7.7 1.3 1.4 2 2.1 2.9 2.9 6.4 5.1 9.9 7.1.3.2.7.4.8.8 0 .2-.1.3-.1.4-.3 1-.1 2.1.1 3.1.1.5.3 1 .5 1.4.4.7.7.8 1.5.8h.3c.2 0 .3-.1.4-.2.2-.1.4-.2.7-.4.4-.4.6-1 .5-1.5-.1-.5-.5-.9-.9-1.1-.4-.2-.8-.4-.9-.8-.1-.1-.1-.2-.1-.4-.1-.4-.2-.8-.3-1.1-.2-1 .7-2 1.3-2.7 3.1-3.5 6.5-6.7 9.3-10.4 2-3.5 4-7.5 4.3-11.8zm-21.3 18.4c-1.3.1-8.5-7-8.9-7.6-.4-.5-.7-1-.9-1.6-1.3-2.6-2.1-5.3-1.9-8.2.2-1.6 2.1-2.4 2.9-.8.3.7.3 1.5.3 2.3-.1 5.7 3.1 11 7.5 14.5.4.4 1.1.9 1 1.4.1 0 .1 0 0 0zm6 10.9c-.7-.4-1-.9-1.1-1.7 0-.2-.2-.4-.3-.6v-.8c.6 1.2 1.5 1.9 1.4 3.1z"/>
  <path class="st11" d="M158.2 41.6h.5c0 .4-.3.2-.5.3v-.3z"/>
  <path class="st75" d="M151.7 42.5h2.1c-.3.5-.7.1-.9.4 0 .3.7.1.5.5-.1.3-.2.5 0 .8h-1.7v-.3c.3-.1.6.2.9-.2H151c-.1 0-.1.2-.1.2-.2-.1-.5.2-.5-.3v-.3c.4-.1.8.1 1.4-.3h-2c-.4-.4-.9-.3-1.4-.3.1-.2-.1-.3-.2-.3-.4.1-.7-.2-.9-.3.1-.5.6-.2.9-.3 0 .4.3.2.5.3.9.3 1.8.7 2.8.5 0 .1.2.1.2-.1z"/>
  <path class="st90" d="M150.3 52.4c.1.6.7.1.9.5 0 .5-.5.8-.9 1.3h-1.4c-1.3.1-2.4-.3-3.7-.5-.3-.1-.4-.2-.5-.5-.1-.2.1-.3.1-.1h.1c.4.4 1.1.3 1.6.5 1 .4 2.2.4 3.3.3.2 0 .3-.1.2-.3.2-.1.4.2.5-.3h-1.4v-.5-.3h.3c.3-.1.5-.1.9-.1z"/>
  <path class="st91" d="M151.7 41.1h1.5c.4 0 .5.2.8.5-.1.5-.4.7-.9.7-.5-.1-1.1 0-1.7 0-.2-.1-.5.2-.5-.3h.9c-.1-.4-.1-.7-.1-.9z"/>
  <path class="st92" d="M145.7 50.4c-.2 0-.3.2-.2.2 1 .2 1.9.7 2.9.7.7 0 .7 0 1.5.5-.3.2-.5.1-.8.1-.2.1-.3-.3-.4-.3-1 .2-2-.3-3-.3 0-.4-.3-.2-.5-.3-.1-.4 0-.8.3-1.1.2 0 .3.1.3.3-.1 0-.1.2-.1.2z"/>
  <path class="st93" d="M149.4 49.9c0 .3.2.3.4.3h1.7c-.1.2-.1.2-.2.2-.8 0-1.6.1-2.5.1-.8-.4-1.7-.4-2.6-.5-.2 0-.3-.1-.3-.3v-.3h.5c.2.2 1 .5 1.4.5h1.6zM152 48.7c0 .3-.2.3-.4.3h-2.8c-.7-.3-1.5-.5-2.2-.5-.2 0-.4-.1-.3-.3v-.3c.9.4 1.8.7 2.8.5 0 .4.3.2.5.3h2.4z"/>
  <path class="st94" d="M149.1 52.7v.5h-.9c0-.3-.2-.3-.3-.3h-.8c-.3-.3-.8-.2-1.1-.3-.4-.1-.8-.3-1.1-.3.1-.3-.3-.7.3-.9v.4c.7.4 1.5.5 2.3.4 0 .3.2.3.3.3.4.2.8.2 1.3.2z"/>
  <path class="st95" d="M149.9 53.6c.1.2-.1.3-.2.3-1.1.1-2.2 0-3.3-.3-.5-.2-1.2-.1-1.6-.5v-.3c.8.2 1.5.4 2.3.5h1.1c0 .3.2.3.3.3h1.4z"/>
  <path class="st42" d="M148.9 54.1h1.4c.2.1.5-.2.5.3-.4 0-.2.3-.3.5 0 .3-.2.3-.3.3h-1.4c.3-.3.3-.7.1-1.1z"/>
  <path class="st75" d="M150.8 41.9c0 .4.3.2.5.3v.3c-1 .1-1.9-.4-2.8-.5h-.5c.1-.5-.8-.1-.5-.8 1 .2 2.1.7 3.3.7z"/>
  <path class="st96" d="M150.3 43.6c0 .4.3.2.5.3h.9v.3H150c0-.3-.2-.3-.3-.3-.7.1-1.3-.2-1.9-.4-.3-.2-.6-.1-.9-.2 0-.2.1-.3.3-.3.3.1.5-.1.8.1.4.2.8.4 1.2.5.3.1.7 0 1.1 0z"/>
  <path class="st94" d="M149.4 52.4h-2c0-.3-.2-.3-.4-.3-.6 0-1.2-.1-1.6-.5v-.3h.3v.1c1.1.3 2.2.7 3.4.7h.3v.3z"/>
  <path class="st97" d="M149.7 47.3h.9v.3c-1.1.2-2.1-.4-3.2-.3 0-.4-.3-.3-.5-.3s-.4 0-.4-.3v-.3c.5.2 1.1.5 1.7.5h.9c0 .6.4.4.6.4z"/>
  <path class="st98" d="M149.1 48.5c-1 .1-2-.2-2.8-.5-.3 0-.3-.2-.3-.3 0-.2.1-.3.3-.2-.1.2.1.2.2.3.9.3 1.9.7 2.9.5 0 0-.1.2-.3.2z"/>
  <path class="st99" d="M146.9 43.3c.3.1.6 0 .9.2.6.3 1.2.5 1.9.4.2-.1.4 0 .3.3v.3h-.3c-.9-.3-1.9-.5-2.8-.9v-.3z"/>
  <path class="st100" d="M146.3 48.2c0 .3.2.3.3.3.8.1 1.5.3 2.2.5v.3c-.7-.2-1.4-.2-2-.5h-.9v-.1c-.1-.2-.4-.2-.2-.4s.4-.1.6-.1z"/>
  <path class="st101" d="M150.3 43.6c-.4 0-.8.1-1.1 0-.4-.1-.8-.3-1.2-.5-.3-.2-.5-.1-.8-.1v-.3h1.1c.2.2 1 .5 1.4.5h.5c.1.2.1.3.1.4z"/>
  <path class="st102" d="M146.9 43.6c.9.3 1.9.5 2.8.9v.3h-.5c0-.3-.2-.3-.3-.3-.7 0-1.3-.3-2-.5v-.4zM146.9 44.8v-.3c.3.1.6 0 .9.2.4.2.9.4 1.4.4h.9c0 .4-.3.2-.5.3-.4-.1-.9.2-1.3-.3-.7.1-1-.5-1.4-.3z"/>
  <path class="st103" d="M149.1 45c-.5.1-.9-.2-1.4-.4-.3-.1-.6-.1-.9-.2v-.5c.7.2 1.3.6 2 .5.2 0 .4.1.3.3v.3z"/>
  <path class="st104" d="M146.9 44.8c.5-.2.8.5 1.3.3.3.5.9.2 1.3.3 0 .2-.1.3-.3.3-.4-.1-.9.2-1.3-.3-.5.2-.8-.4-1.3-.3 0-.3 0-.3.3-.3z"/>
  <path class="st105" d="M142.3 53c-.5-.3-1-.7-.8-1.4.4-.2.5-.1.5.3 0 .3.6 0 .5.4-.3.2-.2.5-.2.7z"/>
  <path class="st106" d="M146.6 45c.5-.2.8.5 1.3.3.3.5.9.2 1.3.3v.3h-.5c-.7.1-1.4-.3-2-.5-.1-.2-.1-.3-.1-.4z"/>
  <path class="st107" d="M147.1 53.3c-.8-.2-1.5-.4-2.3-.5v-.3c.4-.1.8.1 1.1.3.4.1.8.1 1.1.3.1 0 .1.1.1.2z"/>
  <path class="st108" d="M145.4 51.6c.4.4 1 .6 1.6.5.2 0 .4 0 .4.3-.8.1-1.6-.1-2.3-.4v-.4h.3z"/>
  <path class="st109" d="M148.3 47c-.6-.1-1.1-.4-1.7-.5-.2 0-.3-.1-.3-.3.7-.1 1.4.3 2 .5v.3z"/>
  <path class="st110" d="M148.3 46.7c-.7-.3-1.3-.6-2-.5 0-.2.1-.3.3-.3.6-.2 1.1.4 1.7.3v.3c-.1.1 0 .2 0 .2z"/>
  <path class="st111" d="M148.3 46.2c-.6.2-1.1-.4-1.7-.3v-.5c.7.3 1.3.6 2 .5-.1.2-.1.3-.3.3z"/>
  <path class="st112" d="M146.6 46.7c0 .3.2.3.4.3s.5-.1.5.3v.3c-.3-.3-.7-.3-1.1-.3v-.1c-.1-.2-.4-.2-.2-.4-.1-.1.2 0 .4-.1z"/>
  <path class="st113" d="M148.3 42.7h-1.1c-.2 0-.3 0-.2-.3.1-.1.1-.2.2-.3.3.1.5.4.9.3.1.1.2.2.2.3z"/>
  <path class="st114" d="M143.7 49.6v-.3h.3c.1.3.4.4.5.7-.1.3-.4.1-.5.2l-.3-.6z"/>
  <path class="st115" d="M144.8 43.6h.3c.1.3.4.4.5.7-.1.3-.4.1-.5.2 0-.3-.4-.5-.3-.9z"/>
  <path class="st116" d="M144.6 44.5h.5c0 .2.1.3.3.3 0 .3-.3.4-.4.2-.2-.1-.4-.2-.4-.5z"/>
  <path class="st117" d="M144.3 46.7c.4-.2.5.2.9.3 0 .4-.3.2-.5.3-.2-.2-.3-.4-.4-.6z"/>
  <path class="st118" d="M145.2 43.6c-.1-.2-.2-.4-.3-.5h.5v.1c.1.2.4.2.2.4h-.4z"/>
  <path class="st119" d="M145.4 43c-.1-.2-.2-.4-.3-.5.4-.2.5.2.9.3 0 .4-.3.2-.6.2z"/>
  <path class="st120" d="M144.3 45.9h.5c0 .2.1.3.3.3 0 .3-.3.4-.4.2-.2-.1-.4-.2-.4-.5z"/>
  <path class="st121" d="M146 49.6c0 .2.1.3.3.3v.3h-.5c0-.2-.1-.3-.3-.3-.1-.5.3-.2.5-.3z"/>
  <path class="st122" d="M146.6 49.3h-.5c-.3 0-.3-.2-.3-.3 0-.2.1-.3.3-.2 0 .4.3.2.5.3v.2z"/>
  <path class="st123" d="M144.8 45.9c-.1-.2-.2-.4-.3-.5.4-.2.5.2.9.3 0 .3-.3.1-.6.2z"/>
  <path class="st124" d="M143.4 51h.3c.3 0 .3.2.3.3 0 .2-.1.3-.3.2-.1-.1-.2-.3-.3-.5z"/>
  <path class="st125" d="M145.7 51.3h-.3c-.2 0-.3-.1-.3-.3.2.1.6-.2.6.3z"/>
  <path class="st126" d="M154.5 40.8h-3.4c-.2 0-.3-.1-.3-.3h.8c-.1-.3-.3-.5-.3-.9 1-.1 2 .2 2.9.5.4.2.3.5.3.7z"/>
  <path class="st127" d="M147.7 37.7c1-.2 1.5.7 2.3 1-1 .1-1.7-.2-2.3-1z"/>
  <path class="st128" d="M143.4 51c.1.2.2.4.3.5-.5-.1-.5-.1-.8-.5.1-.1.4.1.5 0z"/>
  <path class="st129" d="M144.4 48.7c-.4.1-.7-.1-.9-.5.5-.2.6.2.9.5z"/>
  <path class="st130" d="M144.3 46.7c.1.2.2.4.3.5-.4.1-.7-.2-.9-.4.2-.1.4 0 .6-.1z"/>
  <path class="st131" d="M143.7 49.6c.1.2.2.4.3.5-.4.1-.8-.1-.9-.5h.6z"/>
  <path class="st132" d="M146 42c-.4.1-.4.1-.8-.3.2-.2.3-.2.5 0l.3.3z"/>
  <path class="st133" d="M145.4 41.1c.2.1.5-.2.5.3-.1-.1-.5.1-.5-.3z"/>
  <path class="st134" d="M149.1 45.9v-.3c.2 0 .3-.1.3-.3.2-.1.5.2.5-.3.2-.1.5.2.5-.3.2 0 .3-.1.3-.3h2.3c-.2.4-.4.7-.3 1-.2.1-.2.1-.3.2h-2.5c-.2 0-.4 0-.4.3h-.4z"/>
  <path class="st93" d="M146.6 49.3V49c.2 0 .3-.1.3-.3.6.3 1.4.3 2 .5h2.9c-.3.4-.8.3-1.1.5-.4-.6-.8.3-1.2.1 0-.3-.2-.3-.3-.3h-1.1c-.5-.3-1-.2-1.5-.2z"/>
  <path class="st135" d="M156.8 53.6c.4 0 .4.3.2.5-.3.3-.2.4.1.5-.1.3-.6 0-.5.4h-.3c0-.4-.3-.2-.5-.3-.1-.4-.4-.4-.6-.8.2-.3.2-.8.6-.9 0 .2.1.3.3.3 0 .4.3.2.5.3h.2zm-1.1.3c.2.2.2.7.8.3-.2-.1-.3-.4-.8-.3z"/>
  <path class="st136" d="M149.1 48.5c.2 0 .3-.1.3-.3.2-.1.5.2.5-.3h1.7s.6.1.3.5H150c-.2 0-.4 0-.3.3-.2 0-.6.2-.6-.2z"/>
  <path class="st137" d="M151.7 47.9H150c-.9.2-1.7-.3-2.6-.3v-.3c1.1-.2 2.1.5 3.2.3h1.1v.3z"/>
  <path class="st125" d="M149.1 52.2c-1.2 0-2.3-.4-3.4-.7v-.1c1-.1 2 .4 3 .3.2 0 .2.3.4.3v.2z"/>
  <path class="st138" d="M149.7 47.3c-.2-.1-.5.2-.5-.3.2 0 .3-.1.3-.3.2-.1.5.2.5-.3.4-.2.5.3.9.3.5 0 1.1.1 1.6-.3.1.3.1.5-.2.5H150c-.2.1-.3.1-.3.4z"/>
  <path class="st52" d="M159.1 45.6c.1.4 0 .8-.3 1.1-.3-.1-.5-.4-.9-.3v-.1c-.1-.2-.4-.2-.2-.4.1-.1.3-.1.8 0 .2 0 .2-.1.1-.1-.1.1-.4-.2-.4.1.1.2.3.2.3-.1-.3-.4-.7-.5-.8-.8.1-.3.4-.1.5-.2.1.7.4.8.9.8z"/>
  <path class="st139" d="M148.5 41.9c1 .1 1.8.7 2.8.5h.3c0 .3-.2.3-.3.3-1 .1-1.9-.2-2.8-.5v-.3z"/>
  <path class="st140" d="M148.9 50.7h1.1c-.5.4-1 .2-1.5.3-.5.1-1-.4-1.6-.3v-.3c.3 0 .7.1 1 0 .3 0 .5.4 1 .3z"/>
  <path class="st141" d="M148.9 50.7c-.4.2-.6-.3-1-.3-.3.1-.7 0-1 0 0-.4-.3-.2-.5-.3v-.3c.9.1 1.7.2 2.6.5-.1.2-.1.3-.1.4z"/>
  <path class="st142" d="M155.9 53.3c-.2 0-.3-.1-.3-.3.1-.2-.2-.3-.3-.4.2-.2.4-.2.6.1.2.3.4.5.8.4h.3c-.1.2-.2.4-.3.5h-.3c.1-.5-.3-.3-.5-.3z"/>
  <path class="st98" d="M149.7 48.7c0-.3.2-.3.3-.3h1.9v.3h-2.2z"/>
  <path class="st143" d="M158.5 47.6c0 .2-.1.3-.3.3h-.5c-.1-.3-.4-.4-.5-.7.1-.3.4-.1.5-.2.2 0 .3.1.3.3-.1.4.3.2.5.3z"/>
  <path class="st144" d="M149.1 45.9h1.9c-.7.4-1.3.3-2 .3.1-.1.1-.2.1-.3z"/>
  <path class="st145" d="M151.7 47.6h-1.1v-.3h1.7c-.2.4-.4.2-.6.3z"/>
  <path class="st146" d="M149.4 52.4v-.3h1.8c-.4.4-.8.3-1 .3h-.8z"/>
  <path class="st147" d="M149.9 46.4c0 .4-.3.2-.5.3h-1.1v-.3h1.6z"/>
  <path class="st148" d="M157.7 47.9h.5v.1c.1.2.4.2.2.4-.1.1-.3.1-.5.1 0-.4-.3-.2-.5-.3-.2 0-.3 0-.2-.2 0-.1.2-.1.2-.1h.3z"/>
  <path class="st149" d="M157.7 51.6c-.1.2.2.5-.3.5-.4.1-.6-.2-.9-.4.2-.2.4-.1.5-.2 0 .2 0 .3.3.2.2 0 .3-.1.4-.1z"/>
  <path class="st150" d="M146.3 50.1c.2.1.5-.2.5.3v.3c-.3-.3-.7-.3-1.1-.3v-.3h.6z"/>
  <path class="st151" d="M157.7 51.6c-.1.1-.2.1-.3.2-.3.2-.2 0-.3-.2.1-.2-.2-.3-.3-.4.4-.5.5.2.8.1.1.1.1.2.1.3z"/>
  <path class="st152" d="M156.3 55.3h-.8v-.1c-.1-.2-.4-.2-.2-.4.1-.1.3-.1.5-.1 0 .4.3.2.5.3v.3z"/>
  <path class="st143" d="M157.9 47.3c0-.2-.1-.3-.3-.3v-.1c-.1-.2-.4-.2-.2-.4.1-.1.3-.1.5-.1.1.2.2.4.3.5v.3c-.1.1-.2.1-.3.1z"/>
  <path class="st7" d="M150.8 44.5c0 .2-.1.3-.3.3h-.9v-.3h1.2z"/>
  <path class="st153" d="M148.9 46.4h-.5v-.3c.2 0 .3-.1.3-.3h.5v.3c-.3.1-.4.2-.3.3z"/>
  <path class="st40" d="M157.7 49.9v.3h-.3c-.1-.1-.1-.2-.2-.3-.2-.3-.2-.5.2-.5.1.1.2.3.3.5z"/>
  <path class="st39" d="M157.1 53h-.3c.1-.2-.2-.3-.3-.4.2-.2.4-.3.5.2.1 0 .1.1.1.2z"/>
  <path class="st154" d="M157.3 48.2c.2.1.5-.2.5.3v.3h-.3c.1-.2 0-.5-.2-.6z"/>
  <path class="st90" d="M150.5 55c.1-.2-.2-.5.3-.5 0 .2.2.5-.3.5z"/>
  <path class="st83" d="M161.6 47.9c-.4-.4-.9-.3-1.4-.3.1-.2-.1-.3-.2-.3-.2 0-.4 0-.3.3-.4-.1-.3-.3-.2-.5.1-.1.1-.2.2-.3.6.2 1.1.5 1.8.6.1 0 .2.1.2.3-.1 0-.1.1-.1.2z"/>
  <path class="st155" d="M155.4 55.3h.5c0 .2.2.2.3.3.3.1.3.2-.1.5.1-.2-.1-.3-.2-.3-.2 0-.4-.2-.5-.5z"/>
  <path class="st156" d="M158.2 47c-.1-.2-.2-.4-.3-.5.4-.2.5.2.9.3 0 .4-.4.2-.6.2z"/>
  <path class="st157" d="M159.1 45.6c-.4.1-.8-.1-.9-.5.4-.2.5.2.9.3v.2z"/>
  <path class="st80" d="M157.7 49.9c-.1-.2-.2-.4-.3-.5.2.1.5-.1.5.2 0 .1 0 .3-.2.3z"/>
  <path class="st101" d="M156.3 55.3V55h.3c.2 0 .3 0 .2.2 0 .1-.2.1-.2.1h-.3z"/>
  <path class="st80" d="M157.3 50.1h.3c.2 0 .2.1.2.2s-.1.1-.2.1c-.1.1-.3 0-.3-.3z"/>
  <path class="st158" d="M157.9 47.3h.3c.2 0 .3.1.3.3-.2-.1-.6.1-.6-.3z"/>
  <path class="st159" d="M157.7 48.7h.3c.2 0 .2.1.2.2s-.1.1-.2.1c-.2.1-.4-.1-.3-.3z"/>
  <path class="st160" d="M160.5 46.2h-.5v-.3c.1.1.5-.2.5.3z"/>
  <path class="st161" d="M158.8 53.8c.6-.2 1.1.3 1.7.3h.5v.3c-.7 0-1.6.1-2.2-.6z"/>
  <g>
    <path class="st162" d="M161.9 50c-.1-.1-.2-.1-.2-.1-.8.1-1.5-.1-2.1-.5-.2-.1-.4-.1-.4.2.7.2 1.3.6 2 .5.2 0 .4.1.3.3h1.7c-.5.4-1.1.2-1.7.3-.7-.3-1.5-.5-2.4-.7.6.5 1.1.7 1.6.7.3.2.6.4 1 .3.3-.1 1.6.4 1.8.5h1.7c-.1-.2-.3-.4-.2-.5.1-.2.3-.3.2-.6s-.6.1-.8-.2c.3-.3.8.2 1.1-.4h-2c-.6.4-1 .4-1.6.2zM165.3 46.7h-1.1c-.9.1-1.8-.2-2.6-.5-.4-.2-.7 0-1.1-.1 0 .3.2.3.4.3s.5-.1.5.3c1-.2 1.8.6 2.8.3-.8.3-1.5.2-2.2.2v.3h.9c0 .2-.1.3-.3.3 0 .2-.1.3-.3.3v.3h.5c0-.3.2-.3.3-.3h2.5c.4 0 .3-.3.3-.5-.2-.3.4-.4.2-.6-.2-.2-.7.3-.8-.3zM162.5 53.3c0 .3-.2.3-.3.3h-1.1c-.5-.4-1.3-.3-1.8-.5-.2-.1-.4-.3-.7-.3-.2 0-.3.1-.3.3.7.4 1.3.7 2.1.6.1 0 .2.1.2.3h1.2c.4 0 .7.2.8.6h-.5c-.2 0-.3.1-.3.3h1.4c-1.1.3-1.7.3-2.6.1-.8-.2-1.5-.3-2.2-.7-.2 0-.3.1-.3.3 1.3.5 2.6 1 4 1-.9.3-1.7.2-2.5-.1-.2 0-.4 0-.6-.2-.3-.2-.7-.3-.8.2h.3c.3.3.7.3 1.1.3.3 0 .4.3.7.3 1-.1 2 .4 3 .3.1 0 .2.1.2.3.2-.1.4.1.5-.1.1-.3.1-.7-.1-1-.2-.1-.4 0-.5-.2.1-.2.3-.1.5-.1.5 0 .3-.3.3-.6.1-.3-.2-.5-.2-.8.2-.1.4 0 .5-.3-.7-.4-1.3-.3-2-.3zM164.5 45.9c-1.5.1-2.9-.3-4.2-.9.1.2-.1.4.2.6.5.4 1.2 0 1.6.5.8-.2 1.4.4 2.1.3-.1-.2.1-.3.2-.3h1.4c.2 0 .4 0 .4-.3-.6.1-1.1.1-1.7.1zM158.2 55.6c-.2.1-.5-.2-.5.3.7.3 1.4.7 2.2.6.2 0 .4 0 .3.3h.9v-.3c-.6.1-1-.3-1.7-.3-.4-.1-.9-.2-1.2-.6z"/>
    <path class="st162" d="M158.6 53.6c-.2 0-.4 0-.3.3h.5c0-.2-.1-.3-.2-.3z"/>
  </g>
  <path class="st163" d="M159.6 47.6c0-.3.2-.3.3-.3.2 0 .3.1.2.3h-.5z"/>
  <path class="st113" d="M149.7 43.3c-.4-.1-1.3-.4-1.4-.5.5 0 1-.1 1.4.3v.2z"/>
  <path class="st164" d="M149.7 43.3V43h2c-.6.4-1 .2-1.4.3h-.6z"/>
  <path class="st80" d="M151.7 43.9h-.9c.1-.1.1-.2.1-.2h1.6c-.2.4-.5.1-.8.2zM149.9 53.6h-1.4c-.2 0-.4-.1-.3-.3h2.3c-.1.4-.3.2-.6.3zM147.4 52.4h1.7v.3h-1.4c-.1 0-.3 0-.3-.3z"/>
  <path class="st122" d="M146.6 49.3c.5 0 1-.1 1.4.3v.3c-.4-.1-1.3-.4-1.4-.6z"/>
  <path class="st80" d="M148 49.9v-.3h1.1c.2 0 .4.1.3.3H148zM147.1 53.3V53h.8c.2 0 .3.1.3.3h-1.1z"/>
  <path class="st165" d="M148.3 46.7h1.1c0 .2-.1.3-.3.3h-.9c.1-.1.1-.2.1-.3z"/>
  <path class="st149" d="M147.4 47.6c.9.1 1.7.5 2.6.3 0 .4-.3.2-.5.3-1 .1-2-.2-2.9-.5-.1-.1-.2-.1-.2-.3.3-.1.7-.1 1 .2z"/>
  <path class="st166" d="M146.9 48.7c0 .2-.1.3-.3.3-.2-.1-.5.2-.5-.3h.8z"/>
  <path class="st167" d="M149.7 44.8h.9c0 .4-.3.2-.5.3h-.9v-.3h.5z"/>
  <path class="st80" d="M155.7 53.9c.4-.2.5.2.8.3-.6.5-.5-.1-.8-.3z"/>
  <path class="st101" d="M156.3 55c-.2-.1-.5.2-.5-.3.1.1.4-.2.5.3z"/>
  <path class="st168" d="M155.9 53.3c.2.1.5-.2.5.3-.1-.1-.4.1-.5-.3z"/>
  <path class="st169" d="M158.8 46.1c-.2.2-.5.2-.5-.1-.1-.3.3-.1.4-.1-.1 0 0 .1.1.2z"/>
  <g>
    <path class="st2" d="M229.6 70.1c-1 .5-1.6.8-2.2 1l-.8-.8c1.6-1.9-.3-3.5-.3-5.2-1.5-.6-2.4 1.1-3.8.6-.7 1 .1 2.2-.5 3.5-1.1-.9-1.7-1.9-1.8-3.2-.2-1.3-1.4-2.4-.4-3.8.7.5 1.1 1 1.2 1.9 2 .1 2 .1 3.9-.7.1-.8.5-1.8-.2-2.5s0-1.6-.7-2.2c-.5-.1-1.1-.1-1.7-.2-.1-.8.8-.8.8-1.3h1.7c2.1 4.2 3 8.7 4.8 12.9zM74.4 78.3H77c.9 2.3-.8 4.4-.5 6.7.3 2.3.1 4.6.1 6.6-.4.5-.7.9-1.1 1.4-2.2-3.3-2.7-7.1-4.4-11.4 0 2.1-.1 3.5 0 4.8.1 1.4-1.3 2.4-.8 3.4.3 1.2 1.2.7 1.5 1.3v.7c-.8.6-1.7.3-2.7.2-.5-4.6 1.5-9 .4-13.2.7-.8 1.3-.5 1.8-.6 1.1 3.3 2.2 6.5 3.4 9.7.2-3.2 1.1-6.3-.3-9.6zM73.8 98.4c.6-.1.7.5 1.3.9-1 1.3-.5 2.8-.7 4.3.3.3.7.6 1.1 1 .3-.3 1-.8.9-1.1-.3-2.2-.8-4.3-1-6.5-.1-1.3-1.4-1.1-1.8-2 .4-1.4 1.3-1.7 2.6-1.3.7 2.7.8 5.4 1.5 8 .4 1.8.4 4 .8 5.9.1.3-.3.6-1.4.3-.4-.3.4-2-1-2.4-1 1-2.4.3-3.9.7v2.5c-.5.1-.7.1-1.2.1 0-4.6-1.6-9.1-1.6-13.5.9-1 1.7-1.6 2.8-.8.3 1-.4 1.1-1.1 1.2-.4.6-.2 1.3-.2 2-.2 2.3 1.3 4.5.7 6.7.9.2 1.5.4 2.4-.4-2.1-1.1-.1-3.3-1.6-4.7.6-.4 1.4 0 1.4-.9zM80 112c.2 1.9-.8 3.5-1.5 5.5.7 1.1.7 2.8 2.4 3.2 1.4-1.1-1.2-1.8.1-2.8.7-.3 1.4.2 1.4.6.3 1.9 2 3.3 1.8 5.4-.8.2-1.3.4-1.4-.5-.1-.9-.9-.9-1-1.5-1.4.7-2.6 1.3-3.7 1.8.4.8 1.3 1.6.2 2.5-.4 0-.8.1-.9-.3-.9-3.9-3.4-7.2-3.6-11.1.8-.7 1.2-1.6 2.4-1.3.4.6.7 1.2 1 1.7 1.3-.5 1.6-1.3 1.4-2.4-.7-.5-1.5-1.2-2.2-1.7.5-1 1.2-.5 1.8-.8.6.4 1.2 1 1.8 1.7zm-3.9 2.8c-1.4 1.6-1.4 1.6 1.6 7.1.3 0 .7.1 1-.4-.8-2.1-1.6-4.2-2.6-6.7zM75.9 57.6c3-1.4 5.8-2.7 8.3-4.7-1.1-.6-2.2-1.1-3.3-1.7-.7.4-.9 1.2-1.1 1.8-.5.2-.9.2-1.3-.4 1.3-1.7 1.5-4.1 3.3-5.7.5 1 .4 1.8-.4 2.5 1.4 1.4 3.2 1.8 4.8 2.7v1.5c-2.4 2-5.8 2.7-8.2 4.8.5.9 1.7 1.1 2.6 1.7 1.3-.1 1.3-1.5 1.8-2.1.8-.1 1.1.2 1 .5-.4 2.4-1.7 4.4-3 6.5-.4-.4-.7-.8-1-1.1.7-.5.5-1.6 1.3-2.1-1.1-.6-2.3-1.1-3.4-1.7-1.3.2-1.4 1.5-2.2 2.5-1.5-2.2.8-3.3.8-5zM99.4 29.7c.2 1.6 1.4 1.9 1.6 2.4 1.5 1 2-1 3.3-.2.2 1.5-1.7 1.3-2.2 2.3-.5 1.1-2.4.9-2.9 2.8-.4-.8-.5-1.2-.9-2.1 0-.5 1.4-.3 2.2-1-1-1.1-1.8-2-2.5-2.7-1.3-.7-2 .4-2.9.5-.4-.2-.5-.5-.4-1.1 1.3-.2 2-1.4 3.1-2.3h9c.6-.4.3-1 .4-1.5-.7-.6-1.4-1.3-2.1-2-.9.1-1.1 1-1.8 1.4l-1-1c1.2-1.7 3.4-2.2 4.4-3.8h1.5c.3.3.3.3-1.7 2.3 1.3 1.3 1.8 3.1 3.4 4.2-.7.7-1.2 1.2-1.8 1.9-2.8-.1-5.7-.1-8.7-.1zM228.9 105.3h-3.4c-2.3-1.9-2.2-4.6-1.6-6.8.7-2.3.3-4.5.6-6.7l1-1c.3.3.7.6.9.9 0 .5-.9.8-.5 1.6 1.5.1 2.8 1.4 4.5.9.7-.8-.1-1.8.5-2.7h1.1c-.3 1.6.3 3-.7 4.6-.5 1-.1 2.5-.1 3.8.1 2-.5 4-2.3 5.4zm1.1-9.7c-1.4.1-2.7-.4-4.2-1 .4 3-1.3 5.5-.4 8.4.8 1.1 2 .9 3.2.6 1.7-2.3 1.4-5 1.4-8zM93.1 38.6c.1-.8.2-1.3.2-1.8.3-.4.7-.3 1-.3.5.3.3.8.3 1.3 0 .4.1.7.4.8 1.3.3 1.4-1.9 2.9-1.2-.6 2.1-2.3 3.2-3.8 4.8-.2-.4-.2-.5-.3-.8-.1-.2-.2-.4-.3-.8-1.1.9-2.8.4-3.8 1.8v3.3c.7-.5 1.2-1 2-1.7-.2 2.9-2.4 4.1-3.8 5.8-.7-.5-.3-1.1-.4-1.7.4-.5.9-1 1.3-1.4-1.1-1.6-.1-3.8-1.7-5.2-.7.3-.9 1.6-2.1 1.3.9-2.1.9-2.1 2.8-4.1 1.8-.1 3.4-.1 5.3-.1zm-2.6 1.8c-.9-.5-1.5-.4-2.3-.1.9.5 1.5.5 2.3.1zM121 18.5c.7.2 1.1.7 1.4 1.3-.7 3.2-3.5 3.8-8.2 5.1-.2.4-.3.8-.4 1.2-.2-.2-.4-.2-.5-.4l-1.2-2.1.2-.2c.1-.1.2 0 .3 0 4.3 0 6.1-.8 8.2-3.5-3.2-.3-5.4 2.2-8.2 2.8-1-.4-1.5-1.2-2.2-2 1.8-2.5 3.9-4.2 7.1-4.2.9 0 1-1.1 1.8-1.3.3.5 1 .6 1 1.3-.1.4.2.9-.4 1.4-2.9-.3-5.7.2-7.9 2.4.5.4.8.8 1.3 1.1 1.3-.7 2.6-1.2 3.7-2 1.2-.7 2.5-1.1 4-.9zM143.3 15.6c1.1-1.7 2.1-1.1 3.1-1.4.9-1.1 2.4-2 3.2-3.5-.5-1.1-1.6-.2-2.2-1v-.9c1.7-.4 3.5 0 5.3-.2.3 1.9 2.4 2.4 2.8 4.6.6-.8 1-1.3 1.4-1.8.3 0 .7-.1.9.3.3 1.1-.9 1.4-1.4 2.1l1 1c.8.1 1.5.1 2.3.1.2.7-.5.7-.7 1.2h-5.2c-.7-1.5.8-1 1.2-1.6-1.5-.8-3-1.5-4.6-2.3-.7.8-1.4 1.6-2.2 2.5.3.7 1.5-.4 2 .7-2.2.4-4.2.3-6.9.2zm8.1-5.4c-.8.3-.5.7-.6 1.1.7.3 1.4.6 2.4 1.1-.5-1.5-.8-2.4-1.8-2.2zM216.1 46.3c.1 0 .3.1.3 0 .2-.2.4-.5.6-.7 3.1.1 3.7 2.7 4.5 4.6.5 1.3 1.1 2.5 1.5 3.8-.4.9-1 1.5-2.1 1.3.1-3.2-.6-6.1-3.1-8.3 0 0-.2.1-.2.2l-.7.7c.9 2.6 2.6 4.8 3.4 7.4-.4 1-1.2 1.5-2.1 2.3-2.4-2-4.2-4.2-4.2-7.6-.3-.6-1.2 0-1.4-.9.3-1 .9-1.7 2.1-1.5-.3 1.7.5 3.2 1 4.7.5 1.6.7 1.6 3.3 3.4-.3-2.3-1.3-4.2-2.8-5.8-.1-1.1-.1-2.4-.1-3.6zM223.7 81.6c.1-1.3 1.2-1.9.7-3 .8-.8 1.7-1.5 2.8-2.4.5-.1 1.5.1 1.9-.8.5-1-.2-2 .5-2.7l1 1c.1 1.7.2 3.4.3 5.2 0 .2.3.3.5.5-.3.3-.7.6-1 .9-1.2-.4-1-1.5-1.1-2.4-.5-.5-1.1-.3-1.6-.2-.4.1-.7.7-1 .9-.8.7-.9 1.7-1.5 2.5.5 1.7 1.7 2.8 3 4 .4.2 1 .1 1.6 0 .7-1-.2-2.2.4-3.3.3-.2.7-.2 1.1.2-.6 2.1 1.3 4 .6 6.4-.2.4-.6.3-.9.3-.3-.2-.4-.5-.4-.8 0-.3-.1-.7-.1-1.1-3.5-.1-5.5-2.1-6.8-5.2zM191 19.5c.3 1.2 0 2.2-1.6 2.6-.7-.8-.1-2.5-1.4-2.7-1-.2-1.8-.7-2.7-.9-1.6.8-1 2.6-2.1 3.6.8.7 1.8.8 2.2 1.6-.3.3-.7.6-1 .9-1.5-1.5-4.2-1.3-5.3-3.5 1-1.4 1.6.4 2.4.2 1.2-1.3 1.6-2 1.9-3.8-1.2-.6-2.4-1.2-3.5-1.7-.7 0-.9 1.3-2.2.2-.1-.1.2-.7.1-1.3l.8-.8c4.5 1.5 8.4 3.6 12.4 5.6zM135.8 16.2c-1.1-1.3-.9-2.6-.9-3.8-1.9-.5-3.4-.1-4.9.9.1.7-.1 1.1-1.1 1-.1-.9-1.2-1.4-1-2.6 4.6-.5 8.9-2.2 13.5-2.3.4.6 1.1.8 1 1.5 0 .7-.7.8-1 1.3-.5-.2-.3-.7-.5-1.1-1.6-1-2.9.7-4.6.4v3.1c.7 1.7 2.3.5 3.3 1.3v1c-2.3 0-4.3 1.5-6.8.6.6-1.1 1.5-1.3 3-1.3zM74.9 76.8c-2.2-.4-3.5-1.6-3.9-3.9.4-1.7 1.7-3.4 1.4-5.5.8-.8 1.6-1.5 2.6-2.4 2.2-.2 3.9.7 4.9 2.9.2.5.3 1.1.2 1.3-.9 1-.6 2.3-.9 3.4-.7 2.2-2 3.6-4.3 4.2zm.5-1.2l1.8-1.8c-.1-2 1.4-3.4 1.4-5.3-1.5-1.6-1.5-1.6-2.6-2-.8.7-1.4 1.3-2.3 2.2-.7 1.5-.8 3.6-.5 5.8.6.3 1.3.6 2.2 1.1zM220.8 126.9c-2.4-.4-3.5-1.7-4-4 .4-1.4 1.3-2.7 1.7-4.3.6-2.1 2.3-3.4 4.8-3.7 1.4 1.1 2.7 2.4 3.3 4.3-.7 1.6-1.7 2.9-2.1 4.7-.5 1.9-2.3 2.2-3.7 3zm3.5-6v-3.8c-1 .2-1.3-.9-2.2-.8-2.3 1.5-2.6 4.2-3.7 5.7-.4 1 .1 1.1.2 1.4.2.4.3.8.4 1.2.9-.3 1.3 1 2.1.8 1.9-1.1 2.3-3 3.2-4.5zM164.8 15.8c.7.2 1.4.9 2.4.5.2-1 .5-2.2 1-2.9-.3-1.3-.9-2-2-1.8-.9.1-1.7-.3-2.2-.7-1.2.1-.5 1.7-1.8 1.4-.9-1.1-.3-2 .7-2.8 2.2 0 4.1 1.2 6.3 1.5 2.1.3 4.2 1 6.4 1.5.4.7.1 1.5.2 2.3-.3.4-1 .5-1.1.2-.7-1.5-1.8-2-3.3-1.9h-1.7c.4 1.4-1.3 2.4-.7 3.9.5.6 1.4-.2 1.9.5 0 .2.1.4.1.7-.2.2-.3.4-.4.5-1.7.3-3.2-.9-4.8-.9-.5-.2-1.3-.9-1-2zM201.5 30l-2.6 2.6c-3.6-.2-6-2.8-8.5-5.3v-2.1c.8-.7 1.6-1.4 2.7-2.4h3.2c1.3 1.8 3.8 2.5 5.2 4.6V30zm-8.8-5.9c.1.9-1.1 1.4-.9 2.4 1.9 1.8 3.6 3.9 6.5 4.6.8-1 2.3-1.6 1.8-3.2-1.3-1.8-3.2-2.6-4.6-3.9-1 .1-1.8.1-2.8.1zM212 38c-.8 1.3-1.3 2.6-2.6 3.3-4 .8-5.8-2.2-7.7-5.2-.2-2.3-.2-2.3.6-4.2 1.2-.6 2.4-1.5 3.7-.9 1.8.9 3.6 2.2 4.6 4.2.3.9.9 1.8 1.4 2.8zm-6-5.6h-2.1l-1 1v2.9l3.8 3.8h1.3c1.2-.8 2-1.3 2.6-1.6-.8-3-3-4.3-4.6-6.1zM223.1 105.7l1.2 1.2c-.3.8-.9 1.5-.4 2.4 1 .5 2.6-.6 3.1.9 1.3-.5 1-2.6 2.8-2.1-.4 2.1-1.3 4-1.3 6.1-.5.1-.7.1-.9.1-.8-.7-.1-1.7-.5-2.5-1.2-.5-2.3-1.4-3.9-.8-.4.7-1.1 1.4-2.4 2 .8-2.5 1.6-4.8 2.3-7.3zM214.6 130.3s-17.2 34.5-62.7 34.5S86 129.5 86 129.5v-.5s20.4 35.3 65.9 35.3 62.7-34.5 62.7-34.5v.5zM85.5 133.1l.4.9 1 .2-.7.7.2 1-.9-.5-.9.5.2-1-.8-.7 1-.2z"/>
    <path class="st2" d="M94.6 144l.4.9 1 .1-.7.8.2.9-.9-.5-.9.5.2-.9-.8-.8 1-.1zM105.3 152.8l.5.9.9.2-.7.7.2.9-.9-.4-.9.4.2-.9-.7-.7.9-.2zM117.4 159.8l.5.9 1 .1-.7.7.2 1-1-.4-.8.4.1-1-.7-.7 1-.1zM130.8 164.9l.5.9.9.2-.7.7.2 1-.9-.5-.9.5.2-1-.8-.7 1.1-.2zM144.7 167.3l.5.9.9.1-.7.7.2 1-.9-.5-.8.5.1-1-.7-.7 1-.1zM158.8 166.8l.4.9 1 .1-.7.7.1 1-.8-.4-.9.4.1-1-.7-.7 1-.1zM173 164.7l.4.8 1 .2-.7.7.2 1-.9-.5-.9.5.2-1-.7-.7 1-.2zM185.9 159l.4.9 1 .2-.7.6.1 1-.8-.5-.9.5.2-1-.7-.6.9-.2zM198 151.4l.5.9 1 .1-.7.7.1 1-.9-.5-.9.5.2-1-.7-.7 1-.1zM208.5 142.2l.5.9 1 .1-.7.7.1 1-.9-.4-.9.4.2-1-.7-.7 1-.1zM217.1 131.1l.5.9.9.1-.7.7.2 1-.9-.4-.9.4.2-1-.7-.7.9-.1z"/>
  </g>
</svg>
