<svg xmlns="http://www.w3.org/2000/svg" viewBox="0 0 207.586 207.586"><style type="text/css">
    .st0{fill:#de1d20;}
</style>
<path class="st0" d="M204.54 80.265l-63.92-63.92c-4.052-4.055-10.655-4.048-14.717.014l-9.838 9.836c-1.973 1.975-3.06 4.59-3.06 7.37-.003 2.772 1.08 5.38 3.046 7.346l2.88 2.88c-3.473 1.37-8.345 3.523-13.85 6.587-5.696-4.34-10.33-7.78-13.21-9.894 3.664-4.075 3.566-10.36-.362-14.29l-9.838-9.84c-4.066-4.054-10.667-4.058-14.715-.01l-63.92 63.92c-4.053 4.05-4.046 10.654.015 14.716l9.838 9.84c2.034 2.03 4.703 3.047 7.372 3.047 2.48 0 4.938-.917 6.9-2.677 2.29 3.148 6.045 8.257 10.515 14.138l-10.052 10.05c-.65.652-1.018 1.535-1.018 2.458 0 .923.367 1.805 1.018 2.457L39.91 146.58l-.002.002 4.913 4.913h.002l7.37 7.37 4.914 4.913 9.83 9.83h-.002l4.915 4.913 14.74 14.74c.678.68 1.567 1.02 2.456 1.02s1.778-.34 2.457-1.02l10.742-10.74c6.532 4.878 11.295 8.288 11.81 8.654.606.434 1.314.648 2.016.648.897 0 1.788-.346 2.46-1.018l46.675-46.676.005-.003.003-.005 12.282-12.282c1.2-1.2 1.357-3.094.37-4.476-.39-.548-4.227-5.904-9.617-13.095l7.033-14.126 4.69 4.69c2.025 2.027 4.685 3.038 7.347 3.038 2.667 0 5.337-1.018 7.37-3.05l9.838-9.837c1.973-1.974 3.06-4.59 3.06-7.37.003-2.77-1.08-5.38-3.046-7.345zM22.686 99.92c-1.36 1.37-3.51 1.36-4.887-.015l-9.837-9.837c-1.352-1.354-1.36-3.546-.015-4.89l63.92-63.92h.002c.68-.68 1.554-1.02 2.43-1.02.88 0 1.767.346 2.457 1.035l9.837 9.837c1.352 1.354 1.36 3.546.015 4.89L22.686 99.92zm12.306 31.918l6.95-6.947c2.806 3.62 5.754 7.338 8.708 10.947l-5.828 5.83-9.83-9.83zm22.112 22.113l-7.37-7.37 5.38-5.383c2.408 2.827 4.747 5.46 6.95 7.795l-4.96 4.96zm14.742 14.74l-9.827-9.826 4.96-4.96c3.054 2.882 6.64 6.007 10.46 9.192l-5.593 5.595zm17.198 17.2L76.76 173.606l6.08-6.083c4.672 3.762 9.427 7.45 13.8 10.773l-7.595 7.594zm81.444-56.875l-7.74 7.737-31.937-31.94c-1.357-1.358-3.556-1.358-4.913 0s-1.357 3.555 0 4.912l31.938 31.94-9.827 9.828-31.938-31.94c-1.357-1.356-3.556-1.356-4.913 0-1.358 1.358-1.358 3.557 0 4.914l31.938 31.94-9.827 9.826-31.94-31.94c-1.356-1.357-3.555-1.357-4.912 0s-1.357 3.556 0 4.913l31.94 31.94-12.65 12.65c-8.02-5.823-34.17-25.072-46.316-37.216-6.94-6.943-16.197-18.455-23.95-28.548-.163-.332-.344-.66-.62-.935-.057-.057-.132-.075-.19-.127-5.455-7.127-10.082-13.434-12.46-16.706L86.946 45.49c2.413 1.766 6.537 4.814 11.714 8.737-5.525 3.558-11.314 7.95-16.7 13.338C73.64 75.878 68.153 81.96 65.18 86.15c-1.462 2.06-4.885 6.884-1.615 10.148.763.763 2.185 2.185 15.744 3.46.107.01.216.015.325.015.51 0 1.015-.112 1.478-.33 7.227-3.392 20.605-8.536 25.625-7.983 7.97.895 19.772-5.713 26.16-9.317.126.187.207.394.372.56 12.14 12.14 31.395 38.294 37.22 46.312zm-6.924-20.93c-8.02-10.484-17.874-22.788-25.383-30.297-.434-.434-.964-.678-1.515-.835-.068-.24-.093-.485-.216-.713-.91-1.69-3.017-2.324-4.706-1.415-.572.31-1.308.723-2.173 1.21-4.864 2.753-16.255 9.166-22.043 8.52-7.928-.912-24.186 6.22-28.497 8.192-3.252-.333-6.847-.818-9.1-1.262 1.465-2.368 5.562-7.63 16.94-19.008 14.104-14.104 31.676-21.212 37.457-23.29L170.1 94.96l-6.534 13.124zm36.045-18.017l-9.836 9.837c-1.354 1.354-3.546 1.354-4.89.014L128.01 43.04c-.066-.083-.146-.142-.218-.218L120.965 36c-.653-.652-1.01-1.518-1.01-2.434 0-.923.364-1.795 1.025-2.457l9.837-9.838c.68-.68 1.57-1.018 2.457-1.018.882 0 1.763.336 2.433 1.004l63.92 63.92c.653.65 1.01 1.517 1.01 2.433 0 .924-.364 1.796-1.026 2.458z"/></svg>
