<?xml version="1.0" encoding="utf-8"?>
<!-- Generator: Adobe Illustrator 19.1.0, SVG Export Plug-In . SVG Version: 6.00 Build 0)  -->
<svg version="1.1" id="Capa_1" xmlns="http://www.w3.org/2000/svg" xmlns:xlink="http://www.w3.org/1999/xlink" x="0px" y="0px"
	 width="469.3px" height="469.3px" viewBox="-70 162.7 469.3 469.3" style="enable-background:new -70 162.7 469.3 469.3;"
	 xml:space="preserve">
<style type="text/css">
	.st0{fill:#FFFFFF;}
</style>
<g>
	<path class="st0" d="M-70,266.3c0,27.7,10.8,53.7,30.4,73.3L229,608.1c2.5,2.6,6,4,9.5,4s7-1.5,9.5-4l108.2-108.2l13.9,102.8
		l-71.2-9.6c-7.4-1-14.2,4.2-15.2,11.6c-1,7.4,4.2,14.2,11.6,15.2l88.8,12c0.6,0.1,1.2,0.1,1.8,0.1c3.5,0,7-1.5,9.5-4
		c2.9-2.9,4.4-7.1,3.8-11.3l-19.9-147.4c-0.4-2.9-1.7-5.6-3.8-7.7L106.9,193.1c-40.4-40.5-106.1-40.5-146.5,0
		C-59.2,212.6-70,238.6-70,266.3z M346.8,471.2l-45.1,45.1L56.6,271.2l45.1-45.1L346.8,471.2z M-6.7,334.4l44.1-44.1l245.1,245.1
		l-44.1,44.1L-6.7,334.4z M-43,266.3c0-20.5,7.9-39.8,22.4-54.2c14.5-14.4,33.7-22.4,54.2-22.4c18,0,35.1,6.2,48.8,17.5L-25.5,315.1
		C-36.8,301.4-43,284.4-43,266.3z"/>
</g>
</svg>
