<?xml version="1.0" encoding="utf-8"?>
<!-- Generator: Adobe Illustrator 19.1.0, SVG Export Plug-In . SVG Version: 6.00 Build 0)  -->
<svg version="1.0" id="Capa_1" xmlns="http://www.w3.org/2000/svg" xmlns:xlink="http://www.w3.org/1999/xlink" x="0px" y="0px"
	 width="489.5px" height="489.5px" viewBox="-60 152.5 489.5 489.5" style="enable-background:new -60 152.5 489.5 489.5;"
	 xml:space="preserve">
<style type="text/css">
	.st0{fill:#de1d20;}
</style>
<g>
	<g>
		<path class="st0" d="M332.1,603.9V190.5c0-20.9-17-38-38-38H75.3c-20.9,0-38,17-38,38V604c0,20.9,17,38,38,38h218.8
			C315,641.9,332.1,624.9,332.1,603.9z M61.8,240.6h245.7v278.2H61.8C61.8,518.8,61.8,240.6,61.8,240.6z M75.4,177h218.8
			c7.4,0,13.5,6,13.5,13.5v25.6H61.9v-25.6C61.8,183,67.9,177,75.4,177z M61.8,603.9v-60.7h245.7v60.7c0,7.4-6,13.5-13.5,13.5H75.3
			C67.9,617.4,61.8,611.4,61.8,603.9z"/>
		<path class="st0" d="M209.5,569.1h-49.7c-6.8,0-12.3,5.5-12.3,12.3c0,6.8,5.5,12.3,12.3,12.3h49.7c6.8,0,12.3-5.5,12.3-12.3
			C221.9,574.6,216.4,569.1,209.5,569.1z"/>
	</g>
</g>
</svg>
