<svg xmlns="http://www.w3.org/2000/svg" viewBox="0 0 463.009 463.009">
<style type="text/css">
	.st0{fill:#f5f5f5;}
</style>
<path class="st0" d="M462.692 381.085c-1.472-11.126-7.895-20.72-17.62-26.318L330.846 289c-13.99-8.055-31.738-5.71-43.157 5.708l-22.5 22.5c-5.987 5.987-15.46 6.517-22.028 1.23-17.737-14.272-35.2-29.98-51.906-46.685-16.705-16.705-32.412-34.168-46.685-51.906-5.286-6.57-4.757-16.04 1.232-22.03L168.3 175.32c11.418-11.418 13.766-29.164 5.71-43.157L108.24 17.937C102.642 8.21 93.05 1.79 81.924.317 70.797-1.158 59.864 2.553 51.928 10.49l-33.9 33.9c-23.662 23.663-24.042 66.945-1.07 121.876 22.087 52.818 63.307 110.962 116.064 163.72 52.76 52.76 110.903 93.98 163.722 116.067 27.04 11.307 51.253 16.957 71.697 16.956 21.09 0 38.164-6.014 50.18-18.028l33.9-33.902c7.935-7.936 11.643-18.87 10.172-29.995zM323.362 302l114.226 65.766c5.65 3.252 9.38 8.824 10.233 15.286.72 5.423-.69 10.763-3.884 15.066L292.13 311.48l6.166-6.165c6.63-6.63 16.94-7.994 25.066-3.316zM79.956 15.187c6.463.855 12.034 4.585 15.286 10.234l65.767 114.226c4.68 8.127 3.315 18.435-3.316 25.065l-5.663 5.663L64.918 19.073c3.56-2.637 7.82-4.07 12.26-4.07.92 0 1.85.062 2.78.185zM408.01 434.375c-18.797 18.798-57.243 18.01-105.48-2.162-51.06-21.352-107.49-61.424-158.9-112.833-51.41-51.41-91.482-107.842-112.834-158.9-20.173-48.238-20.96-86.684-2.162-105.483L53.8 29.83l87.246 151.53-5.85 5.852c-11.416 11.416-12.41 29.488-2.312 42.04 14.61 18.156 30.68 36.024 47.764 53.108 17.086 17.085 34.954 33.156 53.11 47.765 12.55 10.098 30.62 9.105 42.04-2.312l5.337-5.338 152.016 86.76-25.14 25.14z"/></svg>